<svg width="233" height="256" viewBox="0 0 233 256" fill="none" xmlns="http://www.w3.org/2000/svg">
<mask id="mask0_1_2992" style="mask-type:alpha" maskUnits="userSpaceOnUse" x="-29" y="-40" width="262" height="296">
<path d="M-29 -40H233V156C233 211.228 188.228 256 133 256H71C15.7715 256 -29 211.228 -29 156V-40Z" fill="#D9D9D9"/>
</mask>
<g mask="url(#mask0_1_2992)">
<path d="M220.614 127.109L211.266 132.642C207.087 135.114 205.649 140.47 208.024 144.706L213.324 154.153C216.4 159.634 213.005 166.495 206.781 167.375L196.057 168.89C191.248 169.569 187.86 173.966 188.431 178.79L189.707 189.569C190.446 195.805 184.691 200.838 178.611 199.275L168.097 196.577C163.391 195.37 158.582 198.141 157.27 202.817L154.345 213.243C152.646 219.295 145.395 221.748 140.371 217.969L131.713 211.46C127.833 208.541 122.332 209.257 119.325 213.068L112.598 221.597C108.712 226.527 101.088 226.016 97.8914 220.614L92.3584 211.266C89.8861 207.087 84.5298 205.649 80.2943 208.024L70.847 213.324C65.3657 216.4 58.5049 213.005 57.6255 206.781L56.1102 196.057C55.4312 191.248 51.0341 187.86 46.2102 188.431L35.4308 189.707C29.1951 190.446 24.1621 184.691 25.7248 178.611L28.4234 168.097C29.6305 163.391 26.8586 158.582 22.1834 157.27L11.7575 154.345C5.70497 152.646 3.25209 145.395 7.03059 140.371L13.54 131.713C16.4585 127.833 15.7429 122.332 11.9321 119.325L3.40294 112.598C-1.52658 108.712 -1.01575 101.088 4.38581 97.8914L13.734 92.3584C17.9134 89.8861 19.3511 84.5298 16.9758 80.2943L11.6756 70.847C8.59976 65.3657 11.9945 58.5049 18.2195 57.6255L28.9429 56.1102C33.7517 55.4312 37.14 51.0341 36.5688 46.2102L35.2929 35.4308C34.5535 29.1951 40.3086 24.1621 46.3891 25.7248L56.9034 28.4234C61.6088 29.6305 66.4175 26.8585 67.7302 22.1834L70.6552 11.7575C72.3537 5.70495 79.6046 3.25205 84.6289 7.03056L93.2874 13.54C97.1672 16.4585 102.668 15.7429 105.675 11.9321L112.402 3.40293C116.288 -1.52658 123.912 -1.01575 127.109 4.38581L132.642 13.734C135.114 17.9134 140.47 19.3511 144.706 16.9758L154.153 11.6755C159.634 8.59972 166.495 11.9946 167.375 18.2195L168.89 28.9429C169.569 33.7517 173.966 37.1401 178.79 36.5689L189.569 35.2928C195.805 34.5535 200.838 40.3086 199.275 46.3891L196.577 56.9034C195.37 61.6087 198.141 66.4175 202.817 67.7302L213.243 70.6552C219.295 72.3536 221.748 79.6046 217.969 84.6289L211.46 93.2874C208.542 97.1672 209.257 102.668 213.068 105.675L221.597 112.402C226.527 116.288 226.016 123.91 220.614 127.109Z" fill="#E0E0E0"/>
<path d="M110.769 204.883H18V222.747H110.769V204.883Z" fill="#86B393"/>
<path d="M109.37 222.746H19.3979V304.853H109.37V222.746Z" fill="#86B393"/>
<path d="M57.9895 222.746H19.3979V304.853H57.9895V222.746Z" fill="#74A382"/>
<path d="M55.9705 204.883H18V222.747H55.9705V204.883Z" fill="#74A382"/>
<path d="M43.0831 215.401H30.8864C30.0108 215.401 29.3003 214.691 29.3003 213.815C29.3003 212.939 30.0098 212.229 30.8864 212.229H43.0831C43.9586 212.229 44.6692 212.938 44.6692 213.815C44.6692 214.69 43.9597 215.401 43.0831 215.401Z" fill="#292759"/>
<path d="M109.37 222.746H19.3979V225.896H109.37V222.746Z" fill="#292759"/>
<path d="M196 204.883H103.231V222.747H196V204.883Z" fill="#86B393"/>
<path d="M194.601 222.747H104.629V304.853H194.601V222.747Z" fill="#86B393"/>
<path d="M143.221 222.747H104.629V304.853H143.221V222.747Z" fill="#74A382"/>
<path d="M141.202 204.883H103.231V222.747H141.202V204.883Z" fill="#74A382"/>
<path d="M128.316 215.401H116.119C115.244 215.401 114.533 214.691 114.533 213.815C114.533 212.939 115.243 212.229 116.119 212.229H128.316C129.192 212.229 129.902 212.938 129.902 213.815C129.901 214.69 129.192 215.401 128.316 215.401Z" fill="#292759"/>
<path d="M194.601 222.747H104.629V225.896H194.601V222.747Z" fill="#292759"/>
<path d="M178.62 170.001H85.8516V187.865H178.62V170.001Z" fill="#BF6F39"/>
<path d="M177.221 187.865H87.2495V304.854H177.221V187.865Z" fill="#BF6F39"/>
<path d="M125.841 187.865H87.2495V304.854H125.841V187.865Z" fill="#AB5D29"/>
<path d="M123.822 170.001H85.8516V187.865H123.822V170.001Z" fill="#AB5D29"/>
<path d="M110.936 180.518H98.7394C97.8639 180.518 97.1533 179.808 97.1533 178.932C97.1533 178.056 97.8628 177.346 98.7394 177.346H110.936C111.812 177.346 112.522 178.055 112.522 178.932C112.521 179.808 111.812 180.518 110.936 180.518Z" fill="#292759"/>
<path d="M136.825 170.001V209.827C136.825 212.059 137.257 214.265 138.091 216.286C138.535 217.364 139.883 217.364 140.328 216.286L140.696 215.393L141.063 216.286C141.507 217.364 142.855 217.364 143.3 216.286L143.668 215.393L144.036 216.286C144.48 217.364 145.828 217.364 146.273 216.286L146.642 215.393L147.01 216.286C147.454 217.364 148.802 217.364 149.247 216.286L149.615 215.393L149.982 216.286C150.426 217.364 151.774 217.364 152.22 216.286L152.588 215.393L152.956 216.286C153.4 217.364 154.748 217.364 155.193 216.286L155.561 215.393L155.932 216.285C156.376 217.363 157.724 217.363 158.169 216.285L158.538 215.392L158.906 216.285C159.35 217.363 160.698 217.363 161.143 216.285C161.976 214.264 162.409 212.059 162.409 209.826V170H136.825V170.001Z" fill="#FCB747"/>
<path d="M177.221 187.865H87.2495V191.014H177.221V187.865Z" fill="#292759"/>
<path d="M132.235 232.211L177.221 288.915V304.854H130.837V239.558L132.235 232.211Z" fill="#292759"/>
<path d="M132.236 232.211H39.4668V250.075H132.236V232.211Z" fill="#BF6F39"/>
<path d="M130.837 250.076H40.8647V304.94H130.837V250.076Z" fill="#BF6F39"/>
<path d="M79.4563 250.076H40.8647V304.94H79.4563V250.076Z" fill="#AB5D29"/>
<path d="M77.4373 232.211H39.4668V250.075H77.4373V232.211Z" fill="#AB5D29"/>
<path d="M64.5499 242.729H52.3532C51.4776 242.729 50.7671 242.02 50.7671 241.143C50.7671 240.267 51.4766 239.557 52.3532 239.557H64.5499C65.4254 239.557 66.136 240.266 66.136 241.143C66.136 242.02 65.4254 242.729 64.5499 242.729Z" fill="#292759"/>
<path d="M90.4399 232.211V272.037C90.4399 274.269 90.8723 276.475 91.7057 278.496C92.15 279.574 93.4978 279.574 93.9431 278.496L94.3107 277.603L94.6795 278.496C95.1237 279.574 96.4715 279.574 96.9168 278.496L97.2845 277.603L97.6521 278.496C98.0964 279.574 99.4441 279.574 99.8894 278.496L100.258 277.603L100.626 278.496C101.07 279.574 102.418 279.574 102.863 278.496L103.232 277.603L103.6 278.496C104.044 279.574 105.392 279.574 105.837 278.496L106.206 277.603L106.573 278.496C107.018 279.574 108.365 279.574 108.811 278.496L109.178 277.603L109.546 278.496C109.99 279.574 111.338 279.574 111.783 278.496L112.151 277.603L112.52 278.496C112.964 279.574 114.312 279.574 114.757 278.496C115.59 276.475 116.023 274.27 116.023 272.037V232.211H90.4399Z" fill="#FCB747"/>
<path d="M130.837 250.076H40.8647V253.225H130.837V250.076Z" fill="#292759"/>
<path d="M75.9943 90.5698C71.3086 93.5663 65.7358 95.1565 60.1741 95.0853C58.4001 95.0624 56.6227 94.8752 54.8546 95.026C53.0865 95.1768 51.282 95.7063 49.9842 96.9161C48.6863 98.1258 48.0255 100.123 48.7354 101.749C49.7351 104.037 52.9713 104.947 53.4618 107.396C53.8143 109.157 52.502 110.836 51.0245 111.859C49.5479 112.882 47.8094 113.562 46.5641 114.857C45.0696 116.41 44.4919 118.786 45.1061 120.852C45.7203 122.919 47.5027 124.593 49.6029 125.077C50.8678 125.369 52.4198 125.377 53.106 126.478C53.5847 127.247 53.4085 128.232 53.2899 129.13C53.0399 131.019 53.1399 133.017 54.0142 134.709C54.8885 136.401 56.6583 137.715 58.5619 137.648C59.3057 137.621 60.0351 137.394 60.7789 137.408C61.5228 137.422 62.3471 137.774 62.569 138.484C62.7224 138.975 62.5521 139.501 62.497 140.012C62.2268 142.513 64.72 144.462 67.1303 145.18C71.9507 146.617 77.3346 145.23 81.3968 142.264C85.4591 139.298 88.309 134.911 90.2109 130.254C92.1128 125.598 93.1405 120.64 94.1579 115.713" fill="#263238"/>
<path d="M129.842 215.177C129.361 213.825 128.442 212.674 127.459 211.628C121.081 204.839 111.419 201.595 102.119 202.124C92.8189 202.652 83.926 206.702 76.6826 212.559C72.8237 215.678 67.6296 221.707 66.2725 226.48C71.9308 227.844 80.3882 225.945 85.7238 223.619C91.0593 221.292 96.3415 218.474 102.132 217.884C108.843 217.201 115.43 219.584 122.042 220.922C123.371 221.191 124.733 221.419 126.078 221.247C127.422 221.074 128.766 220.447 129.516 219.318C130.311 218.122 130.324 216.53 129.842 215.177Z" fill="#FF725E"/>
<g opacity="0.3">
<path d="M129.843 215.178C129.362 213.826 128.443 212.674 127.46 211.628C121.082 204.839 111.42 201.596 102.12 202.124C92.8199 202.652 83.927 206.702 76.6836 212.559C72.8247 215.678 67.6306 221.708 66.2734 226.481C71.9318 227.845 80.3892 225.945 85.7247 223.619C91.0603 221.293 96.3425 218.474 102.133 217.884C108.844 217.202 115.431 219.584 122.043 220.922C123.372 221.191 124.734 221.42 126.079 221.247C127.423 221.074 128.767 220.447 129.517 219.318C130.312 218.122 130.325 216.531 129.843 215.178Z" fill="black"/>
</g>
<path d="M118.152 207.07C117.488 207.07 95.7571 206.594 84.0261 214.341L74.7385 219.578L74.9901 228.983C74.9901 228.983 72.9975 232.303 73.4406 234.296C73.8828 236.288 73.3762 244.699 73.3762 244.699C73.3762 244.699 69.8985 244.92 69.4563 250.897C69.4563 250.897 64.6299 252.889 62.5052 256.431C60.3804 259.972 38.6883 299.815 37.3608 306.234C36.0324 312.653 35.1471 323.942 40.0167 327.705C44.8863 331.468 55.7319 330.14 55.7319 330.14C55.7319 330.14 57.2814 334.789 66.7995 335.01C76.3176 335.231 90.9264 324.164 90.9264 324.164L134.753 294.282L124.386 272.076L109.077 281.444L125.457 262.409C125.457 262.409 132.982 249.571 130.769 236.068C129.126 226.043 118.152 207.07 118.152 207.07Z" fill="#263238"/>
<path d="M121.9 213.966C121.899 213.981 121.722 213.99 121.385 213.993C121 213.992 120.512 213.99 119.91 213.987C118.629 213.977 116.777 213.946 114.49 213.974C112.204 214.007 109.48 214.083 106.478 214.403C103.48 214.724 100.195 215.282 96.9024 216.405C90.291 218.636 84.9681 222.186 81.1812 224.717C79.3352 225.996 77.8256 227.042 76.7259 227.805C76.2303 228.146 75.8279 228.422 75.5102 228.641C75.2298 228.828 75.0781 228.921 75.0688 228.909C75.0595 228.896 75.1942 228.78 75.4577 228.569C75.7618 228.334 76.1481 228.034 76.6242 227.666C77.6451 226.892 79.1302 225.781 81.0042 224.46C84.7521 221.859 90.0767 218.244 96.7626 215.987C100.093 214.851 103.418 214.299 106.437 213.999C109.461 213.699 112.197 213.655 114.489 213.662C116.782 213.674 118.636 213.753 119.915 213.815C120.516 213.852 121.004 213.881 121.389 213.904C121.724 213.93 121.9 213.951 121.9 213.966Z" fill="#455A64"/>
<path d="M77.1862 220.861C77.2438 220.914 76.6356 221.229 76.4924 222.135C76.4263 222.568 76.5297 223.124 76.955 223.503C77.3608 223.883 78.0546 224.086 78.6476 223.853C79.239 223.614 79.6016 222.989 79.6337 222.433C79.6812 221.864 79.3737 221.391 79.0272 221.122C78.2986 220.564 77.6412 220.754 77.6471 220.677C77.6395 220.653 77.7784 220.572 78.0622 220.548C78.3409 220.523 78.7755 220.582 79.211 220.87C79.6388 221.14 80.0751 221.724 80.0404 222.451C80.0209 223.149 79.5999 223.936 78.812 224.263C78.0156 224.569 77.1693 224.289 76.6745 223.796C76.1476 223.293 76.062 222.569 76.1857 222.078C76.3026 221.569 76.5771 221.227 76.7965 221.053C77.0185 220.876 77.1752 220.839 77.1862 220.861Z" fill="#455A64"/>
<path d="M84.9811 222.011C84.9404 222.05 84.632 221.824 84.2008 221.381C83.7874 220.939 83.1833 220.26 82.9427 219.28C82.7267 218.294 82.9707 217.419 83.1478 216.839C83.3401 216.252 83.5171 215.913 83.5705 215.93C83.6332 215.95 83.5612 216.323 83.4502 216.915C83.3502 217.503 83.1825 218.331 83.3723 219.18C83.5748 220.026 84.0898 220.695 84.4389 221.179C84.7998 221.662 85.0285 221.966 84.9811 222.011Z" fill="#455A64"/>
<path d="M86.8206 220.887C86.7841 220.926 86.4808 220.738 86.0861 220.32C85.6947 219.904 85.2312 219.223 84.9779 218.37C84.4993 216.641 84.8475 215.225 84.9313 215.244C85.0855 215.245 84.9534 216.656 85.3998 218.243C85.8683 219.832 86.9315 220.787 86.8206 220.887Z" fill="#455A64"/>
<path d="M110.28 213.966C110.211 213.963 110.19 213.569 110.126 212.948C110.063 212.329 109.953 211.473 109.597 210.616C109.248 209.755 108.692 209.099 108.275 208.639C107.853 208.18 107.575 207.899 107.617 207.849C107.653 207.806 108 207.999 108.493 208.415C108.978 208.829 109.622 209.506 110.005 210.447C110.392 211.381 110.454 212.299 110.44 212.937C110.423 213.58 110.333 213.968 110.28 213.966Z" fill="#455A64"/>
<path d="M113.125 213.908C113.062 213.902 113.051 213.513 113.057 212.894C113.049 212.28 113.119 211.413 112.864 210.559C112.591 209.709 112.072 209.009 111.761 208.476C111.436 207.947 111.252 207.604 111.302 207.568C111.35 207.533 111.622 207.81 112.015 208.295C112.391 208.788 112.968 209.462 113.285 210.429C113.571 211.41 113.435 212.303 113.367 212.917C113.282 213.537 113.184 213.913 113.125 213.908Z" fill="#455A64"/>
<path d="M75.6599 310.172C75.6378 310.171 75.7522 309.809 76.0555 309.183C76.3503 308.551 76.8086 307.629 77.4093 306.447C78.6106 304.084 80.3888 300.687 82.6076 296.501C87.0451 288.129 93.2491 276.603 100.149 263.899C101.877 260.724 103.564 257.624 105.193 254.629C106.805 251.645 107.974 248.564 108.761 245.551C110.36 239.509 110.35 233.773 109.641 229.12C108.935 224.446 107.58 220.826 106.517 218.415C105.977 217.208 105.513 216.291 105.19 215.674C105.037 215.383 104.915 215.151 104.821 214.973C104.739 214.813 104.701 214.729 104.708 214.726C104.715 214.722 104.766 214.798 104.86 214.951C104.964 215.125 105.099 215.35 105.268 215.632C105.616 216.237 106.108 217.143 106.674 218.344C107.789 220.744 109.198 224.369 109.95 229.074C110.704 233.755 110.747 239.548 109.154 245.654C108.37 248.701 107.198 251.817 105.573 254.837C103.946 257.832 102.261 260.934 100.536 264.111C93.6481 276.806 87.4128 288.3 82.8821 296.65C80.6464 300.801 78.8317 304.17 77.5609 306.528C76.9527 307.679 76.4748 308.582 76.1351 309.224C75.9852 309.516 75.8666 309.749 75.7742 309.93C75.7056 310.086 75.6683 310.171 75.6599 310.172Z" fill="#455A64"/>
<path d="M76.341 253.677C76.3469 253.682 76.308 253.743 76.2258 253.858C76.1267 253.991 76.0038 254.156 75.8539 254.357C75.5252 254.795 75.0457 255.444 74.478 256.314C73.3259 258.041 71.8509 260.675 70.4666 264.121C69.0662 267.562 67.8183 271.814 66.5908 276.577C65.3327 281.328 64.084 286.624 61.9236 291.911C59.732 297.177 57.0388 301.894 55.2953 306.483C53.5408 311.054 52.6292 315.448 52.6538 319.148C52.6572 320.998 52.8859 322.665 53.2188 324.095C53.5526 325.528 54.0194 326.712 54.4269 327.664C54.8624 328.604 55.2309 329.322 55.5173 329.788C55.6409 330.007 55.7417 330.185 55.8231 330.331C55.89 330.455 55.9214 330.52 55.9154 330.524C55.9086 330.528 55.8654 330.471 55.7858 330.356C55.6935 330.217 55.5808 330.046 55.441 329.835C55.1292 329.381 54.7336 328.673 54.2702 327.736C53.8356 326.787 53.34 325.599 52.9791 324.154C52.6182 322.711 52.3649 321.025 52.3412 319.151C52.2768 315.398 53.1655 310.958 54.9149 306.337C56.6533 301.703 59.3406 296.971 61.5153 291.744C63.6578 286.501 64.9176 281.222 66.1977 276.474C67.4473 271.713 68.7324 267.449 70.1777 264.003C71.6069 260.553 73.1344 257.923 74.3357 256.219C74.9279 255.36 75.432 254.723 75.7844 254.302C75.9488 254.111 76.0826 253.955 76.191 253.829C76.2851 253.724 76.3351 253.672 76.341 253.677Z" fill="#455A64"/>
<path d="M77.7635 226.941C77.7991 226.961 77.6025 227.312 77.323 227.978C77.0408 228.639 76.6765 229.622 76.4893 230.888C76.3029 232.154 76.3394 233.692 76.6486 235.362C76.9044 237.044 77.6076 238.785 78.0837 240.735C78.3269 241.703 78.4184 242.719 78.3345 243.665C78.2625 244.612 78.0973 245.509 77.899 246.349C77.511 248.033 77.0146 249.502 76.5884 250.729C76.1555 251.954 75.7726 252.933 75.5032 253.606C75.2313 254.279 75.0703 254.647 75.0415 254.637C75.0135 254.626 75.1203 254.238 75.3422 253.548C75.5938 252.776 75.9124 251.798 76.2936 250.63C76.6799 249.396 77.1425 247.924 77.5034 246.261C77.8592 244.599 78.1676 242.731 77.6559 240.837C77.1959 238.945 76.4902 237.156 76.2496 235.432C75.9564 233.726 75.9505 232.136 76.1835 230.84C76.4173 229.542 76.8367 228.554 77.1696 227.906C77.3357 227.581 77.4797 227.337 77.5873 227.178C77.6898 227.014 77.7508 226.934 77.7635 226.941Z" fill="#455A64"/>
<path d="M78.7993 252.427C78.7129 252.371 80.0904 251.315 80.9308 248.823C81.3527 247.597 81.6196 246.051 81.5975 244.332C81.5806 242.61 81.2832 240.725 80.8961 238.76C80.5157 236.791 80.1006 234.911 79.9616 233.154C79.8176 231.404 79.8752 229.816 80.0514 228.5C80.2226 227.183 80.5191 226.14 80.7952 225.451C80.9376 225.107 81.0562 224.846 81.157 224.677C81.2519 224.506 81.3078 224.42 81.3213 224.427C81.3586 224.446 81.179 224.812 80.9571 225.508C80.7351 226.204 80.4903 227.236 80.3606 228.537C80.2268 229.835 80.2022 231.399 80.3657 233.118C80.5225 234.834 80.9469 236.701 81.3281 238.676C81.7161 240.649 82.0076 242.565 82.0033 244.33C82.0033 246.094 81.6958 247.679 81.2239 248.928C80.7571 250.181 80.1395 251.092 79.6482 251.649C79.3957 251.923 79.1941 252.129 79.0399 252.25C78.8925 252.378 78.8103 252.438 78.7993 252.427Z" fill="#455A64"/>
<path d="M100.282 245.752C100.285 245.783 99.9199 245.849 99.2591 245.941C98.5974 246.028 97.6435 246.175 96.4701 246.379C94.1234 246.785 90.9075 247.51 87.4722 248.691C84.0377 249.879 81.0574 251.289 78.9597 252.416C77.9101 252.978 77.068 253.451 76.4936 253.789C75.9158 254.123 75.5879 254.297 75.571 254.271C75.5541 254.246 75.8506 254.024 76.4021 253.644C76.9502 253.26 77.772 252.744 78.8081 252.143C80.8794 250.94 83.8649 249.471 87.3282 248.273C90.7923 247.083 94.0489 246.399 96.421 246.071C97.6071 245.905 98.572 245.805 99.2413 245.77C99.9097 245.73 100.28 245.723 100.282 245.752Z" fill="#455A64"/>
<path d="M101.663 236.515C101.664 236.599 100.413 236.579 98.4375 236.886C97.4488 237.032 96.2882 237.301 95.0267 237.684C93.772 238.091 92.4216 238.626 91.0704 239.325C89.7259 240.039 88.5178 240.846 87.4699 241.647C86.4363 242.466 85.5552 243.268 84.8732 243.999C83.4974 245.449 82.8036 246.489 82.7341 246.441C82.7087 246.424 82.8671 246.155 83.1755 245.681C83.4762 245.202 83.9752 244.549 84.6428 243.788C85.3053 243.02 86.1787 242.18 87.2165 241.328C88.2687 240.495 89.4938 239.662 90.8645 238.934C92.242 238.222 93.6238 237.688 94.9073 237.296C96.1975 236.926 97.3853 236.686 98.3934 236.577C99.3999 236.461 100.221 236.422 100.786 236.448C101.353 236.462 101.664 236.486 101.663 236.515Z" fill="#455A64"/>
<path d="M103.558 255.895C103.567 255.924 103.226 256.053 102.605 256.261C101.982 256.464 101.085 256.77 99.9825 257.161C97.7773 257.942 94.7698 259.129 91.5691 260.703C88.3702 262.283 85.5957 263.946 83.6336 265.218C82.6517 265.853 81.863 266.379 81.3225 266.748C80.7794 267.114 80.4694 267.306 80.4516 267.281C80.4329 267.256 80.7083 267.019 81.2217 266.609C81.7325 266.196 82.4967 265.63 83.4608 264.958C85.3873 263.614 88.155 261.897 91.3752 260.307C94.5961 258.723 97.6435 257.573 99.8834 256.865C101.003 256.509 101.917 256.249 102.557 256.095C103.194 255.939 103.55 255.866 103.558 255.895Z" fill="#455A64"/>
<path d="M130.265 233.73C130.256 233.748 129.974 233.646 129.45 233.443C128.923 233.246 128.153 232.954 127.159 232.625C125.173 231.963 122.268 231.192 118.695 230.769L118.908 230.577C119.005 234.221 118.984 238.554 118.657 243.17C118.31 248.157 117.648 252.771 116.87 256.562L116.865 256.472C117.862 259.655 118.874 262.242 119.682 263.995C120.079 264.877 120.447 265.538 120.696 265.99C120.962 266.432 121.102 266.669 121.086 266.681C121.072 266.692 120.9 266.476 120.601 266.049C120.32 265.612 119.918 264.96 119.49 264.087C118.62 262.346 117.554 259.773 116.513 256.581L116.5 256.538L116.509 256.49C117.24 252.705 117.872 248.108 118.218 243.139C118.543 238.54 118.587 234.221 118.53 230.585L118.527 230.365L118.743 230.393C122.337 230.857 125.257 231.688 127.232 232.416C128.221 232.777 128.982 233.104 129.495 233.336C130.005 233.573 130.272 233.712 130.265 233.73Z" fill="#455A64"/>
<path d="M130.956 237.398C130.931 237.459 130.262 237.236 129.173 236.912C128.086 236.586 126.573 236.17 124.886 235.772C121.509 234.981 118.733 234.473 118.756 234.341C118.766 234.281 119.471 234.34 120.601 234.503C121.732 234.667 123.288 234.941 124.987 235.342C128.399 236.119 131.01 237.284 130.956 237.398Z" fill="#455A64"/>
<path d="M126.882 224.361C126.86 224.428 125.849 224.126 124.196 223.738C122.543 223.349 120.237 222.912 117.658 222.698C115.077 222.488 112.729 222.53 111.032 222.609C109.334 222.689 108.283 222.78 108.275 222.712C108.272 222.682 108.53 222.624 109.002 222.546C109.473 222.465 110.16 222.378 111.011 222.298C112.713 222.139 115.085 222.046 117.694 222.259C120.303 222.476 122.629 222.968 124.274 223.437C125.096 223.672 125.755 223.886 126.202 224.058C126.65 224.225 126.892 224.332 126.882 224.361Z" fill="#455A64"/>
<path d="M109.644 228.183C109.651 228.211 109.253 228.341 108.521 228.534C107.789 228.724 106.721 228.968 105.387 229.199C102.724 229.652 98.9718 230.068 94.8341 229.724C92.7924 229.525 90.7524 229.3 89.158 228.302C88.3761 227.806 87.7568 227.134 87.3916 226.385C87.0087 225.638 86.9748 224.808 87.0883 224.136C87.3061 222.775 87.7271 221.75 88.0355 221.057C88.3549 220.366 88.615 220.027 88.637 220.042C88.6658 220.06 88.4608 220.422 88.1939 221.123C87.9389 221.823 87.567 222.86 87.3976 224.175C87.3112 224.83 87.3603 225.545 87.7195 226.221C88.0635 226.894 88.6438 227.507 89.374 227.956C90.8541 228.866 92.8492 229.09 94.8723 229.284C98.9557 229.624 102.68 229.262 105.338 228.89C106.67 228.699 107.743 228.504 108.484 228.366C109.224 228.225 109.636 228.151 109.644 228.183Z" fill="#455A64"/>
<path d="M107.485 76.3363C103.435 67.5629 93.4141 69.2911 88.6182 71.62C83.8223 73.9498 80.1972 77.6156 78.0208 82.8427C76.6102 86.2314 75.4919 90.0962 72.6513 92.143C71.4077 93.0394 69.9429 93.4892 68.6205 94.2407C67.298 94.9913 66.0391 96.1951 65.8061 97.8056C65.3834 100.724 68.3138 102.747 70.7892 103.926C69.3185 104.926 68.9356 107.191 69.4515 109C69.9683 110.81 71.1739 112.268 72.3498 113.659C75.963 117.932 82.4261 123.185 87.0509 126.06C91.6757 128.935 94.6688 129.279 99.64 127.209C101.659 126.368 103.54 124.992 105.688 124.746C108.185 124.461 110.581 125.747 113.047 126.259C115.513 126.772 118.641 126.066 119.445 123.463C119.754 122.463 119.648 121.372 119.782 120.325C119.917 119.28 120.428 118.146 121.368 117.908C122.134 117.714 122.891 118.176 123.643 118.426C125.429 119.019 128.121 132.288 129.835 131.48C129.835 131.48 132.325 108.992 127.527 95.841C125.996 91.6466 122.728 82.6902 120.112 79.2074C116.523 74.4259 107.914 75.4874 107.485 76.3363Z" fill="#263238"/>
<path d="M102.347 77.7937C95.9716 75.5673 87.3651 80.4598 85.4115 86.9229C83.241 94.1045 80.8748 102.957 80.4614 108.598C79.6312 119.942 87.6862 123.301 87.6862 123.301L84.405 141.032L112.054 132.095L121.703 90.3168L122.601 86.8035L102.347 77.7937Z" fill="#FFBE9D"/>
<path d="M87.6671 123.332C87.6671 123.332 95.2917 125.599 103.609 122.928C103.609 122.928 98.2391 129.758 87.1562 126.1L87.6671 123.332Z" fill="#EB996E"/>
<path d="M124.152 86.7782C123.775 85.8912 122.879 85.3584 122.034 84.8941C116.535 81.8781 110.836 79.2273 104.987 76.9653L102.579 78.3268C101.867 82.9854 104.305 87.9643 108.423 90.2576C110.067 91.1734 112.203 92.0333 112.415 93.9039C112.635 95.8414 110.604 97.1647 109.454 98.7396C108.041 100.674 107.962 103.485 109.265 105.495C110.004 106.637 111.121 107.506 111.799 108.686C112.697 110.249 112.706 112.237 112.024 113.906C111.341 115.575 110.192 117.829 108.657 118.775C112.77 119.855 117.593 117.767 119.747 114.099C121.03 111.914 121.131 109.262 121.302 106.734C121.691 100.974 122.609 95.2509 124.04 89.6578C124.282 88.7098 124.534 87.6796 124.152 86.7782Z" fill="#263238"/>
<path d="M105.369 77.2276C103.786 79.1016 102.167 81.0069 100.085 82.3031C98.0027 83.5992 95.3417 84.2084 93.0654 83.2943C93.6355 82.6648 94.2057 82.0353 94.7758 81.4067C90.7356 84.1728 86.1125 86.084 81.2988 86.9795C84.3326 83.2934 87.4604 79.5268 91.5989 77.148C95.7382 74.7691 101.171 74.0371 105.216 76.5719" fill="#263238"/>
<path d="M124.713 98.6543L111.8 108.686C113.28 110.298 112.702 114.417 111.25 116.055C109.799 117.694 107.863 119.087 107.291 121.2C106.665 123.516 107.893 125.913 107.929 128.311C107.979 131.705 105.695 134.61 103.935 137.513C102.174 140.415 100.906 144.286 102.868 147.056C105.077 150.174 110.087 149.728 113.112 147.394C116.137 145.06 117.864 141.473 120.113 138.384C122.361 135.294 125.865 132.937 129.666 133.323C130.902 121.768 129.096 109.417 124.713 98.6543Z" fill="#263238"/>
<path d="M126.872 126.615C126.791 126.474 127.555 125.918 128.862 124.876C130.151 123.825 132.03 122.278 133.738 119.923C134.59 118.749 135.363 117.367 135.92 115.784C136.474 114.208 136.801 112.429 136.684 110.595C136.58 108.766 135.959 106.906 134.906 105.188C133.839 103.475 132.351 101.915 130.618 100.564C127.139 97.8632 123.027 96.3128 119.364 94.715C115.676 93.1571 112.326 91.4788 109.888 89.5133C107.416 87.5962 105.857 85.5121 105.069 83.9609C104.282 82.3945 104.151 81.4244 104.274 81.3838C104.436 81.3219 104.841 82.1733 105.8 83.511C106.765 84.8403 108.376 86.6109 110.812 88.257C113.218 89.9479 116.427 91.3873 120.14 92.8377C121.992 93.5764 123.965 94.3372 125.98 95.2759C127.986 96.212 130.066 97.3277 131.971 98.8239C133.874 100.307 135.54 102.063 136.751 104.065C137.948 106.069 138.652 108.326 138.712 110.498C138.787 112.667 138.33 114.689 137.629 116.433C136.926 118.179 135.975 119.67 134.969 120.879C132.944 123.31 130.82 124.723 129.343 125.586C127.848 126.437 126.941 126.739 126.872 126.615Z" fill="#263238"/>
<path d="M127.113 96.1644C127.101 96.1924 126.702 96.0619 125.99 95.7984C125.278 95.535 124.252 95.1393 122.999 94.6132C120.511 93.5526 117.03 91.9937 113.77 89.3607C110.509 86.72 108.432 83.3737 107.64 80.7525C107.23 79.4436 107.07 78.338 107.042 77.5747C107.007 77.1943 107.037 76.8961 107.037 76.6962C107.046 76.4954 107.057 76.3912 107.072 76.3912C107.178 76.3793 107.049 78.1033 107.936 80.6533C108.786 83.194 110.853 86.4286 114.049 89.0193C117.25 91.6057 120.674 93.1976 123.124 94.3277C124.302 94.8547 125.286 95.2952 126.055 95.64C126.747 95.9509 127.125 96.1356 127.113 96.1644Z" fill="#455A64"/>
<path d="M127.52 109.025C127.472 109.006 127.728 108.515 127.865 107.561C128.001 106.614 127.911 105.172 127.182 103.606C126.467 102.04 125.153 100.397 123.266 99.0974C121.41 97.7537 119.104 96.6812 116.8 95.3079C114.495 93.9228 112.526 92.2225 111.029 90.4383C109.505 88.6719 108.433 86.8479 107.669 85.2679C106.922 83.6744 106.487 82.3138 106.256 81.3607C106.122 80.8889 106.067 80.5102 106.016 80.2577C105.97 80.0036 105.953 79.8689 105.968 79.8663C106.006 79.8578 106.133 80.3848 106.421 81.3141C106.7 82.2452 107.177 83.5761 107.949 85.1307C108.739 86.6726 109.823 88.4508 111.338 90.1723C112.828 91.9132 114.761 93.5669 117.028 94.9292C119.3 96.2856 121.621 97.3776 123.504 98.767C125.42 100.111 126.772 101.847 127.467 103.477C128.185 105.113 128.229 106.62 128.035 107.586C127.943 108.072 127.818 108.44 127.705 108.673C127.597 108.911 127.533 109.031 127.52 109.025Z" fill="#455A64"/>
<path d="M56.1302 100.408C56.1243 100.404 56.1505 100.357 56.2082 100.269C56.2683 100.184 56.3471 100.047 56.486 99.8955C56.7453 99.582 57.1977 99.1424 57.9271 98.8306C58.6574 98.518 59.6248 98.4053 60.7194 98.3485C61.8106 98.2833 63.0686 98.202 64.4487 98.2011C65.8245 98.1766 67.3418 98.163 68.8972 97.7903C70.4518 97.4226 71.9886 96.594 73.3628 95.4368C74.7301 94.2643 75.9382 92.7783 77.0022 91.1204C78.0688 89.4616 78.966 87.6156 79.9123 85.7315C80.8561 83.8473 81.8126 82.0064 82.9571 80.3561C84.0881 78.7032 85.4461 77.2664 86.9592 76.1956C89.9946 74.0327 93.3859 73.2719 96.1494 73.1923C98.946 73.1118 101.165 73.7396 102.593 74.3284C102.941 74.4834 103.256 74.6223 103.536 74.7469C103.786 74.8875 104.004 75.0104 104.194 75.1171C104.548 75.3213 104.728 75.4348 104.72 75.4475C104.713 75.4602 104.517 75.373 104.152 75.195C103.958 75.1002 103.735 74.99 103.479 74.8655C103.197 74.7537 102.881 74.6274 102.53 74.4885C101.1 73.9548 98.9045 73.3855 96.1596 73.5041C93.4478 73.621 90.137 74.4021 87.1955 76.5268C85.7308 77.5782 84.4202 78.9743 83.3121 80.6026C82.1938 82.225 81.2492 84.0481 80.3063 85.9297C79.3625 87.8096 78.4552 89.6709 77.3657 91.3542C76.2796 93.0342 75.0402 94.5489 73.6245 95.7477C72.203 96.9312 70.5984 97.7809 68.982 98.1469C67.3664 98.5163 65.8288 98.5078 64.4504 98.5137C63.0678 98.4951 61.8309 98.5536 60.7304 98.5959C59.6375 98.629 58.6989 98.7154 57.9906 98.9907C57.2832 99.2652 56.8274 99.6668 56.5513 99.9557C56.2725 100.245 56.148 100.422 56.1302 100.408Z" fill="#455A64"/>
<path d="M91.8268 114.562C94.8363 114.562 97.859 112.616 98.0132 112.517L97.5094 111.742C97.4643 111.772 93.2817 114.457 90.2365 113.387C88.9714 112.945 88.0559 111.889 87.5164 110.251L86.6404 110.541C87.2777 112.466 88.3849 113.718 89.9338 114.259C90.5448 114.475 91.1858 114.562 91.8268 114.562Z" fill="#433E3F"/>
<path d="M100.375 99.1265C100.236 99.9912 100.678 100.781 101.362 100.892C102.048 101.003 102.718 100.392 102.857 99.5288C102.996 98.6641 102.554 97.8746 101.87 97.7637C101.186 97.6509 100.516 98.2618 100.375 99.1265Z" fill="#433E3F"/>
<path d="M88.3715 97.1807C88.2305 98.0454 88.6741 98.8349 89.3584 98.9458C90.0445 99.0567 90.7118 98.4458 90.8528 97.583C90.9919 96.7183 90.5502 95.9288 89.8659 95.8179C89.1798 95.7051 88.5106 96.316 88.3715 97.1807Z" fill="#433E3F"/>
<path d="M95.2965 107.775L95.6987 106.946L92.0407 105.162L95.4694 98.4741L94.6461 98.0549L90.7906 105.576L95.2965 107.775Z" fill="#433E3F"/>
<path d="M99.587 94.0381C99.4047 94.5813 100.751 95.525 102.597 96.1472C104.441 96.7694 106.085 96.8333 106.268 96.29C106.452 95.7468 105.104 94.8031 103.26 94.1809C101.414 93.5606 99.7694 93.4967 99.587 94.0381Z" fill="#934F44"/>
<path d="M93.4067 93.038C93.4086 93.6113 91.8333 94.0813 89.8859 94.0888C87.9384 94.0963 86.3594 93.6376 86.3575 93.0643C86.3556 92.491 87.9309 92.021 89.8784 92.0135C91.824 92.006 93.4049 92.4647 93.4067 93.038Z" fill="#934F44"/>
<path d="M50.9432 89.0061C45.8491 76.1713 39.1174 63.5898 38.1525 54.0183L28.0244 54.4317C28.2421 58.1297 29.5654 88.9468 36.7445 101.129C43.9235 113.312 67.8759 141.798 67.8759 141.798L76.3053 120.115C76.3053 120.115 56.0373 101.841 50.9432 89.0061Z" fill="#FFBE9D"/>
<path d="M34.0711 34.0957H29.6387C29.6387 34.0957 30.069 36.7042 32.0794 36.8482C34.0898 36.9922 33.6941 36.539 33.6941 36.539L33.2443 36.9465L30.4808 37.4946C30.4808 37.4946 30.6239 39.649 32.4437 39.9836L35.1242 37.4946L34.0711 34.0957Z" fill="#FFBE9D"/>
<path d="M46.2007 33.7093C45.7949 37.0396 45.7491 36.8396 45.7491 36.8396L41.6996 40.1801L40.6703 35.2622C40.5305 34.5946 39.962 34.1024 39.2809 34.06L37.4382 33.9457C37.4382 33.9457 38.155 31.3897 35.8438 31.6134C35.8438 31.6134 34.5722 31.266 33.548 35.524C32.4306 40.1674 27.6042 51.0969 28.0261 54.7541L38.2956 55.1633C38.188 51.7543 40.9862 48.1588 42.3629 46.6026C42.778 46.1332 43.0813 45.5758 43.2203 44.965C43.3609 44.3482 43.6744 43.4883 44.3716 42.7131C45.6373 41.3068 48.3101 38.7746 48.3101 38.7746V31.0364C48.3101 31.0347 46.5929 30.4858 46.2007 33.7093ZM37.9491 41.1806L35.843 42.1379L36.198 39.9835L37.9499 39.8115V41.1806H37.9491Z" fill="#FFBE9D"/>
<path d="M35.7488 42.3627C35.7192 42.3568 35.7573 42.0332 35.8513 41.4545C35.9454 40.8751 36.0961 40.0406 36.2918 39.0104C36.5002 37.9464 36.7392 36.729 37.0001 35.3972C37.1221 34.7177 37.3271 34.0002 37.3483 33.2945C37.3669 32.6066 37.0933 31.8136 36.3545 31.7721C35.6641 31.6484 35.0736 32.2313 34.7237 32.8345C34.5305 33.1335 34.4399 33.4665 34.3162 33.8163C34.2035 34.1586 34.0926 34.4941 33.985 34.8228C33.5792 36.1181 33.2081 37.3008 32.8836 38.3361C32.5549 39.334 32.2491 40.1304 32.0161 40.67C31.784 41.2105 31.6264 41.4969 31.601 41.4859C31.5705 41.4732 31.6738 41.1656 31.8551 40.609C32.0381 40.0533 32.2965 39.2485 32.5854 38.2437C32.8836 37.2008 33.2242 36.008 33.597 34.7025C33.7012 34.3695 33.8079 34.0298 33.9172 33.6825C34.0307 33.3478 34.1375 32.9581 34.3518 32.6159C34.5509 32.2736 34.805 31.9441 35.1465 31.6789C35.4828 31.412 35.964 31.2595 36.4206 31.3358C36.6511 31.3731 36.851 31.4324 37.0679 31.5645C37.2712 31.6992 37.4194 31.8873 37.5228 32.0822C37.7295 32.4727 37.7914 32.9048 37.7812 33.3029C37.7473 34.1095 37.5296 34.8008 37.3991 35.4811C37.1043 36.806 36.834 38.0167 36.5985 39.0748C36.3638 40.0965 36.1673 40.9217 36.0207 41.4901C35.8733 42.0577 35.7785 42.3695 35.7488 42.3627Z" fill="#EB996E"/>
<path d="M37.8464 41.205C37.7218 41.1856 37.815 40.0715 37.7244 38.7126C37.7032 38.3721 37.6736 38.0493 37.6431 37.7553C37.6168 37.4495 37.5795 37.2462 37.4507 37.1411C37.1644 36.9268 36.8145 36.9251 36.8348 36.8488C36.8365 36.8192 36.906 36.7895 37.0399 36.7743C37.1703 36.7658 37.3787 36.7438 37.632 36.887C37.9082 37.0403 38.0048 37.4181 38.0455 37.6969C38.1005 37.9976 38.1429 38.3323 38.1649 38.6847C38.2581 40.1029 37.9607 41.2288 37.8464 41.205Z" fill="#EB996E"/>
<path d="M42.8747 39.3109C42.912 39.3575 42.5985 39.6871 42.0428 40.1674C41.4845 40.6402 40.6746 41.2815 39.6317 41.7601C38.5829 42.2456 37.5383 42.3735 36.8114 42.4286C36.0769 42.4777 35.6237 42.4565 35.6178 42.3981C35.611 42.3354 36.0583 42.2456 36.7725 42.1193C37.4841 41.9863 38.4677 41.8152 39.4496 41.3586C40.4357 40.907 41.2524 40.3258 41.8539 39.92C42.452 39.5066 42.8366 39.2618 42.8747 39.3109Z" fill="#EB996E"/>
<path d="M123.392 135.534C123.392 135.534 134.789 135.194 141.623 133.169C148.457 131.144 174.695 124.895 174.695 124.895L216.74 117.878L217.57 128.761C217.57 128.761 178.492 140.188 170.898 142.793C163.304 145.397 128.603 157.294 122.06 155.787L117.996 147.423L123.392 135.534Z" fill="#FFBE9D"/>
<path d="M236.947 105.091C236.263 104.939 232.852 106.488 232.852 106.488C234.007 105.044 232.924 103.678 232.924 103.678L228.246 105.973C228.246 105.973 225.88 108.363 224.339 109.517C222.799 110.672 218.469 115.676 218.373 115.965L215.582 118.564L217.315 128.861C217.315 128.861 219.528 129.053 220.972 128.38C222.415 127.706 224.532 125.011 224.532 125.011L228.525 124.672C228.988 124.633 229.442 124.474 229.794 124.173C230.999 123.142 230.787 121.451 230.787 121.451C233.29 120.007 231.846 118.179 231.846 118.179C231.846 118.179 233.292 118.004 233.896 117.048C234.386 116.274 234.252 115.676 233.771 114.811C233.29 113.945 229.633 114.233 229.633 114.233L229.44 113.174C229.44 113.174 235.029 108.732 236.28 107.769C237.532 106.808 237.592 105.234 236.947 105.091Z" fill="#FFBE9D"/>
<path d="M232.925 106.386C232.98 106.41 232.459 107.342 231.206 108.437C230.602 108.999 229.836 109.617 229.159 110.433C228.469 111.24 228.024 112.328 227.665 113.523C227.312 114.717 226.946 115.896 226.405 116.866C225.885 117.845 225.271 118.639 224.707 119.252C224.138 119.863 223.614 120.291 223.239 120.563C222.863 120.836 222.632 120.953 222.618 120.932C222.569 120.87 223.417 120.285 224.473 119.045C224.993 118.421 225.562 117.633 226.045 116.677C226.547 115.728 226.884 114.604 227.243 113.392C227.602 112.189 228.091 111.016 228.846 110.172C229.581 109.324 230.375 108.73 231 108.202C232.289 107.182 232.871 106.352 232.925 106.386Z" fill="#EB996E"/>
<path d="M230.867 121.404C230.888 121.449 230.211 121.864 228.996 122.285C228.388 122.488 227.637 122.68 226.779 122.742C226.35 122.774 225.899 122.771 225.43 122.725C224.961 122.674 224.447 122.557 224.004 122.236C223.567 121.917 223.256 121.401 223.288 120.845C223.368 120.253 223.728 119.92 224.038 119.612C224.349 119.319 224.762 119.07 225.14 118.992C225.507 118.892 225.846 118.816 226.159 118.751C227.404 118.489 228.204 118.442 228.209 118.518C228.212 118.565 227.451 118.717 226.232 119.054C225.928 119.138 225.594 119.231 225.246 119.342C224.892 119.436 224.613 119.628 224.315 119.908C224.043 120.173 223.746 120.537 223.72 120.869C223.699 121.237 223.925 121.634 224.264 121.88C224.975 122.374 225.957 122.348 226.755 122.336C227.573 122.299 228.302 122.146 228.907 121.986C230.114 121.651 230.839 121.338 230.867 121.404Z" fill="#EB996E"/>
<path d="M231.949 118.162C231.965 118.215 231.431 118.443 230.509 118.598C230.048 118.673 229.494 118.726 228.871 118.715C228.269 118.693 227.462 118.615 226.919 117.965C226.397 117.29 226.532 116.428 226.836 115.865C227.155 115.267 227.666 114.931 228.083 114.716C228.946 114.309 229.523 114.256 229.536 114.298C229.562 114.369 229.003 114.54 228.236 114.989C227.865 115.221 227.436 115.552 227.199 116.05C226.957 116.536 226.891 117.224 227.264 117.689C227.64 118.16 228.316 118.273 228.888 118.31C229.479 118.341 230.021 118.323 230.472 118.288C231.375 118.216 231.933 118.098 231.949 118.162Z" fill="#EB996E"/>
<path d="M229.209 124.517C229.217 124.578 228.767 124.701 228.034 124.882C227.305 125.052 226.259 125.308 225.067 125.238C224.786 125.238 224.369 125.143 224.159 124.85C223.948 124.578 223.885 124.261 223.9 123.972C223.939 123.394 224.267 122.951 224.613 122.722C225.354 122.271 225.9 122.546 225.864 122.579C225.869 122.653 225.347 122.542 224.799 122.973C224.542 123.183 224.314 123.558 224.307 123.988C224.302 124.194 224.365 124.422 224.495 124.577C224.622 124.736 224.807 124.784 225.093 124.797C226.209 124.864 227.228 124.668 227.977 124.575C228.726 124.473 229.201 124.457 229.209 124.517Z" fill="#EB996E"/>
<path d="M104.026 171.65C104.038 171.674 103.762 171.849 103.233 172.11C102.704 172.372 101.912 172.701 100.898 173.002C98.8835 173.613 95.8963 174.013 92.699 173.404C89.4975 172.801 86.8713 171.313 85.2337 169.99C84.4077 169.328 83.7994 168.723 83.4122 168.278C83.0225 167.835 82.8361 167.567 82.8565 167.55C82.9175 167.492 83.7503 168.504 85.4234 169.743C87.0814 170.98 89.6627 172.384 92.7812 172.971C95.8963 173.564 98.8132 173.226 100.815 172.701C102.834 172.183 103.992 171.574 104.026 171.65Z" fill="#FF725E"/>
<path d="M84.7914 140.322C84.7914 140.322 111.596 131.748 112.598 131.482C113.598 131.215 137.237 133.321 137.237 133.321C137.237 133.321 136.219 148.985 142.202 154.052L124.813 160.325L119.326 175.416C119.326 175.416 116.267 181.568 118.697 187.337C123.298 198.258 131.284 215.488 130.103 217.46C129.979 217.667 129.295 211.49 117.914 208.272C114.478 207.301 108.227 207.288 102.581 208.426C78.2639 213.325 68.8813 224.556 66.1111 226.48C66.1111 226.48 71.1154 187.198 68.75 181.066C66.3847 174.932 63.8804 170.932 65.8281 165.466C67.7758 159.999 70.7053 151.287 70.7053 151.287L61.1279 140.419L74.5151 118.161L86.7594 128.314L84.7914 140.322Z" fill="#FF725E"/>
<path d="M93.6973 176.719C93.6973 176.746 93.3695 176.773 92.7756 176.758C92.1817 176.743 91.3218 176.662 90.2798 176.438C88.2093 176.006 85.3636 174.867 82.9754 172.605C80.5719 170.351 79.3232 167.529 78.8521 165.466C78.6115 164.427 78.5226 163.565 78.5133 162.971C78.4989 162.377 78.5319 162.05 78.5582 162.05C78.6463 162.044 78.6048 163.369 79.1546 165.388C79.6934 167.389 80.9489 170.1 83.2787 172.284C85.594 174.478 88.3372 175.633 90.3518 176.135C92.3825 176.65 93.7032 176.634 93.6973 176.719Z" fill="#263238"/>
<path d="M68.535 143.508C68.6078 143.431 69.9964 145.33 70.4005 148.127C70.8317 150.923 70.0455 153.142 69.954 153.089C69.8142 153.065 70.3827 150.877 69.9642 148.193C69.5796 145.503 68.4079 143.571 68.535 143.508Z" fill="#263238"/>
<path d="M125.421 148.151C125.462 148.215 124.868 148.604 124.056 149.386C123.247 150.166 122.255 151.391 121.559 152.958C120.862 154.526 120.62 156.083 120.606 157.206C120.585 158.332 120.719 159.03 120.643 159.045C120.6 159.057 120.354 158.373 120.294 157.21C120.227 156.052 120.429 154.413 121.155 152.779C121.881 151.146 122.959 149.899 123.847 149.156C124.739 148.409 125.4 148.111 125.421 148.151Z" fill="#263238"/>
<g opacity="0.3">
<path d="M89.7204 176.137C86.7892 175.487 85.1084 174.41 83.015 172.339C81.8823 171.218 80.8733 169.958 80.1074 168.318C79.4975 170.978 83.1954 175.695 86.8053 177.427C90.4151 179.16 94.9264 179.038 98.4286 177.113C95.4203 177.043 92.6517 176.787 89.7204 176.137Z" fill="black"/>
</g>
<path d="M122.551 195.603C122.521 195.65 121.844 195.124 120.456 194.493C119.072 193.872 116.922 193.225 114.196 193.189C111.48 193.137 108.222 193.682 104.903 195.075C101.568 196.45 98.1975 198.582 94.7316 200.91C87.8406 205.676 81.0573 209.17 76.0047 211.3C73.4818 212.38 71.3977 213.15 69.949 213.652C69.2264 213.907 68.6579 214.086 68.2724 214.206C67.887 214.326 67.6819 214.382 67.6769 214.367C67.6718 214.353 67.8675 214.269 68.2428 214.122C68.6596 213.962 69.2069 213.752 69.8897 213.49C71.3189 212.939 73.3801 212.127 75.8801 211.013C80.8912 208.813 87.6085 205.299 94.4868 200.541C97.9543 198.213 101.361 196.071 104.748 194.698C108.126 193.305 111.446 192.782 114.203 192.876C116.974 192.953 119.15 193.66 120.529 194.337C121.913 195.025 122.551 195.603 122.551 195.603Z" fill="white"/>
<path d="M117.698 181.556C117.661 181.596 117.197 181.009 116.089 180.302C114.999 179.589 113.198 178.835 110.861 178.655C108.527 178.448 105.725 178.978 102.847 180.133C99.9603 181.283 96.9554 182.961 93.7734 184.654C90.5964 186.362 87.5237 187.938 84.5967 189.08C81.6731 190.227 78.9104 190.925 76.5527 191.231C74.195 191.552 72.2558 191.467 70.9401 191.323C70.2818 191.237 69.7727 191.16 69.433 191.079C69.0915 191.006 68.9145 190.96 68.917 190.945C68.9246 190.902 69.6439 191.045 70.9562 191.152C72.2668 191.243 74.1831 191.278 76.5095 190.922C78.835 190.58 81.5578 189.859 84.4467 188.701C87.3399 187.548 90.3889 185.972 93.5641 184.264C96.7453 182.572 99.7629 180.9 102.698 179.753C105.621 178.603 108.499 178.09 110.886 178.344C113.275 178.567 115.101 179.387 116.184 180.158C117.284 180.925 117.698 181.556 117.698 181.556Z" fill="white"/>
<path d="M81.9121 170.883C81.9291 170.908 81.7367 171.063 81.3716 171.324C81.1912 171.459 80.9633 171.612 80.6811 171.764C80.4024 171.92 80.0915 172.113 79.7204 172.269C78.9969 172.626 78.0871 172.945 77.0544 173.212C76.0157 173.454 74.8491 173.625 73.6156 173.652C72.3821 173.662 71.2105 173.525 70.1651 173.313C69.1239 173.076 68.2055 172.782 67.4719 172.449C67.0957 172.304 66.7797 172.119 66.4959 171.972C66.2104 171.829 65.9774 171.683 65.7928 171.554C65.4192 171.304 65.2226 171.154 65.2387 171.129C65.2819 171.058 66.1155 171.596 67.5888 172.16C68.3216 172.45 69.2272 172.705 70.2455 172.915C71.2689 173.099 72.4084 173.22 73.6089 173.211C74.8085 173.186 75.9445 173.031 76.9612 172.817C77.9727 172.578 78.8699 172.297 79.5942 171.984C81.0505 171.376 81.8664 170.814 81.9121 170.883Z" fill="white"/>
<path d="M121.743 168.753C121.752 168.765 121.638 168.864 121.411 169.041C121.186 169.221 120.83 169.457 120.348 169.717C119.389 170.239 117.867 170.805 115.907 170.992C113.955 171.187 111.588 171.001 109.083 170.362C106.568 169.756 103.912 168.762 101.071 167.961C95.3767 166.341 89.9209 166.438 86.1068 166.994C84.1922 167.274 82.6622 167.631 81.6168 167.917C80.5697 168.197 79.9953 168.376 79.9826 168.341C79.9775 168.326 80.1156 168.266 80.3833 168.164C80.6527 168.066 81.0449 167.906 81.5676 167.752C82.6029 167.413 84.1329 167.007 86.0586 166.685C89.8912 166.045 95.4225 165.895 101.188 167.536C104.056 168.345 106.699 169.347 109.18 169.967C111.651 170.62 113.958 170.831 115.879 170.68C117.802 170.537 119.302 170.029 120.269 169.562C121.241 169.093 121.716 168.715 121.743 168.753Z" fill="white"/>
<path d="M121.038 156.042C121.039 156.057 120.854 156.085 120.498 156.125C120.142 156.163 119.615 156.223 118.936 156.274C117.577 156.286 115.588 156.293 113.184 155.864C110.775 155.476 107.961 154.757 104.863 153.918C101.765 153.093 98.3503 152.167 94.6845 151.805C93.767 151.771 92.8597 151.658 91.9659 151.716C91.5194 151.732 91.0747 151.728 90.6367 151.759C90.2004 151.811 89.7674 151.862 89.3379 151.913C87.6215 152.128 86.0102 152.609 84.5014 153.128C81.4888 154.195 78.8557 155.421 76.5438 156.201C74.2394 157.004 72.2748 157.362 70.9134 157.44C70.2314 157.495 69.7019 157.475 69.3436 157.449C68.9852 157.429 68.798 157.412 68.7988 157.397C68.7997 157.382 68.9886 157.369 69.3453 157.36C69.7019 157.357 70.2272 157.35 70.899 157.269C72.2426 157.139 74.1674 156.741 76.4404 155.907C78.721 155.095 81.3304 153.845 84.3667 152.745C85.8857 152.21 87.5241 151.713 89.2778 151.485C89.7166 151.432 90.158 151.378 90.6045 151.324C91.0518 151.291 91.505 151.293 91.96 151.276C92.8724 151.217 93.7916 151.33 94.7252 151.364C98.446 151.733 101.878 152.679 104.972 153.524C108.065 154.386 110.855 155.13 113.239 155.554C115.619 156.02 117.583 156.06 118.934 156.1C119.574 156.074 120.09 156.052 120.492 156.035C120.847 156.025 121.036 156.026 121.038 156.042Z" fill="white"/>
<path d="M129.489 133.311C129.567 133.355 128.698 134.587 127.886 136.836C127.07 139.06 126.433 142.401 127.061 145.99C127.687 149.581 129.398 152.516 130.898 154.352C132.401 156.212 133.615 157.103 133.557 157.17C133.54 157.191 133.227 156.986 132.7 156.561C132.174 156.136 131.45 155.47 130.658 154.551C129.071 152.738 127.27 149.754 126.627 146.066C125.981 142.379 126.689 138.959 127.594 136.726C128.043 135.598 128.511 134.732 128.873 134.161C129.235 133.589 129.467 133.296 129.489 133.311Z" fill="white"/>
<path d="M84.775 135.972C84.7784 136.002 84.5115 136.064 84.0227 136.143C83.5339 136.22 82.8239 136.318 81.9361 136.366C81.0499 136.409 79.9732 136.405 78.8075 136.125C77.64 135.865 76.4235 135.197 75.4585 134.218C74.4784 133.253 73.7337 132.199 72.9763 131.329C72.2282 130.458 71.437 129.782 70.6957 129.344C69.1911 128.443 68.0237 128.656 68.0372 128.569C68.0338 128.548 68.3041 128.467 68.809 128.478C69.3097 128.496 70.0501 128.641 70.8473 129.072C71.6462 129.496 72.4934 130.178 73.2813 131.061C74.07 131.935 74.8249 132.977 75.7661 133.902C76.6954 134.841 77.801 135.458 78.9074 135.731C80.0088 136.018 81.055 136.057 81.9268 136.055C83.6771 136.022 84.7682 135.898 84.775 135.972Z" fill="white"/>
</g>
</svg>
