<svg width="44" height="44" viewBox="0 0 44 44" fill="none" xmlns="http://www.w3.org/2000/svg">
<rect width="44" height="44" fill="white"/>
<path opacity="0.4" d="M22 40.3334C32.1252 40.3334 40.3333 32.1253 40.3333 22.0001C40.3333 11.8749 32.1252 3.66675 22 3.66675C11.8747 3.66675 3.66663 11.8749 3.66663 22.0001C3.66663 32.1253 11.8747 40.3334 22 40.3334Z" fill="#B1CCFA"/>
<path d="M29.4227 28.4604C28.5153 29.3679 27.2448 29.9383 25.8707 29.9383C24.5224 29.9382 23.252 29.4197 22.3057 28.4734C21.3594 27.527 20.8278 26.2437 20.8408 24.9084L20.8408 21.2527C20.8408 20.5008 21.463 19.8785 22.2149 19.8785C22.9668 19.8785 23.5891 20.5008 23.5891 21.2527L23.5891 24.9084C23.5891 25.5307 23.8224 26.1011 24.2502 26.5289C24.678 26.9566 25.2614 27.2029 25.8707 27.19C27.1411 27.19 28.1652 26.1658 28.1652 24.8954L28.1652 19.1396C28.1652 15.8468 25.4947 13.1763 22.202 13.1763C18.9092 13.1763 16.2387 15.8468 16.2387 19.1396L16.2387 25.414C16.2387 26.7363 16.7443 27.9678 17.6647 28.8882C18.5851 29.8087 19.8296 30.3272 21.1389 30.3142C21.8908 30.3142 22.513 30.9365 22.513 31.6884C22.513 32.4403 21.8908 33.0625 21.1389 33.0625C19.0907 33.0625 17.1721 32.2588 15.7202 30.8068C14.2682 29.3549 13.4645 27.4363 13.4645 25.3881L13.4645 19.1136C13.4645 14.3171 17.3795 10.4021 22.176 10.4021C26.9726 10.4021 30.8876 14.3171 30.8876 19.1137L30.8876 24.8695C30.9006 26.2825 30.3431 27.54 29.4227 28.4604Z" fill="#0D0B33"/>
</svg>
