<svg width="293" height="183" viewBox="0 0 293 183" fill="none" xmlns="http://www.w3.org/2000/svg">
<mask id="mask0_1_1850" style="mask-type:alpha" maskUnits="userSpaceOnUse" x="0" y="-183" width="311" height="366">
<rect y="-183" width="311" height="366" fill="#1A1A1A"/>
</mask>
<g mask="url(#mask0_1_1850)">
<path d="M137.529 138.42C144.074 146.657 138.528 150.194 144.465 159.899C158.905 183.51 170.48 211.109 174.003 240.971C176.497 262.115 175.345 300.592 170.105 313.668C166.931 321.586 160.823 330.222 148.47 330.652C127.72 331.374 117.953 329.882 120.858 313.517C123.198 300.324 130.195 263.978 128.627 248.707C127.984 242.435 127.848 234.913 125.763 228.369C118.704 206.216 104.071 183.761 87.5752 159.959L137.529 138.42Z" fill="#E7B119"/>
<path d="M104.744 146.136C110.695 180.289 113.264 222.384 98.2849 256.152C89.2975 276.414 54.0186 317.234 52.7737 318.205C46.153 323.362 31.333 314.78 25.2909 308.956C25.2613 308.928 25.2328 308.901 25.2032 308.872C10.6976 294.842 16.0108 286.796 26.0244 276.859C34.1018 268.843 43.2601 258.581 51.4958 244.988C56.7919 236.248 61.4229 227.397 62.973 216.74C65.8021 197.289 62.2532 174.571 58.9286 153.332L104.744 146.136Z" fill="#E7B119"/>
<path d="M25.5003 292.94L24.9309 292.697C26.0197 290.158 28.5721 288.259 30.6245 286.734L30.76 286.633C33.9719 284.243 36.7167 281.102 39.3716 278.066C40.4673 276.813 41.5994 275.519 42.7361 274.308C45.1484 271.745 47.1723 268.77 49.1267 265.893C51.203 262.84 53.3488 259.683 55.9911 256.958C59.9535 252.87 63.6973 249.008 67.0606 244.033C69.4718 240.466 68.646 239.027 67.1517 236.417C66.8111 235.822 66.4251 235.15 66.0435 234.389C65.2018 232.714 65.2815 230.592 66.2291 229.345C66.9193 228.436 68.0059 228.08 69.2713 228.321C70.1893 228.501 71.0321 229.173 71.8498 229.824C72.6767 230.482 73.4592 231.108 74.0128 230.929C74.408 230.806 74.7576 230.263 75.0481 229.313C75.425 228.085 75.1129 226.434 74.81 224.838C74.6448 223.955 74.4877 223.122 74.4535 222.389C74.3544 220.279 74.3909 218.117 74.4251 216.025C74.4433 214.935 74.4615 213.846 74.4615 212.764V212.423C74.4615 204.423 74.4614 196.15 74.7416 188.029C74.8783 184.068 74.6608 180.034 74.4535 176.134C74.2371 172.121 74.0139 167.971 74.1767 163.903L74.794 163.927C74.6346 167.966 74.8567 172.101 75.0708 176.1C75.2826 180.014 75.4991 184.062 75.3635 188.05C75.0833 196.161 75.0833 204.428 75.0833 212.421V212.763C75.0833 213.85 75.0628 214.941 75.0446 216.035C75.0104 218.116 74.974 220.269 75.0708 222.361C75.1027 223.05 75.2587 223.863 75.4193 224.723C75.736 226.394 76.0606 228.121 75.6414 229.495C75.2758 230.686 74.8157 231.329 74.195 231.522C73.3237 231.786 72.4193 231.071 71.4637 230.309C70.7075 229.705 69.9228 229.08 69.1562 228.929C68.113 228.73 67.2724 228.999 66.7235 229.719C65.9251 230.771 65.8727 232.659 66.5982 234.11C66.9729 234.856 67.3545 235.52 67.6893 236.108C69.2018 238.748 70.203 240.494 67.5743 244.38C64.1813 249.401 60.4183 253.281 56.4365 257.39C53.8317 260.077 51.7018 263.212 49.6404 266.242C47.6711 269.138 45.6347 272.133 43.1893 274.733C42.0572 275.935 40.9297 277.225 39.8386 278.474C37.1621 281.536 34.3944 284.702 31.1324 287.13L30.9958 287.231C29.0026 288.713 26.5254 290.557 25.5003 292.94Z" fill="#BC8B13"/>
<path d="M109.117 193.762C108.77 191.945 108.542 190.301 108.322 188.71C108.011 186.457 107.717 184.328 107.127 182.187L107.724 182.024C108.323 184.204 108.622 186.351 108.935 188.625C109.155 190.21 109.381 191.845 109.727 193.646L109.117 193.762Z" fill="#BC8B13"/>
<path d="M105.49 177.968L105.353 177.362L111.383 175.993L109.412 159.942L110.025 159.867L112.065 176.473L105.49 177.968Z" fill="#BC8B13"/>
<path d="M258.608 122.325C258.54 121.966 251.648 86.3295 240.185 79.4548C238.267 78.3033 236.302 78.0288 234.347 78.6393L234.162 78.0482C236.291 77.383 238.426 77.6757 240.504 78.924C252.205 85.9411 258.937 120.733 259.217 122.211L258.608 122.325Z" fill="#433E3F"/>
<path d="M216.277 122.591C216.237 122.271 212.167 90.505 201.544 82.808C199.569 81.3752 197.463 80.8672 195.285 81.2909L195.167 80.6839C197.516 80.2215 199.789 80.7716 201.908 82.3057C212.748 90.1611 216.726 121.199 216.891 122.515L216.277 122.591Z" fill="#433E3F"/>
<path d="M167.565 90.2556C167.565 90.2556 172.449 110.947 159.134 124.927C159.134 124.927 157.632 106.533 167.565 90.2556Z" fill="#33211E"/>
<path d="M227.964 73.0379C228.195 73.0117 238.766 70.8887 238.766 73.3067C238.766 80.4684 207.973 85.8568 207.973 85.8568C207.973 85.8568 220.725 73.8466 227.964 73.0379Z" fill="#E86464"/>
<path d="M205.904 85.4628C205.904 84.7179 231.229 75.9446 237.335 77.6211C240.347 78.448 241.601 83.0528 243.493 87.5038C245.659 92.5995 247.709 98.3306 245.697 101.694C241.925 107.996 211.733 111.458 211.733 111.458L205.904 85.4628Z" fill="#E86464"/>
<path d="M102.822 77.6246C109.543 87.1564 133.238 118.662 155.745 124.149C156.579 124.349 157.767 124.627 159.134 124.927C158.567 111.074 163.777 97.8876 167.565 90.2555C161.833 88.7111 143.259 71.5369 132.66 56.562L102.822 77.6246Z" fill="#C53A1E"/>
<path d="M147.73 121.18L140.345 90.2625L154.263 123.75L147.73 121.18Z" fill="#433E3F"/>
<path d="M205.904 85.4629L211.732 111.458C211.732 111.458 180.183 121.831 159.131 120.855C159.131 120.855 159.032 106.041 166.121 93.3034C166.121 93.3034 195.713 91.8046 205.904 85.4629Z" fill="#E86464"/>
<path d="M196.901 221.76L163.525 225.099L164.343 129.284L216.583 122.554L196.901 221.76Z" fill="#1A3047"/>
<path d="M260.766 213.532L196.901 221.76L169.284 128.647L233.15 120.419L260.766 213.532Z" fill="#2D4B74"/>
<path d="M186.462 126.448C186.238 125.146 181.076 94.4333 189.186 84.0324C190.779 81.9903 192.803 80.8616 195.202 80.6782L195.25 81.2955C193.033 81.4652 191.156 82.5131 189.673 84.4128C181.731 94.5984 187.016 126.025 187.071 126.342L186.462 126.448Z" fill="#433E3F"/>
<path d="M272.831 199.163L224.723 206.976L213.306 128.143L256.256 122.61L272.831 199.163Z" fill="#992511"/>
<path d="M292.583 197.408L240.075 204.172L217.369 127.619L269.877 120.854L292.583 197.408Z" fill="#C53A1E"/>
<path d="M227.786 126.339C227.313 124.933 216.318 91.8501 225.254 85.7078L225.605 86.218C217.051 92.0973 228.26 125.8 228.375 126.14L227.786 126.339Z" fill="#433E3F"/>
<path d="M137.53 149.735L69.6178 163.35L63.308 58.0633C63.308 58.0633 69.3341 54.2694 83.4765 52.2C87.3113 51.6316 91.735 51.2057 96.8068 51.0029C102.63 50.7797 109.427 51.4893 114.095 52.1191C117.483 52.5861 119.755 53.012 119.755 53.012L137.53 149.735Z" fill="white"/>
<path d="M114.094 52.1179C110.888 56.2568 106.038 60.9641 100.418 61.3707C92.8091 61.939 86.743 56.1965 83.4765 52.1987C87.3114 51.6304 91.7351 51.2044 96.8068 51.0017C102.63 50.7785 109.427 51.488 114.094 52.1179Z" fill="#E86464"/>
<path d="M109.719 51.053C109.719 51.053 126.114 185.483 129.154 185.668C147.201 186.76 160.909 179.329 160.393 177.665C149.966 144.007 137.531 69.8878 137.531 69.8878C137.531 69.8878 136.963 64.9402 135.141 60.4254C132.623 54.1783 126.15 51.0188 109.719 51.053Z" fill="#C53A1E"/>
<path d="M131.429 64.2546C132.64 72.8594 133.971 81.4436 135.321 90.0245L139.504 115.745L143.942 141.424C145.467 149.975 147.01 158.524 148.674 167.053C147.465 158.448 146.133 149.864 144.785 141.283L140.599 115.562L136.16 89.8844C134.635 81.3309 133.092 72.7831 131.429 64.2546Z" fill="#EA8978"/>
<path d="M120.285 65.6521C121.496 74.2569 122.827 82.8411 124.177 91.4219L128.36 117.143L132.797 142.822C134.323 151.373 135.866 159.922 137.53 168.45C136.32 159.845 134.989 151.261 133.64 142.68L129.455 116.959L125.016 91.2819C123.49 82.7295 121.948 74.1805 120.285 65.6521Z" fill="#EA8978"/>
<path d="M85.6196 51.053C85.6196 51.053 108.809 152.558 105.422 191.516C90.828 204.317 56.7257 209.747 56.7257 209.747L53.2883 77.693C53.2883 77.693 46.4136 53.0199 85.6196 51.053Z" fill="#C53A1E"/>
<path d="M77.7132 69.021C78.9239 77.6257 80.2553 86.21 81.605 94.7908L85.7884 120.512L90.2257 146.19C91.7508 154.742 93.2929 163.291 94.958 171.819C93.7484 163.214 92.417 154.63 91.0685 146.049L86.8829 120.328L82.4444 94.6507C80.9193 86.0984 79.3761 77.5494 77.7132 69.021Z" fill="#EA8978"/>
<path d="M66.8785 122.212L70.3842 119.798C70.3842 119.798 70.7623 108.916 78.8386 92.6873C73.3865 88.1156 54.5779 102.931 54.5779 102.931L66.8785 122.212Z" fill="#433E3F"/>
<path d="M66.0391 117.052C66.0391 117.052 36.4059 122.362 29.2009 117.029C29.2009 117.029 43.5574 108.473 66.0391 117.052Z" fill="#33211E"/>
<path d="M28.1427 153.294L101.678 100.906C105.054 98.5016 108.993 97.0118 113.115 96.5813L113.123 96.5802C121.723 95.6827 130.141 99.4799 135.161 106.521L141.289 115.119C146.309 122.16 147.154 131.356 143.501 139.193C141.748 142.954 139.05 146.196 135.671 148.604L62.0253 201.071L28.1427 153.294ZM126.257 113.808C123.692 115.637 123.096 119.197 124.924 121.763C126.753 124.33 130.313 124.926 132.879 123.097C135.444 121.268 136.047 117.703 134.219 115.138C132.389 112.572 128.822 111.979 126.257 113.808Z" fill="#E7B119"/>
<path d="M62.7813 196.611L63.1537 196.345L133.818 146.003C136.741 143.919 139.089 141.098 140.605 137.844C143.617 131.381 143.133 123.925 139.311 117.901L139.298 117.882L132.559 108.377C129.96 104.733 126.179 101.979 121.911 100.623C119.175 99.7545 116.34 99.4629 113.483 99.7579L113.446 99.7613C109.881 100.133 106.453 101.43 103.533 103.51L32.5946 154.047L62.7813 196.611ZM138.546 118.4C142.196 124.158 142.656 131.281 139.778 137.458C138.328 140.57 136.084 143.267 133.288 145.259L62.9966 195.336L33.8669 154.262L104.063 104.253C106.854 102.264 110.132 101.024 113.542 100.669L113.578 100.666C116.308 100.384 119.019 100.663 121.634 101.494C125.715 102.79 129.33 105.423 131.815 108.908L132.587 109.992L138.546 118.4Z" fill="#FFE5C5"/>
<path d="M167.1 90.9151C167.599 89.6201 167.614 88.4891 167.144 87.4549C166.699 86.4754 165.996 85.9105 164.934 85.6782C158.593 84.2944 141.59 96.6838 132.851 103.746C132.375 103.302 131.901 102.846 131.43 102.396C138.952 96.2932 157.599 82.0894 165.347 83.7818C167.013 84.1452 168.213 85.111 168.912 86.652C169.598 88.1634 169.599 89.8319 168.912 91.6121C164.733 102.453 135.082 115.4 133.821 115.946C133.522 116.076 133.191 116.043 132.932 115.884C132.765 115.784 132.629 115.633 132.545 115.441C132.333 114.949 132.558 114.377 133.05 114.164C133.35 114.036 163.212 101.004 167.1 90.9151Z" fill="#131E07"/>
<path d="M109.104 159.201C114.205 155.533 114.758 150.139 111.622 145.777C108.485 141.416 103.198 140.226 98.0979 143.893C92.9533 147.593 92.4397 152.953 95.5763 157.315C98.7118 161.677 103.96 162.899 109.104 159.201ZM99.0524 129.163L94.0513 122.208L79.3907 162.583L84.3918 169.539L99.0524 129.163ZM102.298 149.736C105.053 147.756 106.528 148.066 107.179 148.972C107.829 149.876 107.658 151.377 104.902 153.358C102.145 155.341 100.67 155.024 100.018 154.119C99.369 153.214 99.541 151.718 102.298 149.736ZM80.3474 147.853C85.4488 144.185 86.0058 138.794 82.8691 134.432C79.7336 130.07 74.4454 128.881 69.3441 132.549C64.2017 136.248 63.6857 141.609 66.8224 145.971C69.9579 150.333 75.2039 151.552 80.3474 147.853ZM73.5445 138.392C76.3019 136.409 77.7745 136.724 78.4249 137.627C79.0752 138.531 78.9033 140.028 76.1459 142.01C73.3896 143.992 71.9158 143.678 71.2654 142.775C70.6151 141.872 70.7871 140.375 73.5445 138.392Z" fill="white"/>
<path d="M83.2884 152.307C83.9843 152.04 99.3658 176.424 99.9854 182.726C98.3122 184.777 98.3123 184.777 94.8328 188.137C90.8499 191.983 86.2326 195.949 82.3704 195.272C75.1358 194.005 61.0994 167.051 61.0994 167.051L83.2884 152.307Z" fill="#E86464"/>
<path d="M91.391 191.608C90.5254 188.827 86.6506 182.781 86.6119 182.721L87.1324 182.386C87.2942 182.637 91.0949 188.564 91.9844 191.425L91.391 191.608Z" fill="#433E3F"/>
<path d="M95.7008 187.298C94.8352 184.518 90.9604 178.472 90.9217 178.411L91.4423 178.076C91.604 178.328 95.4024 184.254 96.2942 187.115L95.7008 187.298Z" fill="#433E3F"/>
<path d="M91.1813 165.472C91.1813 165.472 106.312 171.406 105.381 175.196C104.941 176.986 95.9353 174.69 95.9353 174.69L91.1813 165.472Z" fill="#E86464"/>
<path d="M29.2009 117.029C45.9093 110.275 60.129 114.573 66.039 117.052C67.1279 107.998 71.883 99.9766 80.5481 90.7454L59.7293 59.0508C51.9525 67.3161 32.1565 94.3547 29.2009 117.029Z" fill="#C53A1E"/>
<path d="M62.8203 115.851C62.8203 115.851 61.3772 117.57 62.8203 120.919C64.2633 124.269 83.2883 152.307 83.2883 152.307L61.0994 167.051C61.0994 167.051 34.9718 131.332 33.8671 123.537C32.7623 115.742 33.8671 115.399 33.8671 115.399C33.8671 115.399 46.7292 110.651 62.8203 115.851Z" fill="#E86464"/>
<path d="M108.425 53.0199H87.5729L89.0945 33.0063H106.347L108.425 53.0199Z" fill="#E86464"/>
<path d="M110.585 38.6634C119.327 35.799 113.023 4.25011 103.915 2.55991C96.2529 1.13736 80.3281 3.76263 82.5593 22.4072C84.2256 36.3183 101.844 41.5279 110.585 38.6634Z" fill="#E86464"/>
<path d="M110.855 29.8795C110.855 29.8795 107.586 30.9129 104.355 28.6685" stroke="#0E0C33" stroke-width="0.75" stroke-miterlimit="10" stroke-linecap="round" stroke-linejoin="round"/>
<path d="M104.838 28.208L103.946 29.1742" stroke="#0E0C33" stroke-width="0.75" stroke-miterlimit="10" stroke-linecap="round" stroke-linejoin="round"/>
<path d="M103.071 18.2899C103.071 18.8628 102.702 19.3287 102.247 19.3287C101.793 19.3287 101.424 18.864 101.424 18.2899C101.424 17.7159 101.793 17.2512 102.247 17.2512C102.702 17.2512 103.071 17.7159 103.071 18.2899Z" fill="#0E0C33"/>
<path d="M111.04 18.2899C111.04 18.8628 110.671 19.3287 110.216 19.3287C109.762 19.3287 109.393 18.864 109.393 18.2899C109.393 17.7159 109.762 17.2512 110.216 17.2512C110.671 17.2512 111.04 17.7159 111.04 18.2899Z" fill="#0E0C33"/>
<path d="M105.453 24.4233L105.276 23.8298C105.276 23.8298 107.583 23.4043 107.82 23.0611C108.057 22.7178 106.305 18.3868 106.305 18.3868L106.894 18.1943C106.894 18.1943 109 23.0001 108.602 23.4734C108.204 23.9467 105.453 24.4233 105.453 24.4233Z" fill="#0E0C33"/>
<path d="M107.444 43.5734L107.003 39.324C107.003 39.324 100.392 39.111 95.0125 37.6304C97.1697 41.4743 107.444 43.5734 107.444 43.5734Z" fill="#433E3F"/>
<path d="M104.114 15.0827C104.175 15.4529 103.205 15.9233 101.946 16.1317C100.688 16.3401 99.6183 16.2103 99.5568 15.839C99.4953 15.4689 100.466 14.9985 101.724 14.79C102.983 14.5816 104.052 14.7126 104.114 15.0827Z" fill="#0E0C33"/>
<path d="M108.214 15.0827C108.153 15.4529 109.123 15.9233 110.381 16.1317C111.64 16.3401 112.709 16.2103 112.771 15.839C112.832 15.4689 111.862 14.9985 110.603 14.79C109.345 14.5816 108.276 14.7126 108.214 15.0827Z" fill="#0E0C33"/>
<path d="M91.0283 32.5051C90.3222 30.6942 90.0443 28.8776 89.6525 26.9733C89.3678 25.5906 88.7915 23.6418 89.7311 22.4425C90.3495 21.6521 92.7288 18.258 92.9623 17.2512C93.8256 13.5268 92.6046 11.3013 95.3256 10.3765C98.9064 9.15897 100.185 7.98585 103.4 9.08721C105.906 9.94712 110.285 8.61114 111.04 8.01319C112.751 6.65556 110.097 2.81844 109.067 1.44601C108.313 0.440318 107.348 -0.164464 106.049 0.0394073C105.13 0.182915 104.419 0.747834 103.558 1.00182C102.529 1.30478 101.477 0.837823 100.47 0.679509C98.5238 0.374271 96.4793 0.1647 94.5454 0.624835C93.9475 0.766065 93.0124 0.919816 92.5853 1.41184C92.3677 1.66241 92.2766 2.00183 92.0545 2.27745C91.4475 3.03258 90.6639 3.60432 89.7402 3.9255C88.1445 4.47903 86.3188 4.26719 84.9726 5.49043C84.484 5.93348 84.0979 6.54054 83.8986 7.16696C83.6856 7.83666 83.656 8.4551 83.0296 8.90385C82.5034 9.28084 81.8758 9.20909 81.3222 9.46649C80.632 9.78767 80.2539 10.4403 79.8416 11.0508C78.6002 12.8913 78.3188 14.7569 78.8302 16.8617C79.3712 19.0895 81.6856 25.2523 82.1081 26.2762C82.5147 27.2626 88.099 35.0108 88.6275 34.922C90.4555 34.4391 91.3062 33.2204 91.0283 32.5051Z" fill="#0E0C33"/>
<path d="M92.8643 25.8709C91.9019 27.7433 89.6024 28.4813 87.7288 27.5178C85.8552 26.5542 85.1183 24.2558 86.0807 22.3823C87.0443 20.5098 89.3427 19.7718 91.2163 20.7354C93.0898 21.6978 93.8267 23.9973 92.8643 25.8709Z" fill="#E86464"/>
<path d="M87.5967 25.0496L86.9749 25.0291C87.0136 23.9084 87.3644 23.0735 88.0182 22.5473C89 21.7569 90.2972 21.9835 90.3496 21.9949L90.2369 22.6043C90.2266 22.6054 89.1617 22.4198 88.4009 23.0337C87.8975 23.4414 87.6263 24.1202 87.5967 25.0496Z" fill="#433E3F"/>
<path d="M88.344 22.6515L89.686 24.2908L89.2066 24.6833L87.8646 23.044L88.344 22.6515Z" fill="#433E3F"/>
</g>
</svg>
