<svg width="267" height="178" viewBox="0 0 267 178" fill="none" xmlns="http://www.w3.org/2000/svg">
<mask id="mask0_1_1706" style="mask-type:alpha" maskUnits="userSpaceOnUse" x="0" y="-167" width="299" height="345">
<rect y="-166.479" width="298.467" height="344.244" fill="#1A1A1A"/>
</mask>
<g mask="url(#mask0_1_1706)">
<path d="M211.437 86.6094L205.067 90.3795C202.219 92.0641 201.24 95.7138 202.858 98.5998L206.47 105.037C208.565 108.772 206.252 113.447 202.011 114.046L194.704 115.078C191.427 115.541 189.119 118.537 189.508 121.824L190.377 129.169C190.881 133.418 186.96 136.847 182.817 135.782L175.652 133.944C172.446 133.121 169.17 135.01 168.275 138.195L166.282 145.3C165.125 149.424 160.184 151.095 156.761 148.52L150.861 144.085C148.217 142.096 144.469 142.584 142.42 145.181L137.837 150.992C135.189 154.351 129.994 154.003 127.816 150.322L124.046 143.953C122.361 141.105 118.711 140.125 115.825 141.744L109.388 145.355C105.653 147.451 100.979 145.138 100.379 140.896L99.3468 133.59C98.8842 130.313 95.8881 128.004 92.6011 128.393L85.2562 129.263C81.0073 129.767 77.578 125.845 78.6428 121.702L80.4815 114.538C81.304 111.332 79.4153 108.055 76.2297 107.161L69.1257 105.168C65.0016 104.01 63.3303 99.0697 65.9049 95.6462L70.3403 89.7465C72.3289 87.1029 71.8413 83.3548 69.2446 81.306L63.4331 76.7222C60.0742 74.0742 60.4222 68.8795 64.1028 66.7014L70.4725 62.9313C73.3202 61.2467 74.2998 57.597 72.6814 54.7111L69.0699 48.2738C66.9741 44.539 69.2872 39.8641 73.5288 39.2649L80.8355 38.2324C84.1121 37.7698 86.4209 34.7737 86.0317 31.4868L85.1623 24.1419C84.6585 19.893 88.5799 16.4636 92.723 17.5284L99.8873 19.3672C103.093 20.1896 106.37 18.3009 107.264 15.1153L109.257 8.01132C110.415 3.88725 115.355 2.21589 118.779 4.79049L124.679 9.22591C127.322 11.2145 131.07 10.7269 133.119 8.13028L137.703 2.3187C140.351 -1.04018 145.546 -0.69211 147.724 2.98841L151.494 9.3581C153.178 12.2059 156.828 13.1855 159.714 11.567L166.151 7.9555C169.886 5.85969 174.561 8.17287 175.16 12.4144L176.193 19.7211C176.655 22.9978 179.652 25.3065 182.938 24.9173L190.283 24.0479C194.532 23.5441 197.962 27.4655 196.897 31.6087L195.058 38.7729C194.236 41.979 196.124 45.2557 199.31 46.1501L206.414 48.1431C210.538 49.3004 212.209 54.2411 209.635 57.6646L205.199 63.5643C203.211 66.2079 203.698 69.956 206.295 72.0048L212.106 76.5886C215.465 79.2366 215.117 84.4299 211.437 86.6094Z" fill="#535353"/>
<path d="M239.551 211.275H188.143C182.395 211.275 178.39 206.615 179.198 200.867L194.673 90.756C195.481 85.0081 200.795 80.3477 206.544 80.3477H257.951C263.699 80.3477 267.704 85.0072 266.897 90.756L251.422 200.867C250.613 206.615 245.298 211.275 239.551 211.275Z" fill="#292759"/>
<path d="M233.117 211.275H181.709C175.962 211.275 171.957 206.615 172.764 200.867L188.239 90.756C189.047 85.0081 194.361 80.3477 200.11 80.3477H251.517C257.265 80.3477 261.27 85.0072 260.463 90.756L244.988 200.867C244.18 206.615 238.865 211.275 233.117 211.275Z" fill="#7976B8"/>
<path d="M232.164 208.324H183.492C179.167 208.324 176.155 204.817 176.762 200.492L192.132 91.1294C192.74 86.8042 196.739 83.298 201.063 83.298H249.734C254.06 83.298 257.072 86.8042 256.465 91.1294L241.095 200.492C240.488 204.817 236.489 208.324 232.164 208.324Z" fill="#FFE6D6"/>
<path d="M259.434 121.068C258.828 121.068 258.407 120.577 258.492 119.971L260.506 105.639C260.591 105.033 261.151 104.542 261.756 104.542C262.362 104.542 262.783 105.033 262.698 105.639L260.684 119.971C260.599 120.577 260.039 121.068 259.434 121.068Z" fill="#B6D1D6"/>
<path d="M256.638 140.964C256.032 140.964 255.611 140.473 255.696 139.867L257.71 125.535C257.796 124.929 258.355 124.439 258.96 124.439C259.566 124.439 259.987 124.929 259.902 125.535L257.888 139.867C257.803 140.473 257.242 140.964 256.638 140.964Z" fill="#B6D1D6"/>
<path d="M197.213 147.555L195.615 143.66H195.012L194.465 147.555H191.951L193.401 137.237H197.62C198.432 137.237 199.106 137.379 199.639 137.663C200.173 137.948 200.546 138.337 200.761 138.832C200.975 139.327 201.04 139.878 200.955 140.485C200.859 141.171 200.579 141.783 200.117 142.322C199.653 142.861 199.028 143.244 198.243 143.469L200.05 147.554H197.213V147.555ZM195.262 141.882H196.819C197.28 141.882 197.641 141.769 197.903 141.544C198.165 141.319 198.326 140.999 198.383 140.589C198.439 140.196 198.366 139.888 198.167 139.662C197.969 139.437 197.639 139.324 197.18 139.324H195.622L195.262 141.882Z" fill="#DE4A4A"/>
<path d="M205.215 139.25L204.921 141.337H208.286L208.013 143.278H204.648L204.331 145.541H208.137L207.854 147.555H201.534L202.985 137.237H209.304L209.022 139.25H205.215Z" fill="#DE4A4A"/>
<path d="M191.819 160.631C191.254 160.388 190.828 160.024 190.537 159.545C190.247 159.064 190.141 158.487 190.216 157.81H192.891C192.876 158.191 192.968 158.483 193.166 158.684C193.363 158.885 193.643 158.985 194.005 158.985C194.377 158.985 194.684 158.898 194.923 158.728C195.162 158.557 195.304 158.319 195.347 158.015C195.383 157.76 195.327 157.549 195.178 157.383C195.031 157.217 194.839 157.08 194.605 156.972C194.369 156.864 194.031 156.742 193.59 156.604C192.952 156.399 192.438 156.193 192.046 155.987C191.653 155.782 191.333 155.478 191.085 155.077C190.839 154.675 190.761 154.15 190.851 153.504C190.986 152.542 191.439 151.791 192.211 151.247C192.983 150.703 193.928 150.431 195.046 150.431C196.181 150.431 197.06 150.703 197.68 151.247C198.298 151.791 198.564 152.548 198.477 153.518H195.758C195.785 153.185 195.699 152.923 195.501 152.732C195.302 152.54 195.026 152.444 194.673 152.444C194.369 152.444 194.113 152.525 193.905 152.687C193.696 152.849 193.57 153.082 193.527 153.385C193.48 153.719 193.601 153.978 193.888 154.164C194.175 154.35 194.638 154.551 195.273 154.767C195.907 154.992 196.419 155.208 196.807 155.414C197.195 155.619 197.512 155.919 197.761 156.31C198.009 156.702 198.09 157.207 198.003 157.824C197.921 158.412 197.696 158.946 197.329 159.426C196.964 159.906 196.476 160.288 195.867 160.573C195.259 160.857 194.568 160.999 193.794 160.999C193.04 161 192.382 160.877 191.819 160.631Z" fill="#DE4A4A"/>
<path d="M202.796 152.592L202.503 154.679H205.868L205.595 156.619H202.23L201.913 158.882H205.718L205.436 160.896H199.116L200.565 150.579H206.885L206.603 152.592H202.796Z" fill="#DE4A4A"/>
<path d="M209.853 158.956H213.145L212.872 160.896H207.066L208.516 150.579H211.029L209.853 158.956Z" fill="#DE4A4A"/>
<path d="M216.863 158.956H220.154L219.881 160.896H214.076L215.525 150.579H218.039L216.863 158.956Z" fill="#DE4A4A"/>
<path d="M224.768 152.592L224.474 154.679H227.839L227.566 156.619H224.201L223.884 158.882H227.69L227.407 160.896H221.087L222.537 150.579H228.856L228.574 152.592H224.768Z" fill="#DE4A4A"/>
<path d="M234.3 160.896L232.701 157.002H232.098L231.552 160.896H229.038L230.487 150.579H234.706C235.518 150.579 236.193 150.72 236.726 151.005C237.259 151.289 237.632 151.679 237.847 152.173C238.062 152.669 238.126 153.22 238.042 153.826C237.946 154.513 237.666 155.125 237.203 155.663C236.739 156.202 236.115 156.586 235.33 156.81L237.137 160.896L234.3 160.896ZM232.348 155.223H233.906C234.367 155.223 234.728 155.11 234.989 154.885C235.252 154.66 235.412 154.341 235.469 153.93C235.525 153.538 235.453 153.23 235.254 153.004C235.056 152.778 234.726 152.666 234.266 152.666H232.708L232.348 155.223Z" fill="#DE4A4A"/>
<mask id="mask1_1_1706" style="mask-type:luminance" maskUnits="userSpaceOnUse" x="176" y="83" width="81" height="126">
<path d="M232.164 208.324H183.492C179.167 208.324 176.155 204.817 176.762 200.492L192.132 91.1294C192.74 86.8042 196.739 83.298 201.063 83.298H249.734C254.06 83.298 257.072 86.8042 256.465 91.1294L241.095 200.492C240.488 204.817 236.489 208.324 232.164 208.324Z" fill="white"/>
</mask>
<g mask="url(#mask1_1_1706)">
<path d="M201.766 114.135H188.899L194.224 76.2447H207.091L201.766 114.135Z" fill="#DE4A4A"/>
<path d="M201.766 114.135H188.899L188.478 117.134C187.978 120.688 190.453 123.568 194.007 123.568C197.56 123.568 200.845 120.688 201.345 117.134L201.766 114.135Z" fill="#E86464"/>
<path d="M214.632 114.135H201.766L207.091 76.2447H219.958L214.632 114.135Z" fill="#E86464"/>
<path d="M214.632 114.135H201.765L201.344 117.134C200.844 120.688 203.32 123.568 206.873 123.568C210.426 123.568 213.711 120.688 214.211 117.134L214.632 114.135Z" fill="#FF9687"/>
<path d="M227.499 114.135H214.632L219.958 76.2447H232.825L227.499 114.135Z" fill="#DE4A4A"/>
<path d="M227.499 114.135H214.632L214.211 117.134C213.711 120.688 216.187 123.568 219.74 123.568C223.293 123.568 226.578 120.688 227.078 117.134L227.499 114.135Z" fill="#E86464"/>
<path d="M240.366 114.135H227.499L232.825 76.2447H245.691L240.366 114.135Z" fill="#E86464"/>
<path d="M240.366 114.135H227.499L227.078 117.134C226.578 120.688 229.054 123.568 232.607 123.568C236.16 123.568 239.445 120.688 239.945 117.134L240.366 114.135Z" fill="#FF9687"/>
<path d="M253.233 114.135H240.367L245.691 76.2447H258.558L253.233 114.135Z" fill="#DE4A4A"/>
<path d="M253.232 114.135H240.365L239.944 117.134C239.444 120.688 241.92 123.568 245.473 123.568C249.026 123.568 252.311 120.688 252.811 117.134L253.232 114.135Z" fill="#E86464"/>
</g>
<path d="M141.074 36.4247C147.568 26.9732 160.17 31.6665 159.012 42.5327C165.57 43.5882 165.249 50.1551 163.898 52.4839C169.492 56.8704 165.184 64.5861 157.919 65.3571C150.694 66.1245 146.217 61.5246 148.018 54.4393C144.464 52.6555 146.475 46.5182 146.475 46.5182L141.074 36.4247Z" fill="#494687"/>
<path d="M145.055 32.6589C143.608 33.4903 142.241 34.7254 141.074 36.4247L146.475 46.5191C146.475 46.5191 145.556 49.3343 146.066 51.7059C153.058 46.8339 152.178 33.2004 145.055 32.6589Z" fill="#292759"/>
<path d="M151.117 134.771H134.232H117.348C92.464 176.716 70.5395 282.59 70.5395 282.59C80.007 287.106 113.937 288.988 134.232 288.988C154.527 288.988 188.457 287.106 197.925 282.59C197.925 282.59 176 176.716 151.117 134.771Z" fill="#3D948D"/>
<path d="M90.393 285.355L89.8044 285.298C96.9039 211.925 119.755 135.449 119.984 134.687L120.551 134.856C120.32 135.619 97.4863 212.041 90.393 285.355Z" fill="#B6D1D6"/>
<path d="M178.071 285.355C170.978 212.041 148.145 135.619 147.915 134.855L148.481 134.686C148.711 135.449 171.562 211.925 178.66 285.297L178.071 285.355Z" fill="#B6D1D6"/>
<path d="M111.927 287.511L111.317 287.482C114.953 213.065 126.659 135.5 126.777 134.725L127.38 134.817C127.262 135.591 115.561 213.127 111.927 287.511Z" fill="#B6D1D6"/>
<path d="M156.539 287.511C152.904 213.126 141.204 135.591 141.086 134.817L141.689 134.725C141.807 135.5 153.513 213.064 157.149 287.482L156.539 287.511Z" fill="#B6D1D6"/>
<path d="M134.522 134.771H133.942V287.496H134.522V134.771Z" fill="#B6D1D6"/>
<path d="M155.309 200.357C166.069 200.931 173.997 190.4 170.529 180.199C164.542 162.584 157.94 146.274 151.117 134.771H134.232H117.348C107.148 151.964 97.4462 179.897 89.5473 206.878C88.6634 209.898 91.8388 212.477 94.6282 211.02C108.082 203.996 134.524 199.246 155.309 200.357Z" fill="#292759"/>
<path d="M118.347 77.856L110.894 81.2216C109.576 81.8174 108.498 82.8409 107.835 84.1267L88.0289 122.578H113.051L118.347 77.856Z" fill="#FF9687"/>
<path d="M93.0655 112.8L88.0289 122.579H113.051L115.788 99.4738C110.602 103.58 104.535 106.012 99.4527 107.497C96.6845 108.305 94.3859 110.237 93.0655 112.8Z" fill="#292759"/>
<path d="M145.049 112.938H74.1812V126.585H145.049V112.938Z" fill="#BF6F39"/>
<path d="M143.981 126.585H75.2491V168.497H143.981V126.585Z" fill="#AB5D29"/>
<path d="M143.981 126.585H104.583V168.497H143.981V126.585Z" fill="#BF6F39"/>
<path d="M103.187 112.938H74.1812V126.585H103.187V112.938Z" fill="#AB5D29"/>
<path d="M93.3429 120.973H84.0257C83.357 120.973 82.8145 120.431 82.8145 119.762C82.8145 119.093 83.357 118.551 84.0257 118.551H93.3429C94.0115 118.551 94.554 119.093 94.554 119.762C94.554 120.431 94.0124 120.973 93.3429 120.973Z" fill="#292759"/>
<path d="M143.981 126.585H75.2491V129.82H143.981V126.585Z" fill="#292759"/>
<path d="M150.135 119.737L153.098 100.009L161.542 79.5277L145.05 72.1757L126.493 74.5943L118.346 77.856C116.82 78.4669 115.729 79.8363 115.474 81.46L114.998 84.4868C107.783 91.798 106.629 100.404 106.979 106.484H106.978L106.979 106.49C107.247 111.122 108.386 114.287 108.386 114.287L117.348 134.771H151.116C152.793 134.771 154.004 133.163 153.54 131.551L150.135 119.737Z" fill="#3D948D"/>
<path d="M142.525 67.163L143.397 54.4392H130.542L129.364 71.6117C129.291 72.6904 128.627 73.64 127.64 74.0811L126.493 74.5933C126.493 74.5933 125.707 80.784 132.296 80.784C138.885 80.784 143.679 75.0112 145.049 72.1746C143.355 71.0916 142.388 69.1691 142.525 67.163Z" fill="#FF9687"/>
<path d="M135.707 68.4311C141.075 65.9973 141.075 58.7137 141.075 58.7137L130.148 60.196L129.872 64.2206C129.657 67.3516 132.848 69.7267 135.707 68.4311Z" fill="#0E0C33"/>
<path d="M113.195 93.2314H140.241C142.193 93.2314 143.855 94.655 144.155 96.5855L147.899 120.715L158.043 191.549C158.393 193.996 156.495 196.187 154.023 196.187H95.514C93.3212 196.187 91.6993 194.148 92.2008 192.013C94.7946 180.972 102.421 150.651 111.748 133.202C107.802 125.43 105.995 115.619 105.171 105.358C105.073 104.139 105.394 102.922 106.065 101.899L110.953 94.4434C111.449 93.6866 112.292 93.2314 113.195 93.2314Z" fill="#FFE6D6"/>
<path d="M108.579 158.428H141.004L139.038 167.004C137.107 175.433 129.084 181.945 120.632 181.945C111.221 181.945 105.025 173.937 107.175 164.554L108.579 158.428Z" fill="#FCB341"/>
<path d="M126.493 74.5941L118.735 96.2101H113.051L120.946 76.8145L126.493 74.5941Z" fill="#FFE6D6"/>
<path d="M149.562 74.1869L141.325 96.2101H135.641L145.368 72.3169L149.562 74.1869Z" fill="#FFE6D6"/>
<path d="M161.918 79.6938C165.797 81.5291 167.536 86.0997 165.856 90.0496L149.173 129.286C147.08 134.207 142.789 137.854 137.595 139.124L91.4349 150.413L84.0269 155.29C83.1048 155.898 81.9355 156.098 80.9075 155.696C80.5092 155.54 80.1357 155.298 79.8698 154.926C77.1444 155.725 76.2712 153.699 76.2712 153.699C76.2712 153.699 72.7774 153.664 72.9615 151.913C71.1911 152.673 68.8471 151.694 69.7986 150.413C70.75 149.133 82.7695 142.238 82.7695 142.238L82.4903 140.746C82.4903 140.746 84.7525 139.776 90.4097 141.212L133.829 122.298L151.206 83.6419C153.042 79.5604 157.871 77.7802 161.918 79.6938Z" fill="#FF9687"/>
<path d="M113.051 96.2102H118.735L119.804 93.2314H123.155L120.608 96.2698C119.797 97.2373 118.499 97.649 117.279 97.3271L113.051 96.2102Z" fill="#FCB341"/>
<path d="M142.658 97.4222L144.023 96.0572C143.73 95.0809 143.087 94.2708 142.237 93.7737L141.325 96.2111H135.641L140.621 97.8988C141.335 98.1398 142.125 97.9557 142.658 97.4222Z" fill="#FCB341"/>
<path d="M116.568 95.3325C117.19 95.3325 117.693 94.8289 117.693 94.2077C117.693 93.5864 117.19 93.0828 116.568 93.0828C115.947 93.0828 115.444 93.5864 115.444 94.2077C115.444 94.8289 115.947 95.3325 116.568 95.3325Z" fill="#292759"/>
<path d="M138.707 95.3325C139.329 95.3325 139.832 94.8289 139.832 94.2077C139.832 93.5864 139.329 93.0828 138.707 93.0828C138.086 93.0828 137.583 93.5864 137.583 94.2077C137.583 94.8289 138.086 95.3325 138.707 95.3325Z" fill="#292759"/>
<path d="M122.231 44.8365L123.035 55.2563C123.418 60.2146 127.552 64.0426 132.526 64.0426C137.539 64.0426 141.694 60.1532 142.024 55.1505L142.363 49.9975C140.202 48.8753 138.492 47.248 137.485 44.8365H122.231Z" fill="#FF9687"/>
<path d="M134.927 57.0349C136.19 57.0349 137.214 56.0109 137.214 54.7478C137.214 53.4847 136.19 52.4608 134.927 52.4608C133.664 52.4608 132.64 53.4847 132.64 54.7478C132.64 56.0109 133.664 57.0349 134.927 57.0349Z" fill="#E86464"/>
<path d="M129.998 35.2286L130.4 34.9983C134.756 32.5041 140.237 33.203 143.827 36.7092C147.417 40.2162 148.244 45.6814 145.851 50.0945L144.462 52.6555C144.462 52.6555 138.182 49.6224 136.983 45.6004L136.791 46.0442C136.351 47.0596 135.35 47.7177 134.243 47.7177H122.318C120.537 47.7177 118.94 46.5466 118.469 44.8295C116.533 37.77 121.834 32.6739 129.998 35.2286Z" fill="#494687"/>
<path d="M125.622 52.0543C126.21 52.0543 126.687 51.5778 126.687 50.9899C126.687 50.4021 126.21 49.9255 125.622 49.9255C125.035 49.9255 124.558 50.4021 124.558 50.9899C124.558 51.5778 125.035 52.0543 125.622 52.0543Z" fill="#0E0C33"/>
<path d="M133.118 52.0543C133.706 52.0543 134.182 51.5778 134.182 50.9899C134.182 50.4021 133.706 49.9255 133.118 49.9255C132.53 49.9255 132.054 50.4021 132.054 50.9899C132.054 51.5778 132.53 52.0543 133.118 52.0543Z" fill="#0E0C33"/>
<path d="M128.891 49.7166L129.519 51.2541L128.743 53.8426C128.608 54.2943 128.946 54.7478 129.417 54.7478H131.267" stroke="#0E0C33" stroke-width="0.75" stroke-miterlimit="10" stroke-linecap="round" stroke-linejoin="round"/>
<path d="M127.843 56.32C127.843 56.32 130.918 57.2919 133.957 55.1809" stroke="#0E0C33" stroke-width="0.75" stroke-miterlimit="10" stroke-linecap="round" stroke-linejoin="round"/>
<path d="M133.503 54.7478L134.341 55.6566" stroke="#0E0C33" stroke-width="0.75" stroke-miterlimit="10" stroke-linecap="round" stroke-linejoin="round"/>
<path d="M122.231 42.0293C122.231 42.0293 121.022 44.5449 122.231 46.6417" stroke="#B6D1D6" stroke-width="0.75" stroke-miterlimit="10" stroke-linecap="round" stroke-linejoin="round"/>
<path d="M125.622 42.0293C125.622 42.0293 124.413 44.5449 125.622 46.6417" stroke="#B6D1D6" stroke-width="0.75" stroke-miterlimit="10" stroke-linecap="round" stroke-linejoin="round"/>
<path d="M129.013 42.0293C129.013 42.0293 127.803 44.5449 129.013 46.6417" stroke="#B6D1D6" stroke-width="0.75" stroke-miterlimit="10" stroke-linecap="round" stroke-linejoin="round"/>
<path d="M132.404 42.0293C132.404 42.0293 131.195 44.5449 132.404 46.6417" stroke="#B6D1D6" stroke-width="0.75" stroke-miterlimit="10" stroke-linecap="round" stroke-linejoin="round"/>
<path d="M140.217 55.1338C139.148 53.7662 139.39 51.7912 140.758 50.7224L142.19 49.6037C143.557 48.5349 145.532 48.7777 146.601 50.1453C147.67 51.5129 147.427 53.4878 146.06 54.5567L144.628 55.6753C143.26 56.7441 141.285 56.5014 140.217 55.1338Z" fill="#FF9687"/>
<path d="M140.802 53.4968L143.036 51.8882C143.733 51.3867 144.656 51.3334 145.405 51.7513L145.993 52.0794" stroke="#0E0C33" stroke-width="0.75" stroke-miterlimit="10" stroke-linecap="round" stroke-linejoin="round"/>
<path d="M144.463 53.2576L142.805 52.0545" stroke="#0E0C33" stroke-width="0.75" stroke-miterlimit="10" stroke-linecap="round" stroke-linejoin="round"/>
<path d="M142.354 57.7419C143.062 57.7419 143.635 57.1686 143.635 56.4614C143.635 55.7542 143.062 55.1809 142.354 55.1809C141.647 55.1809 141.074 55.7542 141.074 56.4614C141.074 57.1686 141.647 57.7419 142.354 57.7419Z" fill="#FFE6D6"/>
<path d="M31.3775 149.287H-2.00142V155.715H31.3775V149.287Z" fill="#86B393"/>
<path d="M30.874 155.715H-1.49862V185.257H30.874V155.715Z" fill="#86B393"/>
<path d="M12.3869 155.715H-1.49862V185.257H12.3869V155.715Z" fill="#74A382"/>
<path d="M11.6607 149.287H-2.00142V155.715H11.6607V149.287Z" fill="#74A382"/>
<path d="M7.02338 153.072H2.63489C2.31987 153.072 2.06421 152.816 2.06421 152.501C2.06421 152.186 2.31948 151.93 2.63489 151.93H7.02338C7.3384 151.93 7.59406 152.185 7.59406 152.501C7.59406 152.816 7.33879 153.072 7.02338 153.072Z" fill="#292759"/>
<path d="M30.874 155.715H-1.49862V156.848H30.874V155.715Z" fill="#292759"/>
<path d="M62.0438 149.287H28.6648V155.715H62.0438V149.287Z" fill="#86B393"/>
<path d="M61.541 155.715H29.1684V185.257H61.541V155.715Z" fill="#86B393"/>
<path d="M43.0539 155.715H29.1684V185.257H43.0539V155.715Z" fill="#74A382"/>
<path d="M42.3269 149.287H28.6648V155.715H42.3269V149.287Z" fill="#74A382"/>
<path d="M37.6904 153.072H33.3019C32.9869 153.072 32.7312 152.816 32.7312 152.501C32.7312 152.186 32.9865 151.93 33.3019 151.93H37.6904C38.0054 151.93 38.2611 152.185 38.2611 152.501C38.2607 152.816 38.0054 153.072 37.6904 153.072Z" fill="#292759"/>
<path d="M61.541 155.715H29.1684V156.848H61.541V155.715Z" fill="#292759"/>
<path d="M55.7903 136.737H22.4114V143.164H55.7903V136.737Z" fill="#BF6F39"/>
<path d="M55.2873 143.164H22.9147V185.257H55.2873V143.164Z" fill="#BF6F39"/>
<path d="M36.8002 143.164H22.9147V185.257H36.8002V143.164Z" fill="#AB5D29"/>
<path d="M36.0735 136.737H22.4114V143.164H36.0735V136.737Z" fill="#AB5D29"/>
<path d="M31.4367 140.52H27.0482C26.7332 140.52 26.4775 140.265 26.4775 139.95C26.4775 139.635 26.7328 139.379 27.0482 139.379H31.4367C31.7517 139.379 32.0074 139.634 32.0074 139.95C32.007 140.265 31.7517 140.52 31.4367 140.52Z" fill="#292759"/>
<path d="M40.7518 136.736V151.066C40.7518 151.869 40.9074 152.663 41.2072 153.39C41.3671 153.778 41.852 153.778 42.0122 153.39L42.1445 153.069L42.2768 153.39C42.4367 153.778 42.9216 153.778 43.0818 153.39L43.2141 153.069L43.3464 153.39C43.5062 153.778 43.9912 153.778 44.1514 153.39L44.2841 153.069L44.4164 153.39C44.5762 153.778 45.0611 153.778 45.2214 153.39L45.3537 153.069L45.4859 153.39C45.6458 153.778 46.1307 153.778 46.291 153.39L46.4236 153.069L46.5559 153.39C46.7158 153.778 47.2007 153.778 47.3609 153.39L47.4932 153.069L47.6267 153.39C47.7865 153.778 48.2714 153.778 48.4317 153.39L48.5643 153.068L48.6966 153.39C48.8565 153.778 49.3414 153.778 49.5016 153.39C49.8015 152.663 49.9571 151.869 49.9571 151.066V136.736H40.7518V136.736Z" fill="#FCB747"/>
<path d="M55.2873 143.164H22.9147V144.297H55.2873V143.164Z" fill="#292759"/>
<path d="M39.1013 159.12L55.2874 179.523V185.258H38.5982V161.764L39.1013 159.12Z" fill="#292759"/>
<path d="M39.1013 159.12H5.72232V165.548H39.1013V159.12Z" fill="#BF6F39"/>
<path d="M38.5975 165.548H6.22487V185.289H38.5975V165.548Z" fill="#BF6F39"/>
<path d="M20.1104 165.548H6.22487V185.289H20.1104V165.548Z" fill="#AB5D29"/>
<path d="M19.3844 159.12H5.72232V165.548H19.3844V159.12Z" fill="#AB5D29"/>
<path d="M14.7471 162.905H10.3586C10.0436 162.905 9.78794 162.649 9.78794 162.334C9.78794 162.019 10.0432 161.763 10.3586 161.763H14.7471C15.0621 161.763 15.3178 162.019 15.3178 162.334C15.3178 162.649 15.0621 162.905 14.7471 162.905Z" fill="#292759"/>
<path d="M24.0625 159.12V173.45C24.0625 174.253 24.218 175.047 24.5179 175.774C24.6777 176.162 25.1627 176.162 25.3229 175.774L25.4552 175.452L25.5879 175.774C25.7477 176.162 26.2327 176.162 26.3929 175.774L26.5252 175.452L26.6575 175.774C26.8173 176.162 27.3022 176.162 27.4625 175.774L27.5951 175.452L27.7274 175.774C27.8873 176.162 28.3722 176.162 28.5324 175.774L28.6651 175.452L28.7974 175.774C28.9572 176.162 29.4422 176.162 29.6024 175.774L29.7351 175.452L29.8674 175.774C30.0272 176.162 30.5121 176.162 30.6724 175.774L30.8047 175.452L30.937 175.774C31.0968 176.162 31.5817 176.162 31.7419 175.774L31.8742 175.452L32.0069 175.774C32.1668 176.162 32.6517 176.162 32.8119 175.774C33.1118 175.047 33.2674 174.253 33.2674 173.45V159.12H24.0625Z" fill="#FCB747"/>
<path d="M38.5975 165.548H6.22487V166.681H38.5975V165.548Z" fill="#292759"/>
</g>
</svg>
