<svg width="510" height="510" viewBox="0 0 510 510" fill="none" xmlns="http://www.w3.org/2000/svg">
<path d="M255 510C395.833 510 510 395.833 510 255C510 114.167 395.833 0 255 0C114.167 0 0 114.167 0 255C0 395.833 114.167 510 255 510Z" fill="#3B00B9"/>
<path d="M347.378 301.379C327.742 301.379 306.994 288.535 296.867 279.273C285.752 269.023 255.125 235.925 255.001 235.801C234.994 213.448 207.948 188.625 181.026 188.625C148.669 188.625 120.388 211.102 112.978 240.741C113.596 238.765 123.846 211.596 162.501 211.596C182.137 211.596 202.885 224.44 213.012 233.702C224.127 243.952 254.754 277.05 254.878 277.173C274.884 299.527 301.93 324.35 328.853 324.35C361.21 324.35 389.491 301.873 396.901 272.233C396.407 274.086 386.033 301.379 347.378 301.379Z" fill="#29ABE2"/>
<path d="M255.001 277.173C254.877 277.05 246.109 267.541 236.229 257.167C230.919 263.465 223.262 272.11 214.37 279.89C197.945 294.34 187.2 297.304 181.025 297.304C157.931 297.304 139.036 279.026 139.036 256.426C139.036 234.073 157.808 215.671 181.025 215.548C181.89 215.548 182.878 215.671 184.113 215.795C177.197 213.078 169.787 211.349 162.501 211.349C123.846 211.349 113.595 238.518 112.978 240.494C111.743 245.558 111.002 250.868 111.002 256.302C111.002 293.722 141.877 324.226 180.408 324.226C196.463 324.226 214.494 315.952 233.018 299.774C241.787 292.117 249.32 283.842 255.124 277.297C255.124 277.297 255.124 277.173 255.001 277.173Z" fill="url(#paint0_linear_1_257)"/>
<path d="M255.001 235.678C255.125 235.801 263.893 245.311 273.773 255.685C279.084 249.386 286.74 240.741 295.632 232.961C312.058 218.512 322.802 215.548 328.977 215.548C352.071 215.548 370.966 233.826 370.966 256.426C370.966 278.779 352.195 297.18 328.977 297.304C328.112 297.304 327.124 297.18 325.889 297.057C332.805 299.774 340.215 301.503 347.502 301.503C386.157 301.503 396.407 274.333 397.025 272.357C398.259 267.294 399 261.983 399 256.549C399 219.129 367.632 188.625 329.1 188.625C313.046 188.625 295.509 196.9 276.984 213.078C268.216 220.735 260.682 229.009 254.878 235.554C254.878 235.554 254.878 235.678 255.001 235.678Z" fill="url(#paint1_linear_1_257)"/>
<path fill-rule="evenodd" clip-rule="evenodd" d="M60.71 270.738C67.6683 366.763 144.488 443.583 240.513 450.542V472.252C132.52 465.015 46.2367 378.732 39 270.738H60.71Z" fill="url(#paint2_linear_1_257)"/>
<path fill-rule="evenodd" clip-rule="evenodd" d="M240.513 61.9882C144.488 68.9466 67.6683 145.767 60.71 241.792H39C45.9583 133.798 132.52 47.2366 240.513 40.2782V61.9882Z" fill="#29ABE2"/>
<path fill-rule="evenodd" clip-rule="evenodd" d="M449.264 241.513C442.305 145.488 365.485 68.6683 269.46 61.71V40C377.454 47.2367 464.015 133.52 470.974 241.513H449.264Z" fill="url(#paint3_linear_1_257)"/>
<path fill-rule="evenodd" clip-rule="evenodd" d="M269.46 450.542C365.485 443.583 442.305 366.763 449.264 270.738H470.974C464.015 378.732 377.454 465.015 269.46 472.252V450.542Z" fill="#29ABE2"/>
<defs>
<linearGradient id="paint0_linear_1_257" x1="217.332" y1="315.464" x2="122.716" y2="217.487" gradientUnits="userSpaceOnUse">
<stop offset="0.22" stop-color="#ED1E79"/>
<stop offset="0.892" stop-color="#522785"/>
</linearGradient>
<linearGradient id="paint1_linear_1_257" x1="292.609" y1="197.445" x2="387.225" y2="295.423" gradientUnits="userSpaceOnUse">
<stop offset="0.21" stop-color="#F15A24"/>
<stop offset="0.684" stop-color="#FBB03B"/>
</linearGradient>
<linearGradient id="paint2_linear_1_257" x1="186.397" y1="429.002" x2="51.0685" y2="315.035" gradientUnits="userSpaceOnUse">
<stop offset="0.21" stop-color="#ED1E79"/>
<stop offset="1" stop-color="#522785"/>
</linearGradient>
<linearGradient id="paint3_linear_1_257" x1="434.963" y1="177.015" x2="299.635" y2="63.0515" gradientUnits="userSpaceOnUse">
<stop offset="0.21" stop-color="#F15A24"/>
<stop offset="0.684" stop-color="#FBB03B"/>
</linearGradient>
</defs>
</svg>
