<svg width="24" height="24" viewBox="0 0 24 24" fill="none" xmlns="http://www.w3.org/2000/svg">
<path d="M22 15.7C22 15.69 21.99 15.68 21.98 15.67C21.94 15.61 21.89 15.55 21.84 15.5C21.83 15.49 21.82 15.47 21.81 15.46C21 14.56 19.81 14 18.5 14C17.24 14 16.09 14.52 15.27 15.36C14.48 16.17 14 17.28 14 18.5C14 19.34 14.24 20.14 14.65 20.82C14.87 21.19 15.15 21.53 15.47 21.81C15.49 21.82 15.5 21.83 15.51 21.84C15.56 21.89 15.61 21.93 15.67 21.98C15.67 21.98 15.67 21.98 15.68 21.98C15.69 21.99 15.7 22 15.71 22C16.46 22.63 17.43 23 18.5 23C20.14 23 21.57 22.12 22.35 20.82C22.58 20.43 22.76 20 22.87 19.55C22.96 19.21 23 18.86 23 18.5C23 17.44 22.63 16.46 22 15.7ZM20.18 19.23H19.25V20.2C19.25 20.61 18.91 20.95 18.5 20.95C18.09 20.95 17.75 20.61 17.75 20.2V19.23H16.82C16.41 19.23 16.07 18.89 16.07 18.48C16.07 18.07 16.41 17.73 16.82 17.73H17.75V16.84C17.75 16.43 18.09 16.09 18.5 16.09C18.91 16.09 19.25 16.43 19.25 16.84V17.73H20.18C20.59 17.73 20.93 18.07 20.93 18.48C20.93 18.89 20.6 19.23 20.18 19.23Z" fill="#292D32"/>
<path opacity="0.4" d="M19.3499 5.65995L13.0599 2.27C12.3999 1.91 11.5999 1.91 10.9299 2.27L4.63991 5.65995C4.17991 5.90995 3.8999 6.39998 3.8999 6.93998C3.8999 7.47998 4.17991 7.96995 4.63991 8.21995L10.9299 11.61C11.2599 11.79 11.6299 11.88 11.9899 11.88C12.3499 11.88 12.7199 11.79 13.0499 11.61L19.3399 8.21995C19.7999 7.96995 20.0799 7.47998 20.0799 6.93998C20.0999 6.39998 19.8099 5.90995 19.3499 5.65995Z" fill="#292D32"/>
<path opacity="0.4" d="M9.90021 12.79L4.05022 9.86001C3.60022 9.63001 3.08021 9.66001 2.65021 9.92001C2.22021 10.18 1.97021 10.64 1.97021 11.14V16.67C1.97021 17.63 2.50021 18.49 3.36021 18.92L9.21022 21.8401C9.41022 21.9401 9.63022 21.99 9.85022 21.99C10.1102 21.99 10.3702 21.92 10.6002 21.77C11.0302 21.51 11.2802 21.05 11.2802 20.55V15.02C11.2902 14.08 10.7602 13.22 9.90021 12.79Z" fill="#292D32"/>
<path opacity="0.4" d="M22.03 11.15V15.74C22.02 15.73 22.01 15.71 22 15.7C22 15.69 21.99 15.68 21.9799 15.67C21.9399 15.61 21.89 15.55 21.84 15.5C21.83 15.49 21.82 15.47 21.81 15.46C21 14.56 19.81 14 18.5 14C17.24 14 16.09 14.52 15.27 15.36C14.48 16.17 14 17.28 14 18.5C14 19.34 14.2399 20.14 14.6499 20.82C14.8199 21.11 15.0299 21.37 15.2599 21.61L14.7899 21.85C14.5899 21.95 14.3699 22 14.1499 22C13.8899 22 13.63 21.93 13.39 21.78C12.97 21.52 12.71 21.06 12.71 20.56V15.04C12.71 14.08 13.24 13.22 14.1 12.79L19.95 9.87C20.4 9.64 20.92 9.66 21.35 9.93C21.77 10.19 22.03 10.65 22.03 11.15Z" fill="#292D32"/>
</svg>
