<svg width="24" height="24" viewBox="0 0 24 24" fill="none" xmlns="http://www.w3.org/2000/svg">
<path opacity="0.4" d="M15.0002 22.75C14.7302 22.75 14.4802 22.6 14.3502 22.37C14.2202 22.14 14.2202 21.85 14.3602 21.62L15.4102 19.87C15.6202 19.51 16.0802 19.4 16.4402 19.61C16.8002 19.82 16.9102 20.28 16.7002 20.64L16.4302 21.09C19.1902 20.44 21.2602 17.96 21.2602 15C21.2602 14.59 21.6002 14.25 22.0102 14.25C22.4202 14.25 22.7602 14.59 22.7602 15C22.7502 19.27 19.2702 22.75 15.0002 22.75Z" fill="#292D32"/>
<path opacity="0.4" d="M2 9.75C1.59 9.75 1.25 9.41 1.25 9C1.25 4.73 4.73 1.25 9 1.25C9.27 1.25 9.51999 1.4 9.64999 1.63C9.77999 1.86 9.78 2.15 9.64 2.38L8.59 4.13C8.38 4.49001 7.92 4.60001 7.56 4.39001C7.2 4.18001 7.09 3.71999 7.3 3.35999L7.57001 2.90997C4.81001 3.55997 2.74001 6.04 2.74001 9C2.75001 9.41 2.41 9.75 2 9.75Z" fill="#292D32"/>
<path d="M10.6704 13.8499L7.53044 12.1599C7.20044 11.9799 6.80044 11.9799 6.47044 12.1599L3.33044 13.8499C3.10044 13.9699 2.96045 14.2199 2.96045 14.4899C2.96045 14.7599 3.10044 15.0099 3.33044 15.1299L6.47044 16.8199C6.64044 16.9099 6.82044 16.9499 7.00044 16.9499C7.18044 16.9499 7.36044 16.9099 7.53044 16.8199L10.6704 15.1299C10.9004 15.0099 11.0404 14.7599 11.0404 14.4899C11.0404 14.2199 10.8904 13.9799 10.6704 13.8499Z" fill="#292D32"/>
<path d="M5.95023 17.4099L3.03023 15.9499C2.81023 15.8399 2.55023 15.8499 2.33023 15.9799C2.12023 16.1099 1.99023 16.3399 1.99023 16.5899V19.3499C1.99023 19.8299 2.25022 20.2599 2.68022 20.4699L5.60023 21.9299C5.70023 21.9799 5.81023 22.0099 5.92023 22.0099C6.05023 22.0099 6.18023 21.9699 6.30023 21.8999C6.51023 21.7699 6.64023 21.5399 6.64023 21.2899V18.5299C6.65023 18.0499 6.38023 17.6199 5.95023 17.4099Z" fill="#292D32"/>
<path d="M11.6601 15.9799C11.4501 15.8499 11.1901 15.8399 10.9601 15.9499L8.04008 17.4099C7.61008 17.6199 7.3501 18.0499 7.3501 18.5299V21.2899C7.3501 21.5399 7.48009 21.7699 7.69009 21.8999C7.81009 21.9699 7.9401 22.0099 8.0701 22.0099C8.1801 22.0099 8.29009 21.9799 8.39009 21.9299L11.3101 20.4699C11.7401 20.2599 12.0001 19.8299 12.0001 19.3499V16.5899C12.0001 16.3399 11.8701 16.1099 11.6601 15.9799Z" fill="#292D32"/>
<path d="M20.6704 3.83001L17.5304 2.14C17.2004 1.96 16.8004 1.96 16.4704 2.14L13.3304 3.83001C13.1004 3.95001 12.9604 4.19996 12.9604 4.46996C12.9604 4.73996 13.1004 4.98998 13.3304 5.10998L16.4704 6.79998C16.6404 6.88998 16.8204 6.92998 17.0004 6.92998C17.1804 6.92998 17.3604 6.88998 17.5304 6.79998L20.6704 5.10998C20.9004 4.98998 21.0404 4.73996 21.0404 4.46996C21.0404 4.18996 20.8904 3.95001 20.6704 3.83001Z" fill="#292D32"/>
<path d="M15.9502 7.37999L13.0302 5.91997C12.8102 5.80997 12.5502 5.82 12.3302 5.95C12.1202 6.08 11.9902 6.30999 11.9902 6.55999V9.32C11.9902 9.8 12.2502 10.23 12.6802 10.44L15.6002 11.9C15.7002 11.95 15.8102 11.98 15.9202 11.98C16.0502 11.98 16.1802 11.94 16.3002 11.87C16.5102 11.74 16.6402 11.51 16.6402 11.26V8.49999C16.6502 8.01999 16.3802 7.58999 15.9502 7.37999Z" fill="#292D32"/>
<path d="M21.6601 5.95C21.4501 5.82 21.1901 5.80997 20.9601 5.91997L18.0401 7.37999C17.6101 7.58999 17.3501 8.01999 17.3501 8.49999V11.26C17.3501 11.51 17.4801 11.74 17.6901 11.87C17.8101 11.94 17.9401 11.98 18.0701 11.98C18.1801 11.98 18.2901 11.95 18.3901 11.9L21.3101 10.44C21.7401 10.23 22.0001 9.8 22.0001 9.32V6.55999C22.0001 6.30999 21.8701 6.08 21.6601 5.95Z" fill="#292D32"/>
</svg>
