<svg width="360" height="368" viewBox="0 0 360 368" fill="none" xmlns="http://www.w3.org/2000/svg">
<path d="M300.908 92.1093L294.134 96.1189C291.106 97.9104 290.064 101.792 291.785 104.861L295.626 111.707C297.855 115.679 295.395 120.651 290.884 121.288L283.113 122.386C279.628 122.878 277.173 126.065 277.587 129.56L278.512 137.371C279.047 141.89 274.877 145.537 270.471 144.405L262.852 142.449C259.442 141.575 255.957 143.583 255.006 146.971L252.886 154.526C251.655 158.912 246.401 160.69 242.76 157.952L236.486 153.235C233.674 151.12 229.688 151.638 227.509 154.4L222.634 160.58C219.818 164.153 214.294 163.783 211.977 159.868L207.968 153.094C206.176 150.065 202.295 149.024 199.226 150.745L192.38 154.586C188.407 156.815 183.436 154.355 182.799 149.844L181.7 142.073C181.208 138.588 178.022 136.133 174.526 136.547L166.715 137.471C162.196 138.007 158.549 133.837 159.682 129.431L161.637 121.811C162.512 118.402 160.503 114.917 157.115 113.966L149.56 111.846C145.174 110.615 143.397 105.361 146.135 101.72L150.852 95.4457C152.967 92.6342 152.448 88.6481 149.687 86.4691L143.506 81.5943C139.934 78.7781 140.304 73.2535 144.218 70.9371L150.993 66.9276C154.021 65.136 155.063 61.2546 153.342 58.1854L149.501 51.3393C147.272 47.3673 149.732 42.3956 154.243 41.7583L162.014 40.6603C165.498 40.1683 167.954 36.9819 167.54 33.4863L166.615 25.6749C166.079 21.1562 170.25 17.5091 174.656 18.6415L182.275 20.597C185.685 21.4717 189.17 19.4631 190.121 16.0752L192.241 8.52005C193.471 4.1341 198.726 2.3566 202.367 5.0947L208.641 9.81178C211.452 11.9267 215.439 11.4081 217.617 8.64657L222.492 2.46594C225.309 -1.10624 230.833 -0.73606 233.149 3.17818L237.159 9.95236C238.951 12.981 242.832 14.0228 245.901 12.3015L252.747 8.4607C256.719 6.2318 261.691 8.69187 262.328 13.2028L263.426 20.9735C263.918 24.4582 267.105 26.9136 270.6 26.4997L278.412 25.575C282.93 25.0392 286.578 29.2096 285.445 33.6159L283.49 41.2351C282.615 44.6448 284.624 48.1295 288.011 49.0808L295.567 51.2003C299.953 52.4311 301.73 57.6855 298.992 61.3264L294.275 67.6008C292.16 70.4123 292.679 74.3984 295.44 76.5773L301.621 81.4522C305.193 84.2683 304.823 89.7914 300.908 92.1093Z" fill="#FFB73B"/>
<path d="M330.807 224.691H276.136C270.023 224.691 265.763 219.736 266.622 213.622L283.08 96.519C283.939 90.4061 289.591 85.4498 295.705 85.4498H350.376C356.489 85.4498 360.749 90.4052 359.89 96.519L343.432 213.622C342.573 219.735 336.92 224.691 330.807 224.691Z" fill="#292759"/>
<path d="M323.965 224.691H269.294C263.181 224.691 258.921 219.736 259.78 213.622L276.238 96.519C277.097 90.4061 282.749 85.4498 288.863 85.4498H343.534C349.647 85.4498 353.907 90.4052 353.048 96.519L336.59 213.622C335.731 219.735 330.078 224.691 323.965 224.691Z" fill="#7976B8"/>
<path d="M322.952 221.552H271.19C266.59 221.552 263.386 217.824 264.032 213.224L280.378 96.9162C281.025 92.3164 285.277 88.5876 289.876 88.5876H341.638C346.238 88.5876 349.442 92.3164 348.796 96.9162L332.45 213.224C331.804 217.824 327.551 221.552 322.952 221.552Z" fill="#FFE6D6"/>
<path d="M264.676 208.645L264.032 213.225C263.385 217.825 266.59 221.553 271.19 221.553H322.952C327.551 221.553 331.804 217.825 332.45 213.225L333.094 208.645H264.676Z" fill="#B6D1D6"/>
<path d="M299.021 216.316C299.729 215.656 299.838 214.623 299.264 214.008C298.691 213.393 297.653 213.429 296.945 214.088C296.237 214.748 296.129 215.781 296.702 216.396C297.275 217.011 298.314 216.975 299.021 216.316Z" fill="#FFE6D6"/>
<path d="M275.837 213.573L275.377 216.839L272.738 215.206L275.837 213.573Z" fill="#FFE6D6"/>
<path d="M323.302 214.161H319.49L319.574 213.573H323.384L323.302 214.161Z" fill="#FFE6D6"/>
<path d="M323.113 215.5H319.302L319.385 214.912H323.196L323.113 215.5Z" fill="#FFE6D6"/>
<path d="M322.925 216.839H319.114L319.197 216.251H323.007L322.925 216.839Z" fill="#FFE6D6"/>
<path d="M351.953 128.755C351.309 128.755 350.861 128.233 350.951 127.589L353.093 112.347C353.184 111.703 353.779 111.181 354.423 111.181C355.067 111.181 355.515 111.703 355.425 112.347L353.283 127.589C353.192 128.233 352.597 128.755 351.953 128.755Z" fill="#B6D1D6"/>
<path d="M348.98 149.915C348.336 149.915 347.887 149.393 347.978 148.749L350.12 133.507C350.211 132.863 350.806 132.341 351.45 132.341C352.094 132.341 352.542 132.863 352.451 133.507L350.309 148.749C350.219 149.393 349.623 149.915 348.98 149.915Z" fill="#B6D1D6"/>
<path d="M285.782 156.925L284.082 152.782H283.441L282.859 156.925H280.186L281.728 145.952H286.214C287.079 145.952 287.796 146.102 288.362 146.405C288.93 146.707 289.327 147.122 289.556 147.647C289.783 148.174 289.852 148.76 289.762 149.405C289.66 150.135 289.362 150.786 288.87 151.359C288.377 151.932 287.712 152.34 286.877 152.579L288.799 156.924H285.782V156.925ZM283.707 150.891H285.363C285.853 150.891 286.237 150.771 286.516 150.532C286.794 150.292 286.965 149.953 287.026 149.516C287.085 149.099 287.008 148.771 286.797 148.531C286.586 148.291 286.235 148.171 285.746 148.171H284.09L283.707 150.891Z" fill="#DE4A4A"/>
<path d="M294.292 148.093L293.98 150.312H297.558L297.268 152.376H293.689L293.352 154.783H297.399L297.099 156.925H290.378L291.92 145.952H298.641L298.34 148.093H294.292Z" fill="#DE4A4A"/>
<path d="M280.045 170.832C279.445 170.573 278.992 170.186 278.682 169.676C278.374 169.164 278.261 168.551 278.341 167.831H281.186C281.17 168.237 281.268 168.547 281.478 168.761C281.688 168.974 281.985 169.08 282.371 169.08C282.766 169.08 283.092 168.989 283.347 168.807C283.601 168.625 283.752 168.372 283.798 168.049C283.835 167.778 283.776 167.554 283.618 167.377C283.461 167.2 283.257 167.055 283.008 166.94C282.757 166.825 282.398 166.695 281.929 166.549C281.25 166.33 280.703 166.112 280.286 165.892C279.869 165.674 279.529 165.352 279.265 164.924C279.003 164.497 278.92 163.939 279.016 163.251C279.159 162.229 279.641 161.43 280.462 160.851C281.283 160.273 282.288 159.984 283.477 159.984C284.685 159.984 285.619 160.273 286.278 160.851C286.936 161.43 287.219 162.235 287.126 163.266H284.235C284.263 162.913 284.172 162.634 283.961 162.43C283.749 162.226 283.456 162.125 283.081 162.125C282.757 162.125 282.485 162.211 282.264 162.383C282.042 162.555 281.907 162.803 281.862 163.125C281.812 163.48 281.94 163.756 282.246 163.954C282.551 164.151 283.043 164.365 283.719 164.595C284.393 164.834 284.937 165.064 285.35 165.282C285.763 165.501 286.1 165.82 286.365 166.236C286.628 166.653 286.715 167.19 286.622 167.846C286.534 168.471 286.295 169.04 285.906 169.549C285.517 170.06 284.998 170.467 284.351 170.769C283.704 171.072 282.969 171.222 282.146 171.222C281.344 171.223 280.644 171.093 280.045 170.832Z" fill="#DE4A4A"/>
<path d="M291.72 162.282L291.407 164.501H294.986L294.696 166.565H291.117L290.78 168.972H294.827L294.526 171.114H287.805L289.347 160.141H296.068L295.768 162.282H291.72Z" fill="#DE4A4A"/>
<path d="M299.224 169.05H302.725L302.435 171.114H296.261L297.802 160.141H300.476L299.224 169.05Z" fill="#DE4A4A"/>
<path d="M306.679 169.05H310.18L309.89 171.114H303.715L305.257 160.141H307.93L306.679 169.05Z" fill="#DE4A4A"/>
<path d="M315.086 162.282L314.774 164.501H318.353L318.062 166.565H314.484L314.146 168.972H318.194L317.893 171.114H311.172L312.714 160.141H319.435L319.135 162.282H315.086Z" fill="#DE4A4A"/>
<path d="M325.224 171.114L323.524 166.971H322.882L322.301 171.114H319.627L321.169 160.141H325.655C326.52 160.141 327.237 160.291 327.804 160.594C328.371 160.896 328.767 161.311 328.996 161.836C329.224 162.363 329.293 162.949 329.203 163.594C329.101 164.324 328.803 164.975 328.311 165.548C327.818 166.121 327.154 166.529 326.319 166.768L328.241 171.113L325.224 171.114ZM323.148 165.08H324.805C325.295 165.08 325.679 164.96 325.957 164.721C326.236 164.481 326.406 164.142 326.468 163.705C326.526 163.288 326.45 162.96 326.239 162.72C326.028 162.479 325.677 162.36 325.188 162.36H323.531L323.148 165.08Z" fill="#DE4A4A"/>
<mask id="mask0_1_31" style="mask-type:luminance" maskUnits="userSpaceOnUse" x="263" y="88" width="86" height="134">
<path d="M322.952 221.552H271.19C266.59 221.552 263.386 217.824 264.032 213.224L280.378 96.9162C281.025 92.3164 285.277 88.5876 289.876 88.5876H341.638C346.238 88.5876 349.442 92.3164 348.796 96.9162L332.45 213.224C331.804 217.824 327.551 221.552 322.952 221.552Z" fill="white"/>
</mask>
<g mask="url(#mask0_1_31)">
<path d="M290.624 121.383H276.939L282.602 81.0864H296.286L290.624 121.383Z" fill="#DE4A4A"/>
<path d="M290.623 121.383H276.939L276.491 124.573C275.96 128.352 278.592 131.415 282.371 131.415C286.15 131.415 289.644 128.352 290.175 124.573L290.623 121.383Z" fill="#E86464"/>
<path d="M304.307 121.383H290.624L296.286 81.0864H309.97L304.307 121.383Z" fill="#E86464"/>
<path d="M304.307 121.383H290.623L290.174 124.573C289.643 128.352 292.276 131.415 296.055 131.415C299.833 131.415 303.327 128.352 303.858 124.573L304.307 121.383Z" fill="#FF9687"/>
<path d="M317.991 121.383H304.307L309.97 81.0864H323.654L317.991 121.383Z" fill="#DE4A4A"/>
<path d="M317.991 121.383H304.307L303.858 124.573C303.327 128.352 305.96 131.415 309.739 131.415C313.518 131.415 317.011 128.352 317.542 124.573L317.991 121.383Z" fill="#E86464"/>
<path d="M331.675 121.383H317.99L323.654 81.0864H337.337L331.675 121.383Z" fill="#E86464"/>
<path d="M331.675 121.383H317.991L317.542 124.573C317.011 128.352 319.644 131.415 323.423 131.415C327.202 131.415 330.695 128.352 331.226 124.573L331.675 121.383Z" fill="#FF9687"/>
<path d="M345.358 121.383H331.675L337.337 81.0864H351.021L345.358 121.383Z" fill="#DE4A4A"/>
<path d="M345.358 121.383H331.674L331.225 124.573C330.694 128.352 333.327 131.415 337.106 131.415C340.884 131.415 344.378 128.352 344.909 124.573L345.358 121.383Z" fill="#E86464"/>
</g>
<path d="M226.077 38.7378C232.984 28.6861 246.386 33.6774 245.155 45.2336C252.129 46.3562 251.788 53.34 250.351 55.8168C256.3 60.4818 251.719 68.6875 243.992 69.5074C236.309 70.3236 231.547 65.4315 233.462 57.8963C229.682 55.9993 231.821 49.4722 231.821 49.4722L226.077 38.7378Z" fill="#494687"/>
<path d="M230.311 34.7328C228.773 35.617 227.319 36.9305 226.077 38.7377L231.821 49.4731C231.821 49.4731 230.845 52.4672 231.386 54.9893C238.822 49.8079 237.887 35.3087 230.311 34.7328Z" fill="#292759"/>
<path d="M214.31 305.85C214.31 305.85 211.139 347.17 212.031 350.936C212.546 353.111 214.086 358.326 215.295 362.345C216.08 364.956 214.123 367.584 211.396 367.584H177.641C176.023 367.584 175.207 365.671 176.295 364.473C177.275 363.393 178.766 362.211 181.015 361.242C186.762 358.764 196.771 354.801 198.059 348.459C199.348 342.118 193.898 314.174 193.7 305.851H214.31V305.85Z" fill="#FF9687"/>
<path d="M215.296 362.348C214.602 360.042 213.8 357.345 213.145 355.051L203.014 359.161C202.012 357.093 199.81 355.257 196.456 354.415C195.264 354.116 194.004 354.354 193.013 355.078C189.318 357.778 184.423 359.772 181.016 361.241C178.767 362.21 177.276 363.393 176.296 364.473C175.208 365.67 176.024 367.583 177.642 367.583H211.397C214.124 367.584 216.081 364.96 215.296 362.348Z" fill="#292759"/>
<path d="M220.849 305.85C220.849 305.85 220.849 341.723 220.849 346.577C220.849 351.432 208.254 358.714 203.949 360.523C202.141 361.283 200.847 362.663 199.956 364.009C198.919 365.572 200.055 367.659 201.929 367.659H234.226C235.827 367.659 236.971 366.11 236.49 364.584C235.159 360.363 233.046 353.053 233.653 350.921C234.524 347.865 241.46 319.746 241.46 305.851H220.849V305.85Z" fill="#FF9687"/>
<path d="M234.227 367.659C235.828 367.659 236.972 366.11 236.491 364.584C235.804 362.406 234.912 359.409 234.29 356.723L225.112 358.369C223.824 356.09 218.869 352.324 214.899 354.04L214.897 354.041C211.025 356.969 206.278 359.546 203.95 360.524C202.142 361.284 200.849 362.664 199.957 364.01C198.92 365.573 200.056 367.66 201.93 367.66H234.227V367.659Z" fill="#494687"/>
<path d="M236.758 143.329H218.801H200.845C174.381 187.938 151.064 300.535 151.064 300.535C161.133 305.338 197.217 307.339 218.801 307.339C240.385 307.339 276.469 305.338 286.539 300.535C286.539 300.535 263.222 187.938 236.758 143.329Z" fill="#3D948D"/>
<path d="M172.178 303.476L171.552 303.416C179.103 225.383 203.405 144.051 203.649 143.24L204.251 143.42C204.006 144.232 179.722 225.506 172.178 303.476Z" fill="#B6D1D6"/>
<path d="M265.424 303.476C257.881 225.506 233.598 144.232 233.353 143.419L233.955 143.239C234.2 144.051 258.501 225.382 266.051 303.415L265.424 303.476Z" fill="#B6D1D6"/>
<path d="M195.08 305.769L194.431 305.738C198.298 226.596 210.747 144.105 210.872 143.28L211.514 143.379C211.389 144.201 198.945 226.661 195.08 305.769Z" fill="#B6D1D6"/>
<path d="M242.525 305.769C238.659 226.66 226.215 144.201 226.091 143.379L226.732 143.28C226.857 144.105 239.306 226.595 243.173 305.738L242.525 305.769Z" fill="#B6D1D6"/>
<path d="M219.109 143.329H218.493V305.753H219.109V143.329Z" fill="#B6D1D6"/>
<path d="M241.217 213.08C252.66 213.691 261.091 202.491 257.403 191.642C251.036 172.908 244.015 155.563 236.758 143.329H218.801H200.845C189.997 161.614 179.679 191.321 171.279 220.016C170.339 223.227 173.716 225.97 176.682 224.421C190.991 216.95 219.111 211.899 241.217 213.08Z" fill="#292759"/>
<path d="M201.907 82.8L193.981 86.3794C192.579 87.013 191.433 88.1015 190.728 89.4689L169.664 130.362H196.276L201.907 82.8Z" fill="#FF9687"/>
<path d="M175.02 119.963L169.664 130.363H196.276L199.185 105.79C193.67 110.158 187.218 112.744 181.813 114.323C178.869 115.182 176.425 117.237 175.02 119.963Z" fill="#292759"/>
<path d="M230.305 120.11H154.937V134.623H230.305V120.11Z" fill="#BF6F39"/>
<path d="M229.169 134.623H156.073V179.197H229.169V134.623Z" fill="#AB5D29"/>
<path d="M229.17 134.623H187.269V179.197H229.17V134.623Z" fill="#BF6F39"/>
<path d="M185.785 120.11H154.937V134.623H185.785V120.11Z" fill="#AB5D29"/>
<path d="M175.315 128.655H165.407C164.695 128.655 164.119 128.078 164.119 127.367C164.119 126.656 164.695 126.079 165.407 126.079H175.315C176.027 126.079 176.603 126.656 176.603 127.367C176.603 128.078 176.028 128.655 175.315 128.655Z" fill="#292759"/>
<path d="M229.169 134.623H156.073V138.064H229.169V134.623Z" fill="#292759"/>
<path d="M235.714 127.341L238.865 106.36L247.846 84.5778L230.307 76.7589L210.571 79.3312L201.907 82.7999C200.284 83.4496 199.124 84.906 198.852 86.6328L198.346 89.8519C190.673 97.6273 189.445 106.78 189.818 113.246H189.817L189.818 113.253C190.103 118.178 191.314 121.545 191.314 121.545L200.845 143.329H236.758C238.542 143.329 239.829 141.62 239.335 139.905L235.714 127.341Z" fill="#3D948D"/>
<path d="M227.621 71.4281L228.548 57.8963H214.877L213.625 76.1593C213.546 77.3065 212.841 78.3164 211.791 78.7855L210.571 79.3302C210.571 79.3302 209.735 85.9141 216.742 85.9141C223.75 85.9141 228.848 79.7747 230.305 76.758C228.504 75.6061 227.475 73.5616 227.621 71.4281Z" fill="#FF9687"/>
<path d="M220.369 72.7766C226.078 70.1883 226.078 62.4422 226.078 62.4422L214.458 64.0187L214.165 68.2988C213.936 71.6286 217.329 74.1545 220.369 72.7766Z" fill="#0E0C33"/>
<path d="M196.429 99.1517H225.192C227.268 99.1517 229.036 100.666 229.354 102.719L233.336 128.381L244.124 203.713C244.497 206.316 242.478 208.645 239.849 208.645H177.625C175.293 208.645 173.568 206.476 174.101 204.207C176.86 192.464 184.97 160.217 194.889 141.66C190.693 133.395 188.771 122.961 187.895 112.049C187.791 110.752 188.132 109.458 188.845 108.37L194.044 100.441C194.571 99.6359 195.468 99.1517 196.429 99.1517Z" fill="#FFE6D6"/>
<path d="M191.519 168.488H226.003L223.913 177.609C221.859 186.574 213.327 193.499 204.337 193.499C194.329 193.499 187.739 184.983 190.026 175.004L191.519 168.488Z" fill="#FCB341"/>
<path d="M210.571 79.3312L202.32 102.32H196.275L204.672 81.6926L210.571 79.3312Z" fill="#FFE6D6"/>
<path d="M235.105 78.8981L226.345 102.32H220.3L230.644 76.9093L235.105 78.8981Z" fill="#FFE6D6"/>
<path d="M248.245 84.7547C252.371 86.7066 254.22 91.5674 252.434 95.7681L234.691 137.496C232.465 142.73 227.902 146.608 222.378 147.958L173.286 159.965L165.408 165.152C164.427 165.798 163.184 166.011 162.091 165.583C161.667 165.418 161.27 165.16 160.987 164.764C158.088 165.614 157.16 163.459 157.16 163.459C157.16 163.459 153.444 163.422 153.64 161.56C151.757 162.368 149.264 161.328 150.276 159.965C151.288 158.603 164.071 151.27 164.071 151.27L163.774 149.684C163.774 149.684 166.18 148.653 172.196 150.18L218.373 130.064L236.853 88.9535C238.805 84.6128 243.941 82.7196 248.245 84.7547Z" fill="#FF9687"/>
<path d="M196.275 102.32H202.32L203.456 99.1517H207.021L204.311 102.383C203.449 103.412 202.069 103.85 200.772 103.508L196.275 102.32Z" fill="#FCB341"/>
<path d="M227.762 103.609L229.214 102.157C228.903 101.119 228.218 100.257 227.314 99.7286L226.345 102.321H220.3L225.596 104.116C226.355 104.372 227.195 104.176 227.762 103.609Z" fill="#FCB341"/>
<path d="M200.016 101.386C200.677 101.386 201.213 100.851 201.213 100.19C201.213 99.5294 200.677 98.9938 200.016 98.9938C199.356 98.9938 198.82 99.5294 198.82 100.19C198.82 100.851 199.356 101.386 200.016 101.386Z" fill="#292759"/>
<path d="M223.561 101.386C224.222 101.386 224.757 100.851 224.757 100.19C224.757 99.5294 224.222 98.9938 223.561 98.9938C222.9 98.9938 222.365 99.5294 222.365 100.19C222.365 100.851 222.9 101.386 223.561 101.386Z" fill="#292759"/>
<path d="M206.038 47.6839L206.893 58.7654C207.3 64.0385 211.697 68.1097 216.987 68.1097C222.318 68.1097 226.737 63.9733 227.087 58.6529L227.449 53.1726C225.15 51.9792 223.331 50.2486 222.261 47.6839H206.038Z" fill="#FF9687"/>
<path d="M219.541 60.6568C220.884 60.6568 221.973 59.5678 221.973 58.2245C221.973 56.8812 220.884 55.7922 219.541 55.7922C218.197 55.7922 217.108 56.8812 217.108 58.2245C217.108 59.5678 218.197 60.6568 219.541 60.6568Z" fill="#E86464"/>
<path d="M214.299 37.4658L214.726 37.2209C219.358 34.5682 225.188 35.3115 229.005 39.0404C232.824 42.7702 233.703 48.5823 231.159 53.2757L229.681 55.9993C229.681 55.9993 223.002 52.7736 221.727 48.4963L221.523 48.9682C221.055 50.0481 219.99 50.7479 218.813 50.7479H206.131C204.237 50.7479 202.538 49.5025 202.037 47.6763C199.978 40.1686 205.617 34.7489 214.299 37.4658Z" fill="#494687"/>
<path d="M209.645 55.36C210.27 55.36 210.777 54.8532 210.777 54.228C210.777 53.6029 210.27 53.0961 209.645 53.0961C209.02 53.0961 208.513 53.6029 208.513 54.228C208.513 54.8532 209.02 55.36 209.645 55.36Z" fill="#0E0C33"/>
<path d="M217.616 55.36C218.241 55.36 218.748 54.8532 218.748 54.228C218.748 53.6029 218.241 53.0961 217.616 53.0961C216.991 53.0961 216.484 53.6029 216.484 54.228C216.484 54.8532 216.991 55.36 217.616 55.36Z" fill="#0E0C33"/>
<path d="M213.12 52.8738L213.789 54.5089L212.963 57.2618C212.82 57.7422 213.179 58.2245 213.68 58.2245H215.647" stroke="#0E0C33" stroke-width="0.75" stroke-miterlimit="10" stroke-linecap="round" stroke-linejoin="round"/>
<path d="M212.006 59.8965C212.006 59.8965 215.277 60.9301 218.509 58.6851" stroke="#0E0C33" stroke-width="0.75" stroke-miterlimit="10" stroke-linecap="round" stroke-linejoin="round"/>
<path d="M218.026 58.2245L218.917 59.191" stroke="#0E0C33" stroke-width="0.75" stroke-miterlimit="10" stroke-linecap="round" stroke-linejoin="round"/>
<path d="M206.038 44.6984C206.038 44.6984 204.752 47.3737 206.038 49.6036" stroke="#B6D1D6" stroke-width="0.75" stroke-miterlimit="10" stroke-linecap="round" stroke-linejoin="round"/>
<path d="M209.645 44.6984C209.645 44.6984 208.359 47.3737 209.645 49.6036" stroke="#B6D1D6" stroke-width="0.75" stroke-miterlimit="10" stroke-linecap="round" stroke-linejoin="round"/>
<path d="M213.251 44.6984C213.251 44.6984 211.965 47.3737 213.251 49.6036" stroke="#B6D1D6" stroke-width="0.75" stroke-miterlimit="10" stroke-linecap="round" stroke-linejoin="round"/>
<path d="M216.858 44.6984C216.858 44.6984 215.572 47.3737 216.858 49.6036" stroke="#B6D1D6" stroke-width="0.75" stroke-miterlimit="10" stroke-linecap="round" stroke-linejoin="round"/>
<path d="M225.166 58.6349C224.029 57.1805 224.287 55.0801 225.741 53.9434L227.264 52.7537C228.718 51.617 230.819 51.8752 231.956 53.3296C233.092 54.7841 232.834 56.8845 231.38 58.0212L229.857 59.2108C228.403 60.3475 226.302 60.0894 225.166 58.6349Z" fill="#FF9687"/>
<path d="M225.788 56.8939L228.164 55.1832C228.905 54.6498 229.887 54.5931 230.684 55.0375L231.309 55.3865" stroke="#0E0C33" stroke-width="0.75" stroke-miterlimit="10" stroke-linecap="round" stroke-linejoin="round"/>
<path d="M229.682 56.6395L227.918 55.36" stroke="#0E0C33" stroke-width="0.75" stroke-miterlimit="10" stroke-linecap="round" stroke-linejoin="round"/>
<path d="M227.439 61.4086C228.191 61.4086 228.801 60.7989 228.801 60.0468C228.801 59.2947 228.191 58.685 227.439 58.685C226.687 58.685 226.077 59.2947 226.077 60.0468C226.077 60.7989 226.687 61.4086 227.439 61.4086Z" fill="#FFE6D6"/>
<path d="M81.3656 136.625H0V152.293H81.3656V136.625Z" fill="#86B393"/>
<path d="M80.1379 152.293H1.22545V224.307H80.1379V152.293Z" fill="#86B393"/>
<path d="M35.0733 152.293H1.22545V224.307H35.0733V152.293Z" fill="#74A382"/>
<path d="M33.3032 136.625H0V152.293H33.3032V136.625Z" fill="#74A382"/>
<path d="M21.9992 145.85H11.3016C10.5338 145.85 9.91054 145.228 9.91054 144.459C9.91054 143.691 10.5328 143.068 11.3016 143.068H21.9992C22.7671 143.068 23.3903 143.69 23.3903 144.459C23.3903 145.227 22.768 145.85 21.9992 145.85Z" fill="#292759"/>
<path d="M80.1379 152.293H1.22545V155.055H80.1379V152.293Z" fill="#292759"/>
<path d="M156.119 136.625H74.7532V152.293H156.119V136.625Z" fill="#86B393"/>
<path d="M154.893 152.293H75.9801V224.307H154.893V152.293Z" fill="#86B393"/>
<path d="M109.828 152.293H75.9801V224.307H109.828V152.293Z" fill="#74A382"/>
<path d="M108.056 136.625H74.7532V152.293H108.056V136.625Z" fill="#74A382"/>
<path d="M96.7534 145.85H86.0558C85.288 145.85 84.6647 145.228 84.6647 144.459C84.6647 143.691 85.287 143.068 86.0558 143.068H96.7534C97.5213 143.068 98.1445 143.69 98.1445 144.459C98.1436 145.227 97.5213 145.85 96.7534 145.85Z" fill="#292759"/>
<path d="M154.893 152.293H75.9801V155.055H154.893V152.293Z" fill="#292759"/>
<path d="M140.876 106.031H59.5101V121.699H140.876V106.031Z" fill="#BF6F39"/>
<path d="M139.65 121.699H60.737V224.308H139.65V121.699Z" fill="#BF6F39"/>
<path d="M94.5849 121.699H60.737V224.308H94.5849V121.699Z" fill="#AB5D29"/>
<path d="M92.8133 106.031H59.5101V121.699H92.8133V106.031Z" fill="#AB5D29"/>
<path d="M81.5103 115.255H70.8127C70.0448 115.255 69.4216 114.633 69.4216 113.864C69.4216 113.096 70.0439 112.473 70.8127 112.473H81.5103C82.2782 112.473 82.9014 113.095 82.9014 113.864C82.9005 114.633 82.2782 115.255 81.5103 115.255Z" fill="#292759"/>
<path d="M104.217 106.031V140.962C104.217 142.919 104.596 144.854 105.327 146.626C105.717 147.572 106.899 147.572 107.29 146.626L107.612 145.843L107.935 146.626C108.324 147.572 109.506 147.572 109.897 146.626L110.219 145.843L110.542 146.626C110.932 147.572 112.114 147.572 112.504 146.626L112.828 145.843L113.15 146.626C113.54 147.572 114.722 147.572 115.112 146.626L115.435 145.843L115.757 146.626C116.147 147.572 117.329 147.572 117.72 146.626L118.043 145.843L118.366 146.626C118.755 147.572 119.937 147.572 120.328 146.626L120.65 145.843L120.976 146.626C121.365 147.571 122.547 147.571 122.938 146.626L123.261 145.843L123.584 146.626C123.973 147.571 125.156 147.571 125.546 146.626C126.277 144.853 126.656 142.919 126.656 140.961V106.03H104.217V106.031Z" fill="#FCB747"/>
<path d="M139.65 121.699H60.737V124.462H139.65V121.699Z" fill="#292759"/>
<path d="M100.193 160.594L139.649 210.329V224.308H98.9667V167.038L100.193 160.594Z" fill="#292759"/>
<path d="M100.193 160.594H18.8276V176.262H100.193V160.594Z" fill="#BF6F39"/>
<path d="M98.9656 176.263H20.0531V224.383H98.9656V176.263Z" fill="#BF6F39"/>
<path d="M53.9009 176.263H20.0531V224.383H53.9009V176.263Z" fill="#AB5D29"/>
<path d="M52.1308 160.594H18.8276V176.262H52.1308V160.594Z" fill="#AB5D29"/>
<path d="M40.8268 169.819H30.1293C29.3614 169.819 28.7382 169.197 28.7382 168.428C28.7382 167.66 29.3604 167.037 30.1293 167.037H40.8268C41.5947 167.037 42.2179 167.659 42.2179 168.428C42.2179 169.197 41.5947 169.819 40.8268 169.819Z" fill="#292759"/>
<path d="M63.5347 160.594V195.525C63.5347 197.482 63.9139 199.417 64.6449 201.19C65.0345 202.135 66.2166 202.135 66.6072 201.19L66.9297 200.407L67.2531 201.19C67.6427 202.135 68.8248 202.135 69.2154 201.19L69.5379 200.407L69.8604 201.19C70.25 202.135 71.4321 202.135 71.8226 201.19L72.1461 200.407L72.4686 201.19C72.8582 202.135 74.0403 202.135 74.4309 201.19L74.7543 200.407L75.0767 201.19C75.4664 202.135 76.6485 202.135 77.039 201.19L77.3625 200.407L77.6849 201.19C78.0746 202.135 79.2567 202.135 79.6472 201.19L79.9697 200.407L80.2922 201.19C80.6818 202.135 81.8639 202.135 82.2545 201.19L82.577 200.407L82.9004 201.19C83.29 202.135 84.4721 202.135 84.8627 201.19C85.5937 199.417 85.9729 197.483 85.9729 195.525V160.594H63.5347Z" fill="#FCB747"/>
<path d="M98.9656 176.263H20.0531V179.026H98.9656V176.263Z" fill="#292759"/>
</svg>
