<svg width="298" height="370" viewBox="0 0 298 370" fill="none" xmlns="http://www.w3.org/2000/svg">
<path d="M134.342 321.233L136.797 348.812L160.02 349.14L159.34 318.043L134.342 321.233Z" fill="#E86464"/>
<path d="M133.753 343.976C134.212 345.546 134.781 348.075 134.256 349.618C133.454 351.983 131.382 355.359 131.445 357.881C131.508 360.403 133.515 368.615 141.924 368.165C151.204 367.668 154.668 364.429 159.166 364.683C163.459 364.924 163.905 367.412 174.031 369.407C184.157 371.403 192.524 364.956 192.013 361.051C191.644 358.236 187.945 351.608 179.207 351.937C175.911 352.06 159.758 336.031 159.758 336.031C159.758 336.031 155.564 338.277 158.408 340.567C161.251 342.857 155.039 348.304 148.315 346.457C143.679 345.183 143.068 344.673 138.551 343.861C137.611 343.692 133.51 343.141 133.753 343.976Z" fill="#1A3047"/>
<path d="M178.854 364.732C175.582 364.732 171.767 363.967 169.895 363.354C165.444 361.895 158.33 360.948 152.929 363.078C146.816 365.484 132.186 356.57 131.568 356.189L131.892 355.66C132.041 355.752 146.883 364.794 152.703 362.499C159.857 359.678 168.441 362.224 170.089 362.763C173.79 363.974 181.933 365.092 183.67 362.82C184.448 361.801 184.265 360.813 184.032 359.56C183.739 357.986 183.377 356.028 184.993 353.447L185.518 353.777C184.03 356.154 184.355 357.903 184.641 359.447C184.879 360.74 185.108 361.959 184.162 363.196C183.294 364.335 181.216 364.732 178.854 364.732Z" fill="#2E4860"/>
<path d="M172.072 352.787C171.569 352.403 159.769 343.381 158.719 341.533L159.26 341.226C160.078 342.67 169.059 349.705 172.447 352.294L172.072 352.787Z" fill="#2E4860"/>
<path d="M132.714 336.962L131.499 325.825L163.144 323.313L161.664 334.151C161.664 334.151 144.744 342.024 132.714 336.962Z" fill="#E7B119"/>
<path d="M142.729 138.615C149.283 146.863 143.73 150.405 149.674 160.123C164.135 183.768 175.727 211.406 179.254 241.31C181.752 262.483 180.598 301.014 175.35 314.108C172.173 322.038 166.056 330.685 153.686 331.116C132.906 331.839 123.126 330.345 126.034 313.957C128.378 300.746 135.384 264.349 133.815 249.056C133.17 242.775 133.035 235.243 130.946 228.689C123.877 206.506 109.224 184.019 92.705 160.184L142.729 138.615Z" fill="#E7B119"/>
<path d="M144.804 331.671C140.289 331.671 137.317 331.259 135.099 330.952C133.919 330.788 132.899 330.646 131.974 330.612L131.998 329.992C132.954 330.028 133.988 330.171 135.184 330.336C138.482 330.795 143.468 331.486 152.789 330.677L152.841 331.295C149.711 331.568 147.065 331.671 144.804 331.671Z" fill="#BC8B13"/>
<path d="M139.984 322.454L139.403 322.238C140.299 319.826 152.55 262.934 143.823 244.312C143.527 243.677 142.884 243.328 142.205 242.96C141.115 242.369 139.878 241.699 140.34 239.7C140.819 237.631 142.736 236.957 144.494 237.168C142.558 230.225 128.157 199.283 123.515 192.202L124.031 191.862C128.803 199.137 143.847 231.541 145.215 237.483L145.324 237.96L144.845 237.856C143.223 237.501 141.378 237.976 140.946 239.839C140.589 241.378 141.433 241.835 142.499 242.415C143.236 242.815 144 243.229 144.383 244.049C153.386 263.255 140.922 319.932 139.984 322.454Z" fill="#BC8B13"/>
<path d="M30.258 296.9L14.855 313.104L29.8725 334.203L42.9865 314.381L30.258 296.9Z" fill="#E86464"/>
<path d="M16.9558 307.79C15.9601 309.088 14.2572 311.042 12.7027 311.532C10.3212 312.282 6.37378 312.609 4.37668 314.151C2.37958 315.693 -3.05514 322.168 2.28034 328.682C8.16784 335.872 12.8281 336.749 15.2837 340.527C17.6275 344.132 15.8847 345.963 20.2633 355.308C24.6419 364.654 34.787 367.59 37.635 364.87C39.688 362.908 42.8439 356.006 37.4126 349.153C35.3642 346.568 38.7391 324.063 38.7391 324.063C38.7391 324.063 34.4483 322.009 34.2818 325.656C34.1153 329.304 24.7731 327.039 23.5641 321C22.6197 316.285 21.9 315.714 19.8836 311.591C19.465 310.732 17.485 307.1 16.9558 307.79Z" fill="#1A3047"/>
<path d="M30.5395 357.521C30.4391 357.521 30.3353 357.517 30.2304 357.507C26.8281 357.198 23.3209 348.8 22.4986 345.512C21.6729 342.207 19.2458 338.597 14.63 333.807C10.1009 329.106 9.02536 313.043 8.98316 312.362L9.60133 312.322C9.61159 312.487 10.7042 328.839 15.0782 333.378C19.7716 338.252 22.2454 341.948 23.1008 345.363C24.0441 349.139 27.436 356.633 30.2863 356.89C31.5728 357.01 32.4316 356.243 33.5266 355.275C34.8758 354.086 36.5524 352.604 39.5931 352.597V353.218C36.7896 353.223 35.2739 354.561 33.9383 355.741C32.9027 356.654 31.9207 357.521 30.5395 357.521Z" fill="#2E4860"/>
<path d="M32.2893 340.293L31.6712 340.257C31.8913 336.491 32.7741 324.169 34.8544 323.691L34.9924 324.296C33.8747 324.552 32.7398 332.631 32.2893 340.293Z" fill="#2E4860"/>
<path d="M109.898 146.341C115.857 180.542 118.43 222.696 103.43 256.512C94.4299 276.802 59.1015 317.679 57.8548 318.651C51.2248 323.816 36.384 315.222 30.3334 309.39C30.3038 309.361 30.2752 309.334 30.2456 309.306C15.7196 295.256 21.0403 287.198 31.0679 277.247C39.1567 269.22 48.3278 258.944 56.5751 245.332C61.8787 236.58 66.5161 227.717 68.0684 217.044C70.9015 197.566 67.3476 174.816 64.0183 153.547L109.898 146.341Z" fill="#E7B119"/>
<path d="M30.5432 293.352L29.9729 293.107C31.0632 290.565 33.6192 288.664 35.6745 287.137L35.8102 287.035C39.0266 284.642 41.7753 281.497 44.4339 278.456C45.5311 277.201 46.6648 275.906 47.8031 274.693C50.2188 272.126 52.2455 269.147 54.2027 266.266C56.2819 263.209 58.4307 260.048 61.0767 257.318C65.0447 253.225 68.7937 249.357 72.1618 244.375C74.5763 240.803 73.7494 239.363 72.253 236.749C71.9119 236.153 71.5253 235.48 71.1433 234.718C70.3004 233.041 70.3802 230.916 71.3291 229.667C72.0203 228.757 73.1084 228.4 74.3755 228.642C75.2948 228.822 76.1388 229.495 76.9577 230.147C77.7858 230.805 78.5694 231.432 79.1237 231.253C79.5194 231.13 79.8696 230.586 80.1604 229.635C80.5379 228.405 80.2254 226.752 79.922 225.154C79.7566 224.27 79.5992 223.435 79.565 222.702C79.4658 220.588 79.5023 218.423 79.5365 216.328C79.5548 215.237 79.573 214.146 79.573 213.063V212.721C79.573 204.709 79.573 196.426 79.8536 188.292C79.9904 184.327 79.7726 180.287 79.565 176.382C79.3483 172.362 79.1248 168.206 79.2879 164.133L79.9061 164.157C79.7464 168.202 79.9688 172.343 80.1832 176.347C80.3953 180.266 80.6121 184.32 80.4763 188.314C80.1958 196.436 80.1957 204.715 80.1957 212.719V213.062C80.1957 214.15 80.1752 215.242 80.1569 216.338C80.1227 218.422 80.0862 220.578 80.1832 222.673C80.2151 223.363 80.3714 224.177 80.5322 225.039C80.8493 226.712 81.1744 228.441 80.7546 229.817C80.3885 231.009 79.9277 231.654 79.3061 231.846C78.4336 232.111 77.528 231.395 76.5711 230.632C75.8138 230.027 75.0279 229.401 74.2603 229.251C73.2156 229.051 72.3739 229.32 71.8241 230.041C71.0246 231.095 70.9722 232.986 71.6987 234.439C72.0739 235.186 72.456 235.851 72.7914 236.439C74.306 239.083 75.3085 240.832 72.6761 244.723C69.2785 249.751 65.5101 253.637 61.5227 257.752C58.9143 260.442 56.7814 263.581 54.7171 266.616C52.745 269.515 50.7057 272.515 48.257 275.119C47.1233 276.322 45.9942 277.614 44.9016 278.864C42.2213 281.931 39.4497 285.102 36.1832 287.532L36.0463 287.634C34.0503 289.118 31.5696 290.964 30.5432 293.352Z" fill="#BC8B13"/>
<path d="M20.861 303.844L30.2579 295.238L47.0731 313.097L40.9426 321.27C40.9426 321.27 23.8926 316.538 20.861 303.844Z" fill="#E7B119"/>
<path d="M42.8793 316.181C35.5764 313.496 26.6026 305.924 24.5177 302.843L25.0309 302.495C27.0771 305.518 35.9015 312.955 43.0926 315.599L42.8793 316.181Z" fill="#BC8B13"/>
<path d="M114.277 194.034C113.93 192.215 113.701 190.568 113.481 188.974C113.17 186.718 112.876 184.587 112.285 182.443L112.883 182.279C113.482 184.462 113.781 186.612 114.095 188.89C114.315 190.477 114.542 192.114 114.888 193.918L114.277 194.034Z" fill="#BC8B13"/>
<path d="M110.645 178.218L110.508 177.611L116.546 176.24L114.573 160.167L115.187 160.091L117.229 176.72L110.645 178.218Z" fill="#BC8B13"/>
<path d="M263.978 122.497C263.909 122.137 257.008 86.4508 245.529 79.5664C243.609 78.4133 241.64 78.1385 239.683 78.7498L239.497 78.1579C241.63 77.4918 243.767 77.7849 245.849 79.0349C257.566 86.0618 264.307 120.902 264.588 122.383L263.978 122.497Z" fill="#433E3F"/>
<path d="M221.587 122.763C221.547 122.443 217.472 90.632 206.834 82.9242C204.856 81.4894 202.747 80.9807 200.565 81.405L200.448 80.7971C202.8 80.334 205.076 80.8849 207.198 82.4212C218.053 90.2876 222.037 121.369 222.202 122.687L221.587 122.763Z" fill="#433E3F"/>
<path d="M172.807 90.3822C172.807 90.3822 177.698 111.103 164.363 125.103C164.363 125.103 162.86 106.683 172.807 90.3822Z" fill="#33211E"/>
<path d="M233.291 73.1406C233.522 73.1143 244.108 70.9883 244.108 73.4097C244.108 80.5815 213.271 85.9774 213.271 85.9774C213.271 85.9774 226.042 73.9503 233.291 73.1406Z" fill="#E86464"/>
<path d="M211.2 85.5828C211.2 84.8368 236.56 76.0512 242.674 77.7301C245.691 78.5581 246.947 83.1694 248.841 87.6266C251.011 92.7294 253.064 98.4687 251.048 101.837C247.271 108.147 217.037 111.615 217.037 111.615L211.2 85.5828Z" fill="#E86464"/>
<path d="M107.973 77.7336C114.703 87.2788 138.432 118.829 160.971 124.324C161.805 124.523 162.995 124.802 164.364 125.103C163.797 111.23 169.014 98.025 172.807 90.3822C167.067 88.8356 148.467 71.6373 137.853 56.6414L107.973 77.7336Z" fill="#C53A1E"/>
<path d="M152.944 121.35L145.549 90.3891L159.486 123.923L152.944 121.35Z" fill="#433E3F"/>
<path d="M211.2 85.5828L217.036 111.615C217.036 111.615 185.443 122.002 164.361 121.024C164.361 121.024 164.262 106.19 171.361 93.4343C171.361 93.4343 200.994 91.9333 211.2 85.5828Z" fill="#E86464"/>
<path d="M202.184 222.071L168.761 225.415L169.58 129.465L221.894 122.726L202.184 222.071Z" fill="#1A3047"/>
<path d="M266.139 213.832L202.184 222.071L174.528 128.828L238.484 120.588L266.139 213.832Z" fill="#2D4B74"/>
<path d="M191.731 126.625C191.506 125.322 186.337 94.5657 194.458 84.1503C196.053 82.1053 198.08 80.975 200.482 80.7914L200.53 81.4095C198.311 81.5795 196.431 82.6288 194.946 84.5312C186.993 94.7311 192.285 126.202 192.34 126.519L191.731 126.625Z" fill="#433E3F"/>
<path d="M278.221 199.442L230.045 207.267L218.612 128.323L261.622 122.782L278.221 199.442Z" fill="#992511"/>
<path d="M298 197.685L245.419 204.459L222.681 127.798L275.262 121.024L298 197.685Z" fill="#C53A1E"/>
<path d="M233.112 126.516C232.639 125.108 221.628 91.979 230.577 85.828L230.928 86.339C222.363 92.2265 233.587 125.976 233.702 126.317L233.112 126.516Z" fill="#433E3F"/>
<path d="M142.73 149.945L74.7223 163.579L68.4036 58.1446C68.4036 58.1446 74.4382 54.3455 88.6004 52.2731C92.4406 51.704 96.8706 51.2774 101.949 51.0744C107.781 50.8508 114.588 51.5614 119.262 52.1921C122.655 52.6597 124.93 53.0863 124.93 53.0863L142.73 149.945Z" fill="white"/>
<path d="M119.261 52.191C116.05 56.3357 111.194 61.0496 105.566 61.4568C97.9461 62.0259 91.8716 56.2753 88.6005 52.272C92.4407 51.7028 96.8706 51.2763 101.949 51.0732C107.781 50.8497 114.588 51.5603 119.261 52.191Z" fill="#E86464"/>
<path d="M114.88 51.1246C114.88 51.1246 131.298 185.743 134.342 185.928C152.414 187.022 166.142 179.581 165.625 177.915C155.183 144.209 142.731 69.9858 142.731 69.9858C142.731 69.9858 142.162 65.0313 140.338 60.5101C137.816 54.2542 131.333 51.0904 114.88 51.1246Z" fill="#C53A1E"/>
<path d="M136.621 64.3447C137.833 72.9615 139.166 81.5578 140.518 90.1507L144.707 115.908L149.151 141.622C150.678 150.186 152.223 158.747 153.89 167.287C152.678 158.67 151.345 150.074 149.995 141.481L145.803 115.724L141.358 90.0104C139.831 81.4449 138.286 72.8851 136.621 64.3447Z" fill="#EA8978"/>
<path d="M125.461 65.7441C126.673 74.3609 128.006 82.9572 129.358 91.5501L133.547 117.307L137.991 143.022C139.518 151.585 141.063 160.146 142.73 168.686C141.518 160.07 140.185 151.473 138.835 142.88L134.643 117.123L130.198 91.4098C128.67 82.8455 127.126 74.2845 125.461 65.7441Z" fill="#EA8978"/>
<path d="M90.7466 51.1246C90.7466 51.1246 113.968 152.772 110.577 191.785C95.9623 204.603 61.8121 210.042 61.8121 210.042L58.3699 77.802C58.3699 77.802 51.4856 53.0943 90.7466 51.1246Z" fill="#C53A1E"/>
<path d="M82.8291 69.1179C84.0415 77.7347 85.3748 86.331 86.7263 94.9239L90.9156 120.681L95.3591 146.396C96.8863 154.959 98.4306 163.52 100.098 172.06C98.8868 163.443 97.5535 154.847 96.2031 146.254L92.0116 120.497L87.5669 94.7836C86.0397 86.2192 84.4943 77.6583 82.8291 69.1179Z" fill="#EA8978"/>
<path d="M71.9791 122.384L75.4897 119.966C75.4897 119.966 75.8684 109.069 83.9561 92.8173C78.4963 88.2391 59.6612 103.075 59.6612 103.075L71.9791 122.384Z" fill="#433E3F"/>
<path d="M71.1385 117.216C71.1385 117.216 41.4638 122.533 34.2487 117.193C34.2487 117.193 48.6253 108.625 71.1385 117.216Z" fill="#33211E"/>
<path d="M33.1893 153.509L106.828 101.047C110.208 98.6398 114.153 97.1479 118.281 96.7168L118.289 96.7157C126.901 95.8169 135.331 99.6195 140.357 106.67L146.495 115.28C151.521 122.331 152.367 131.54 148.71 139.388C146.954 143.154 144.252 146.401 140.868 148.812L67.1195 201.353L33.1893 153.509ZM131.442 113.968C128.873 115.799 128.276 119.365 130.106 121.934C131.938 124.504 135.503 125.102 138.073 123.27C140.641 121.438 141.245 117.868 139.414 115.3C137.582 112.73 134.01 112.136 131.442 113.968Z" fill="#E7B119"/>
<path d="M67.8765 196.886L68.2494 196.621L139.012 146.207C141.94 144.121 144.291 141.296 145.809 138.038C148.826 131.565 148.341 124.099 144.513 118.067L144.501 118.047L137.752 108.529C135.149 104.88 131.363 102.122 127.089 100.765C124.35 99.8943 121.511 99.6024 118.649 99.8978L118.613 99.9012C115.043 100.273 111.61 101.572 108.685 103.655L37.6474 154.263L67.8765 196.886ZM143.748 118.566C147.402 124.332 147.863 131.465 144.981 137.651C143.529 140.767 141.282 143.468 138.482 145.463L68.092 195.61L38.9214 154.479L109.216 104.4C112.011 102.407 115.294 101.166 118.708 100.81L118.745 100.807C121.479 100.525 124.193 100.805 126.812 101.636C130.899 102.934 134.519 105.571 137.007 109.061L137.781 110.147L143.748 118.566Z" fill="#FFE5C5"/>
<path d="M172.342 91.0426C172.841 89.7458 172.856 88.6132 172.386 87.5776C171.94 86.5967 171.236 86.031 170.172 85.7984C163.823 84.4126 146.796 96.8195 138.044 103.892C137.567 103.447 137.093 102.99 136.622 102.539C144.154 96.4283 162.827 82.2045 170.586 83.8993C172.255 84.2632 173.456 85.2304 174.156 86.7735C174.843 88.287 174.844 89.9579 174.156 91.7406C169.972 102.596 140.279 115.562 139.016 116.108C138.716 116.238 138.385 116.205 138.125 116.047C137.959 115.946 137.822 115.795 137.739 115.603C137.525 115.11 137.751 114.538 138.244 114.325C138.544 114.196 168.448 101.146 172.342 91.0426Z" fill="#131E07"/>
<path d="M114.264 159.424C119.372 155.751 119.927 150.35 116.786 145.982C113.644 141.614 108.35 140.423 103.243 144.095C98.0908 147.8 97.5764 153.167 100.717 157.535C103.857 161.904 109.113 163.127 114.264 159.424ZM104.198 129.344L99.1903 122.379L84.5092 162.811L89.5173 169.777L104.198 129.344ZM107.449 149.946C110.208 147.963 111.685 148.274 112.336 149.181C112.988 150.086 112.816 151.59 110.056 153.573C107.295 155.559 105.818 155.242 105.166 154.335C104.515 153.429 104.688 151.931 107.449 149.946ZM85.4672 148.061C90.5757 144.387 91.1335 138.989 87.9924 134.621C84.8525 130.252 79.557 129.062 74.4484 132.735C69.2989 136.439 68.7821 141.807 71.9232 146.175C75.0631 150.544 80.3165 151.764 85.4672 148.061ZM78.6548 138.586C81.416 136.601 82.8907 136.915 83.542 137.82C84.1932 138.725 84.021 140.224 81.2598 142.209C78.4996 144.194 77.0237 143.88 76.3725 142.975C75.7212 142.071 75.8935 140.572 78.6548 138.586Z" fill="white"/>
<path d="M88.4121 152.52C89.109 152.253 104.512 176.671 105.132 182.982C103.457 185.036 103.457 185.036 99.9727 188.401C95.9842 192.252 91.3604 196.224 87.4928 195.546C80.248 194.277 66.192 167.286 66.192 167.286L88.4121 152.52Z" fill="#E86464"/>
<path d="M91.1345 194.995C90.2676 192.212 86.3852 186.156 86.3464 186.096L86.8677 185.76C87.0297 186.012 90.8356 191.948 91.7287 194.812L91.1345 194.995Z" fill="#433E3F"/>
<path d="M96.526 191.877C95.6592 189.092 91.779 183.038 91.7403 182.977L92.2615 182.642C92.4235 182.893 96.2295 188.828 97.1203 191.694L96.526 191.877Z" fill="#433E3F"/>
<path d="M100.842 187.561C99.9751 184.777 96.0949 178.722 96.0561 178.662L96.5774 178.326C96.7394 178.578 100.543 184.513 101.436 187.378L100.842 187.561Z" fill="#433E3F"/>
<path d="M96.3161 165.704C96.3161 165.704 111.468 171.646 110.535 175.442C110.095 177.235 101.077 174.935 101.077 174.935L96.3161 165.704Z" fill="#E86464"/>
<path d="M34.2487 117.193C50.9805 110.43 65.2202 114.734 71.1385 117.216C72.2289 108.15 76.9907 100.117 85.6679 90.8726L64.8199 59.1335C57.0322 67.4105 37.2084 94.487 34.2487 117.193Z" fill="#C53A1E"/>
<path d="M67.9152 116.014C67.9152 116.014 66.4702 117.735 67.9152 121.089C69.3603 124.443 88.412 152.52 88.412 152.52L66.1919 167.286C66.1919 167.286 40.0277 131.516 38.9214 123.71C37.8151 115.904 38.9214 115.561 38.9214 115.561C38.9214 115.561 51.8016 110.806 67.9152 116.014Z" fill="#E86464"/>
<path d="M113.584 53.0943H92.7028L94.2266 33.0526H111.504L113.584 53.0943Z" fill="#E86464"/>
<path d="M115.748 38.7177C124.501 35.8492 118.188 4.2561 109.067 2.56353C101.395 1.13899 85.4479 3.76794 87.6822 22.4387C89.3508 36.3693 106.994 41.5862 115.748 38.7177Z" fill="#E86464"/>
<path d="M116.018 29.9214C116.018 29.9214 112.744 30.9561 109.508 28.7086" stroke="#0E0C33" stroke-width="0.75" stroke-miterlimit="10" stroke-linecap="round" stroke-linejoin="round"/>
<path d="M109.992 28.2475L109.099 29.2151" stroke="#0E0C33" stroke-width="0.75" stroke-miterlimit="10" stroke-linecap="round" stroke-linejoin="round"/>
<path d="M108.222 18.3156C108.222 18.8893 107.853 19.3558 107.398 19.3558C106.943 19.3558 106.573 18.8904 106.573 18.3156C106.573 17.7408 106.943 17.2754 107.398 17.2754C107.853 17.2754 108.222 17.7408 108.222 18.3156Z" fill="#0E0C33"/>
<path d="M116.203 18.3156C116.203 18.8893 115.833 19.3558 115.378 19.3558C114.923 19.3558 114.553 18.8904 114.553 18.3156C114.553 17.7408 114.923 17.2754 115.378 17.2754C115.833 17.2754 116.203 17.7408 116.203 18.3156Z" fill="#0E0C33"/>
<path d="M110.608 24.4574L110.431 23.8632C110.431 23.8632 112.741 23.4371 112.978 23.0934C113.215 22.7496 111.461 18.4125 111.461 18.4125L112.051 18.2198C112.051 18.2198 114.16 23.0323 113.762 23.5062C113.363 23.9802 110.608 24.4574 110.608 24.4574Z" fill="#0E0C33"/>
<path d="M112.602 43.6346L112.161 39.3792C112.161 39.3792 105.54 39.1659 100.153 37.6832C102.313 41.5326 112.602 43.6346 112.602 43.6346Z" fill="#433E3F"/>
<path d="M109.267 15.1038C109.328 15.4745 108.357 15.9455 107.096 16.1543C105.836 16.363 104.765 16.233 104.704 15.8612C104.642 15.4905 105.614 15.0194 106.874 14.8107C108.134 14.602 109.205 14.7331 109.267 15.1038Z" fill="#0E0C33"/>
<path d="M113.373 15.1038C113.311 15.4745 114.283 15.9455 115.543 16.1543C116.804 16.363 117.875 16.233 117.936 15.8612C117.998 15.4905 117.026 15.0194 115.766 14.8107C114.505 14.602 113.435 14.7331 113.373 15.1038Z" fill="#0E0C33"/>
<path d="M96.1631 32.5508C95.456 30.7373 95.1778 28.9181 94.7854 27.0111C94.5003 25.6265 93.9231 23.675 94.8641 22.474C95.4834 21.6825 97.866 18.2836 98.0998 17.2754C98.9644 13.5458 97.7417 11.3172 100.466 10.3911C104.052 9.17183 105.333 7.99706 108.552 9.09997C111.062 9.96108 115.446 8.62323 116.203 8.02444C117.917 6.66491 115.258 2.8224 114.227 1.44804C113.472 0.440936 112.506 -0.164695 111.205 0.0394626C110.284 0.183172 109.573 0.748884 108.71 1.00323C107.68 1.30661 106.627 0.838999 105.618 0.680463C103.669 0.374797 101.622 0.164931 99.6851 0.625712C99.0864 0.76714 98.15 0.921107 97.7223 1.41382C97.5044 1.66474 97.4132 2.00464 97.1908 2.28065C96.5828 3.03683 95.7982 3.60938 94.8732 3.93101C93.2753 4.48532 91.447 4.27318 90.0989 5.49813C89.6096 5.9418 89.223 6.54972 89.0234 7.17702C88.8101 7.84766 88.7804 8.46697 88.1531 8.91634C87.6262 9.29386 86.9977 9.22201 86.4434 9.47978C85.7522 9.80141 85.3736 10.4549 84.9607 11.0663C83.7175 12.9094 83.4358 14.7776 83.9479 16.8853C84.4897 19.1163 86.8073 25.2878 87.2304 26.3131C87.6376 27.3008 93.2297 35.06 93.7589 34.971C95.5895 34.4874 96.4414 33.267 96.1631 32.5508Z" fill="#0E0C33"/>
<path d="M98.0017 25.9071C97.0379 27.7821 94.7352 28.5212 92.859 27.5563C90.9828 26.5914 90.2448 24.2898 91.2086 22.4136C92.1735 20.5385 94.4751 19.7994 96.3513 20.7643C98.2275 21.7281 98.9654 24.0309 98.0017 25.9071Z" fill="#E86464"/>
<path d="M92.7267 25.0848L92.104 25.0642C92.1428 23.9419 92.4941 23.1059 93.1488 22.579C94.1319 21.7874 95.431 22.0144 95.4835 22.0258L95.3705 22.636C95.3603 22.6372 94.2939 22.4512 93.532 23.066C93.0279 23.4743 92.7563 24.1541 92.7267 25.0848Z" fill="#433E3F"/>
<path d="M93.475 22.6835L94.8189 24.325L94.3388 24.7181L92.9949 23.0765L93.475 22.6835Z" fill="#433E3F"/>
</svg>
