<svg width="305" height="391" viewBox="0 0 305 391" fill="none" xmlns="http://www.w3.org/2000/svg">
<path d="M248.96 58.9913L244.752 61.5592C242.87 62.7066 242.223 65.1925 243.292 67.1582L245.679 71.5427C247.063 74.0866 245.535 77.2707 242.732 77.6789L237.905 78.3821C235.74 78.6972 234.214 80.7379 234.471 82.9767L235.046 87.9795C235.379 90.8735 232.788 93.2093 230.05 92.484L225.317 91.2316C223.198 90.6714 221.033 91.9579 220.442 94.1276L219.126 98.9663C218.361 101.775 215.096 102.914 212.834 101.16L208.936 98.139C207.19 96.7845 204.713 97.1167 203.359 98.8853L200.331 102.844C198.581 105.131 195.149 104.894 193.71 102.387L191.219 98.049C190.106 96.1093 187.694 95.4421 185.787 96.5445L181.534 99.0043C179.066 100.432 175.978 98.8563 175.582 95.9673L174.899 90.9905C174.594 88.7587 172.614 87.1862 170.442 87.4513L165.589 88.0435C162.782 88.3866 160.516 85.7157 161.22 82.8937L162.435 78.014C162.978 75.8302 161.73 73.5985 159.625 72.9892L154.931 71.6318C152.207 70.8435 151.102 67.4783 152.803 65.1465L155.734 61.1281C157.048 59.3275 156.726 56.7746 155.01 55.3791L151.17 52.257C148.951 50.4534 149.181 46.9151 151.613 45.4316L155.821 42.8637C157.703 41.7163 158.35 39.2304 157.281 37.2648L154.895 32.8802C153.51 30.3363 155.038 27.1522 157.841 26.7441L162.668 26.0408C164.833 25.7257 166.359 23.685 166.102 21.4462L165.527 16.4435C165.194 13.5495 167.785 11.2137 170.523 11.9389L175.257 13.1914C177.375 13.7516 179.54 12.4651 180.131 10.2953L181.448 5.45666C182.212 2.64768 185.477 1.50928 187.739 3.2629L191.637 6.28395C193.384 7.63842 195.86 7.30631 197.214 5.53769L200.242 1.57931C201.992 -0.70849 205.424 -0.471409 206.864 2.03547L209.355 6.37398C210.468 8.31366 212.879 8.98089 214.786 7.8785L219.039 5.41865C221.507 3.99115 224.596 5.5667 224.992 8.45571L225.674 13.4324C225.979 15.6642 227.959 17.2368 230.131 16.9717L234.984 16.3795C237.791 16.0364 240.057 18.7073 239.354 21.5293L238.139 26.409C237.595 28.5927 238.843 30.8245 240.948 31.4337L245.642 32.7912C248.367 33.5795 249.471 36.9447 247.77 39.2765L244.839 43.2949C243.525 45.0955 243.847 47.6484 245.563 49.0439L249.403 52.166C251.622 53.9696 251.392 57.5068 248.96 58.9913Z" fill="#FFB73B"/>
<path d="M97.4436 351.137C122.29 351.137 142.432 330.374 142.432 304.76C142.432 279.147 122.29 258.383 97.4436 258.383C72.597 258.383 52.4548 279.147 52.4548 304.76C52.4548 330.374 72.597 351.137 97.4436 351.137Z" fill="#74A382"/>
<path d="M97.4438 266.367C76.8741 266.367 60.1997 283.556 60.1997 304.76C60.1997 325.964 76.8741 343.153 97.4438 343.153C118.013 343.153 134.688 325.964 134.688 304.76C134.688 283.556 118.013 266.367 97.4438 266.367ZM97.4438 338.563C79.3331 338.563 64.6519 323.429 64.6519 304.759C64.6519 286.09 79.3331 270.955 97.4438 270.955C115.554 270.955 130.236 286.09 130.236 304.759C130.236 323.429 115.554 338.563 97.4438 338.563Z" fill="#86B393"/>
<path d="M76.321 279.224L73.306 275.521L73.7009 275.178L76.7111 278.876C76.5782 278.988 76.452 279.108 76.321 279.224ZM86.549 273.124L84.9489 268.59L84.4627 268.774L86.0629 273.304C86.224 273.242 86.387 273.183 86.549 273.124ZM81.3894 275.56L79.0469 271.376L78.5995 271.643L80.9421 275.825C81.0896 275.735 81.239 275.648 81.3894 275.56ZM92.0435 271.661L91.2303 266.904L90.7218 266.995L91.5359 271.754C91.7048 271.722 91.8736 271.69 92.0435 271.661ZM66.9304 293.028L62.5345 291.378L62.3569 291.88L66.7548 293.53C66.813 293.362 66.8703 293.194 66.9304 293.028ZM65.4263 298.67L60.8111 297.831L60.7228 298.355L65.3361 299.193C65.3632 299.018 65.3953 298.844 65.4263 298.67ZM72.6723 282.984L69.0799 279.877L68.747 280.285L72.3336 283.387C72.4443 283.251 72.5607 283.12 72.6723 282.984ZM69.3758 287.747L65.3186 285.332L65.0605 285.793L69.1187 288.208C69.2041 288.054 69.2885 287.9 69.3758 287.747ZM125.769 288.209L129.812 285.803L129.553 285.342L125.512 287.748C125.599 287.9 125.684 288.054 125.769 288.209ZM128.133 293.529L132.513 291.886L132.336 291.384L127.957 293.027C128.018 293.194 128.075 293.361 128.133 293.529ZM97.4438 271.192C97.5301 271.192 97.6155 271.198 97.7019 271.199V266.367H97.1856V271.199C97.272 271.198 97.3574 271.192 97.4438 271.192ZM64.8809 304.76C64.8809 304.671 64.8868 304.583 64.8877 304.494H60.1997V305.026H64.8877C64.8868 304.936 64.8809 304.849 64.8809 304.76ZM129.552 299.193L134.148 298.358L134.06 297.834L129.462 298.669C129.493 298.844 129.524 299.018 129.552 299.193ZM122.554 283.388L126.127 280.297L125.794 279.889L122.215 282.985C122.327 283.12 122.444 283.251 122.554 283.388ZM103.352 271.754L104.162 267.014L103.653 266.923L102.843 271.661C103.014 271.69 103.183 271.722 103.352 271.754ZM108.825 273.304L110.418 268.791L109.932 268.607L108.337 273.123C108.501 273.183 108.664 273.242 108.825 273.304ZM113.947 275.826L116.281 271.66L115.834 271.393L113.5 275.561C113.649 275.648 113.799 275.736 113.947 275.826ZM118.566 279.223L121.569 275.534L121.174 275.191L118.176 278.874C118.309 278.988 118.435 279.108 118.566 279.223ZM80.9411 333.694L78.5985 337.877L79.0459 338.143L81.3885 333.96C81.239 333.871 81.0896 333.784 80.9411 333.694ZM118.176 330.644L121.174 334.327L121.569 333.984L118.566 330.296C118.435 330.411 118.309 330.531 118.176 330.644ZM122.215 326.535L125.794 329.631L126.127 329.224L122.554 326.133C122.444 326.269 122.327 326.4 122.215 326.535ZM113.499 333.959L115.833 338.126L116.28 337.86L113.947 333.693C113.799 333.783 113.649 333.871 113.499 333.959ZM125.512 321.772L129.553 324.177L129.812 323.716L125.77 321.31C125.684 321.465 125.599 321.619 125.512 321.772ZM130 304.493C130.001 304.582 130.007 304.67 130.007 304.759C130.007 304.848 130.001 304.936 130 305.025H134.669V304.493H130ZM108.338 336.395L109.933 340.912L110.419 340.729L108.826 336.215C108.664 336.277 108.501 336.336 108.338 336.395ZM65.3351 310.327L60.7218 311.165L60.8101 311.69L65.4253 310.85C65.3953 310.676 65.3642 310.502 65.3351 310.327ZM127.957 316.492L132.336 318.135L132.513 317.634L128.133 315.99C128.074 316.158 128.017 316.326 127.957 316.492ZM129.462 310.849L134.06 311.685L134.148 311.16L129.552 310.325C129.524 310.501 129.493 310.675 129.462 310.849ZM72.3346 326.133L68.748 329.236L69.0808 329.643L72.6733 326.535C72.5607 326.4 72.4443 326.27 72.3346 326.133ZM69.1187 321.31L65.0614 323.725L65.3196 324.186L69.3768 321.771C69.2885 321.619 69.2031 321.465 69.1187 321.31ZM76.321 330.295L73.306 333.998L73.7009 334.341L76.7111 330.644C76.5782 330.531 76.452 330.411 76.321 330.295ZM66.7548 315.99L62.3569 317.641L62.5345 318.142L66.9304 316.492C66.8703 316.326 66.813 316.158 66.7548 315.99ZM102.844 337.86L103.654 342.598L104.163 342.507L103.352 337.767C103.183 337.798 103.014 337.83 102.844 337.86ZM97.4438 338.327C97.3574 338.327 97.272 338.321 97.1856 338.32V343.135H97.7019V338.32C97.6155 338.321 97.5301 338.327 97.4438 338.327ZM91.5359 337.766L90.7218 342.523L91.2303 342.614L92.0435 337.859C91.8736 337.83 91.7048 337.798 91.5359 337.766ZM86.0629 336.215L84.4627 340.747L84.9489 340.93L86.55 336.396C86.387 336.336 86.224 336.277 86.0629 336.215ZM74.714 280.723L71.4185 277.293L71.0517 277.668L74.3521 281.103C74.4743 280.977 74.5908 280.847 74.714 280.723ZM84.06 274.155L82.1027 269.773L81.633 269.996L83.5893 274.375C83.7446 274.301 83.9018 274.228 84.06 274.155ZM79.1119 277.021L76.4423 273.051L76.0173 273.354L78.6859 277.324C78.8266 277.221 78.9692 277.121 79.1119 277.021ZM89.4185 272.231L88.2278 267.56L87.7291 267.694L88.9207 272.368C89.0857 272.321 89.2516 272.274 89.4185 272.231ZM66.0969 295.658L61.5845 294.387L61.4477 294.902L65.9629 296.173C66.0066 296 66.0503 295.828 66.0969 295.658ZM65.0488 301.408L60.3822 300.964L60.3356 301.493L65.0003 301.937C65.0149 301.76 65.0323 301.584 65.0488 301.408ZM71.0178 285.161L67.1895 282.369L66.8906 282.803L70.7131 285.59C70.8111 285.445 70.9168 285.305 71.0178 285.161ZM68.1134 290.187L63.8766 288.125L63.6563 288.607L67.8931 290.67C67.9659 290.508 68.0377 290.347 68.1134 290.187ZM124.351 285.86L128.187 283.119L127.893 282.68L124.057 285.421C124.157 285.566 124.254 285.712 124.351 285.86ZM127.132 290.961L131.367 288.952L131.151 288.467L126.919 290.476C126.991 290.636 127.061 290.799 127.132 290.961ZM94.7625 271.305C94.8489 271.298 94.9343 271.296 95.0207 271.29L94.6344 266.475L94.1201 266.519L94.5064 271.334C94.5927 271.326 94.6762 271.312 94.7625 271.305ZM64.9925 307.523C64.9857 307.434 64.9838 307.346 64.978 307.257L60.3055 307.655L60.3482 308.185L65.0207 307.787C65.0129 307.699 64.9993 307.612 64.9925 307.523ZM128.999 296.485L133.513 295.263L133.383 294.749L128.867 295.972C128.912 296.142 128.958 296.313 128.999 296.485ZM120.762 281.327L124.075 277.943L123.712 277.565L120.392 280.954C120.514 281.08 120.641 281.2 120.762 281.327ZM100.695 271.363L101.124 266.571L100.61 266.523L100.181 271.313C100.353 271.328 100.524 271.345 100.695 271.363ZM106.274 272.444L107.502 267.81L107.003 267.669L105.775 272.305C105.942 272.351 106.108 272.396 106.274 272.444ZM111.581 274.522L113.573 270.171L113.105 269.944L111.112 274.294C111.269 274.37 111.425 274.445 111.581 274.522ZM116.455 277.516L119.153 273.584L118.731 273.276L116.038 277.201C116.179 277.304 116.315 277.413 116.455 277.516ZM83.3098 334.996L81.3098 339.362L81.7776 339.589L83.7786 335.222C83.6204 335.148 83.4641 335.073 83.3098 334.996ZM120.174 328.795L123.456 332.212L123.823 331.837L120.536 328.415C120.414 328.54 120.298 328.671 120.174 328.795ZM123.872 324.357L127.685 327.138L127.984 326.704L124.176 323.927C124.078 324.073 123.973 324.213 123.872 324.357ZM115.779 332.496L118.437 336.45L118.862 336.147L116.205 332.194C116.063 332.296 115.921 332.396 115.779 332.496ZM126.776 319.33L130.996 321.384L131.217 320.902L126.996 318.847C126.924 319.009 126.852 319.17 126.776 319.33ZM129.869 301.729C129.877 301.818 129.889 301.905 129.897 301.994C129.904 302.083 129.906 302.171 129.911 302.259L134.566 301.863L134.523 301.333L129.869 301.729ZM110.829 335.363L112.779 339.728L113.249 339.505L111.3 335.142C111.144 335.217 110.987 335.289 110.829 335.363ZM65.8902 313.033L61.3594 314.26L61.4894 314.775L66.0221 313.546C65.9775 313.376 65.9319 313.205 65.8902 313.033ZM128.792 313.861L133.287 315.127L133.423 314.613L128.927 313.346C128.882 313.518 128.838 313.69 128.792 313.861ZM129.841 308.109L134.49 308.551L134.536 308.022L129.889 307.58C129.875 307.757 129.857 307.933 129.841 308.109ZM74.1279 328.191L70.8014 331.588L71.1653 331.967L74.4976 328.564C74.3754 328.438 74.2482 328.318 74.1279 328.191ZM70.5374 323.658L66.6869 326.409L66.9809 326.847L70.8314 324.096C70.7315 323.952 70.6345 323.805 70.5374 323.658ZM78.4336 332.002L75.7252 335.948L76.1463 336.256L78.8509 332.316C78.7092 332.214 78.5733 332.105 78.4336 332.002ZM67.7572 318.557L63.5059 320.575L63.7223 321.059L67.9717 319.042C67.8989 318.881 67.8281 318.719 67.7572 318.557ZM105.47 337.287L106.657 341.941L107.156 341.807L105.969 337.151C105.803 337.197 105.638 337.244 105.47 337.287ZM100.126 338.213C100.04 338.22 99.9542 338.222 99.8688 338.228L100.253 343.025L100.767 342.981L100.383 338.184C100.298 338.192 100.212 338.205 100.126 338.213ZM94.1939 338.155L93.763 342.965L94.2764 343.013L94.7072 338.205C94.5355 338.19 94.3647 338.172 94.1939 338.155ZM88.615 337.073L87.3826 341.725L87.8814 341.866L89.1148 337.211C88.9479 337.166 88.781 337.121 88.615 337.073Z" fill="#74A382"/>
<path d="M109.502 317.393C108.57 318.959 107.198 320.24 105.384 321.233C103.571 322.227 101.422 322.774 98.9388 322.876V326.969H95.8005V322.825C92.3362 322.523 89.5424 321.453 87.4191 319.617C85.2949 317.782 84.1683 315.281 84.0363 312.115H92.9582C93.1542 314.136 94.1004 315.432 95.8005 316.005V308.021C93.2522 307.347 91.2183 306.691 89.6977 306.052C88.178 305.412 86.8466 304.384 85.7035 302.969C84.5574 301.554 83.9868 299.618 83.9868 297.157C83.9868 294.092 85.0902 291.634 87.2959 289.781C89.5016 287.927 92.3362 286.884 95.7995 286.647V282.554H98.9378V286.647C102.369 286.918 105.081 287.944 107.075 289.729C109.067 291.515 110.178 293.99 110.407 297.157H101.437C101.241 295.339 100.407 294.16 98.9369 293.62V301.453C101.648 302.228 103.739 302.917 105.21 303.524C106.682 304.131 107.996 305.132 109.157 306.53C110.317 307.928 110.897 309.839 110.897 312.265C110.899 314.116 110.433 315.827 109.502 317.393ZM93.619 298.873C94.1266 299.447 94.8524 299.951 95.8005 300.391V293.367C94.8854 293.535 94.1654 293.897 93.6433 294.454C93.1212 295.01 92.8602 295.776 92.8602 296.751C92.8602 297.594 93.1125 298.3 93.619 298.873ZM101.266 314.942C101.838 314.302 102.125 313.51 102.125 312.567C102.125 311.691 101.855 310.975 101.315 310.419C100.776 309.863 99.9829 309.383 98.9378 308.979V316.155C99.9179 315.987 100.694 315.583 101.266 314.942Z" fill="#86B393"/>
<path d="M156.074 322.043H56.843C56.2346 322.043 55.7416 321.535 55.7416 320.908V313.402C55.7416 312.775 56.2346 312.267 56.843 312.267H156.074C156.683 312.267 157.176 312.775 157.176 313.402V320.908C157.175 321.535 156.682 322.043 156.074 322.043Z" fill="#FCB747"/>
<path d="M59.2112 312.232H58.4931V322.043H59.2112V312.232Z" fill="#FC8941"/>
<path d="M62.096 312.232H61.3779V322.043H62.096V312.232Z" fill="#FC8941"/>
<path d="M64.9812 312.232H64.2632V322.043H64.9812V312.232Z" fill="#FC8941"/>
<path d="M67.867 312.232H67.1489V322.043H67.867V312.232Z" fill="#FC8941"/>
<path d="M70.7523 312.232H70.0342V322.043H70.7523V312.232Z" fill="#FC8941"/>
<path d="M73.6371 312.232H72.919V322.043H73.6371V312.232Z" fill="#FC8941"/>
<path d="M76.5234 312.232H75.8053V322.043H76.5234V312.232Z" fill="#FC8941"/>
<path d="M79.4082 312.232H78.6901V322.043H79.4082V312.232Z" fill="#FC8941"/>
<path d="M82.293 312.232H81.5749V322.043H82.293V312.232Z" fill="#FC8941"/>
<path d="M85.1782 312.232H84.4601V322.043H85.1782V312.232Z" fill="#FC8941"/>
<path d="M88.064 312.232H87.3459V322.043H88.064V312.232Z" fill="#FC8941"/>
<path d="M90.9493 312.232H90.2312V322.043H90.9493V312.232Z" fill="#FC8941"/>
<path d="M93.8341 312.232H93.116V322.043H93.8341V312.232Z" fill="#FC8941"/>
<path d="M96.7194 312.232H96.0013V322.043H96.7194V312.232Z" fill="#FC8941"/>
<path d="M99.6047 312.232H98.8866V322.043H99.6047V312.232Z" fill="#FC8941"/>
<path d="M102.49 312.232H101.772V322.043H102.49V312.232Z" fill="#FC8941"/>
<path d="M105.375 312.232H104.657V322.043H105.375V312.232Z" fill="#FC8941"/>
<path d="M108.261 312.232H107.543V322.043H108.261V312.232Z" fill="#FC8941"/>
<path d="M111.146 312.232H110.428V322.043H111.146V312.232Z" fill="#FC8941"/>
<path d="M114.031 312.232H113.313V322.043H114.031V312.232Z" fill="#FC8941"/>
<path d="M116.916 312.232H116.198V322.043H116.916V312.232Z" fill="#FC8941"/>
<path d="M119.802 312.232H119.084V322.043H119.802V312.232Z" fill="#FC8941"/>
<path d="M122.687 312.232H121.969V322.043H122.687V312.232Z" fill="#FC8941"/>
<path d="M125.572 312.232H124.854V322.043H125.572V312.232Z" fill="#FC8941"/>
<path d="M128.458 312.232H127.74V322.043H128.458V312.232Z" fill="#FC8941"/>
<path d="M131.343 312.232H130.625V322.043H131.343V312.232Z" fill="#FC8941"/>
<path d="M134.228 312.232H133.51V322.043H134.228V312.232Z" fill="#FC8941"/>
<path d="M137.113 312.232H136.395V322.043H137.113V312.232Z" fill="#FC8941"/>
<path d="M139.999 312.232H139.281V322.043H139.999V312.232Z" fill="#FC8941"/>
<path d="M142.884 312.232H142.166V322.043H142.884V312.232Z" fill="#FC8941"/>
<path d="M145.769 312.232H145.051V322.043H145.769V312.232Z" fill="#FC8941"/>
<path d="M148.655 312.232H147.937V322.043H148.655V312.232Z" fill="#FC8941"/>
<path d="M151.54 312.232H150.822V322.043H151.54V312.232Z" fill="#FC8941"/>
<path d="M154.425 312.232H153.707V322.043H154.425V312.232Z" fill="#FC8941"/>
<path d="M55.8037 321.224C55.9385 321.694 56.3432 322.044 56.843 322.044H156.074C156.574 322.044 156.979 321.694 157.114 321.224H55.8037Z" fill="#BD5B1E"/>
<path d="M153.728 331.856H54.4975C53.889 331.856 53.3961 331.347 53.3961 330.72V323.215C53.3961 322.587 53.889 322.079 54.4975 322.079H153.729C154.337 322.079 154.83 322.587 154.83 323.215V330.72C154.829 331.347 154.336 331.856 153.728 331.856Z" fill="#FCB747"/>
<path d="M56.8647 322.043H56.1466V331.855H56.8647V322.043Z" fill="#FC8941"/>
<path d="M59.7509 322.043H59.0328V331.855H59.7509V322.043Z" fill="#FC8941"/>
<path d="M62.6357 322.043H61.9176V331.855H62.6357V322.043Z" fill="#FC8941"/>
<path d="M65.5205 322.043H64.8024V331.855H65.5205V322.043Z" fill="#FC8941"/>
<path d="M68.4058 322.043H67.6877V331.855H68.4058V322.043Z" fill="#FC8941"/>
<path d="M71.2916 322.043H70.5735V331.855H71.2916V322.043Z" fill="#FC8941"/>
<path d="M74.1768 322.043H73.4587V331.855H74.1768V322.043Z" fill="#FC8941"/>
<path d="M77.0616 322.043H76.3435V331.855H77.0616V322.043Z" fill="#FC8941"/>
<path d="M79.9464 322.043H79.2283V331.855H79.9464V322.043Z" fill="#FC8941"/>
<path d="M82.8327 322.043H82.1146V331.855H82.8327V322.043Z" fill="#FC8941"/>
<path d="M85.7175 322.043H84.9994V331.855H85.7175V322.043Z" fill="#FC8941"/>
<path d="M88.6028 322.043H87.8847V331.855H88.6028V322.043Z" fill="#FC8941"/>
<path d="M91.4886 322.043H90.7705V331.855H91.4886V322.043Z" fill="#FC8941"/>
<path d="M94.3738 322.043H93.6557V331.855H94.3738V322.043Z" fill="#FC8941"/>
<path d="M97.2586 322.043H96.5405V331.855H97.2586V322.043Z" fill="#FC8941"/>
<path d="M100.144 322.043H99.4258V331.855H100.144V322.043Z" fill="#FC8941"/>
<path d="M103.03 322.043H102.312V331.855H103.03V322.043Z" fill="#FC8941"/>
<path d="M105.914 322.043H105.196V331.855H105.914V322.043Z" fill="#FC8941"/>
<path d="M108.8 322.043H108.082V331.855H108.8V322.043Z" fill="#FC8941"/>
<path d="M111.686 322.043H110.967V331.855H111.686V322.043Z" fill="#FC8941"/>
<path d="M114.571 322.043H113.853V331.855H114.571V322.043Z" fill="#FC8941"/>
<path d="M117.456 322.043H116.738V331.855H117.456V322.043Z" fill="#FC8941"/>
<path d="M120.341 322.043H119.623V331.855H120.341V322.043Z" fill="#FC8941"/>
<path d="M123.227 322.043H122.509V331.855H123.227V322.043Z" fill="#FC8941"/>
<path d="M126.111 322.043H125.393V331.855H126.111V322.043Z" fill="#FC8941"/>
<path d="M128.997 322.043H128.279V331.855H128.997V322.043Z" fill="#FC8941"/>
<path d="M131.883 322.043H131.164V331.855H131.883V322.043Z" fill="#FC8941"/>
<path d="M134.768 322.043H134.05V331.855H134.768V322.043Z" fill="#FC8941"/>
<path d="M137.653 322.043H136.935V331.855H137.653V322.043Z" fill="#FC8941"/>
<path d="M140.538 322.043H139.82V331.855H140.538V322.043Z" fill="#FC8941"/>
<path d="M143.424 322.043H142.706V331.855H143.424V322.043Z" fill="#FC8941"/>
<path d="M146.308 322.043H145.59V331.855H146.308V322.043Z" fill="#FC8941"/>
<path d="M149.193 322.043H148.475V331.855H149.193V322.043Z" fill="#FC8941"/>
<path d="M152.08 322.043H151.361V331.855H152.08V322.043Z" fill="#FC8941"/>
<path d="M53.4581 331.035C53.593 331.505 53.9977 331.856 54.4974 331.856H153.729C154.229 331.856 154.633 331.505 154.768 331.035H53.4581Z" fill="#BD5B1E"/>
<path d="M156.074 341.667H56.843C56.2346 341.667 55.7416 341.159 55.7416 340.532V333.026C55.7416 332.399 56.2346 331.891 56.843 331.891H156.074C156.683 331.891 157.176 332.399 157.176 333.026V340.532C157.175 341.159 156.682 341.667 156.074 341.667Z" fill="#FCB747"/>
<path d="M59.2112 331.856H58.4931V341.667H59.2112V331.856Z" fill="#FC8941"/>
<path d="M62.096 331.856H61.3779V341.667H62.096V331.856Z" fill="#FC8941"/>
<path d="M64.9812 331.856H64.2632V341.667H64.9812V331.856Z" fill="#FC8941"/>
<path d="M67.867 331.856H67.1489V341.667H67.867V331.856Z" fill="#FC8941"/>
<path d="M70.7523 331.856H70.0342V341.667H70.7523V331.856Z" fill="#FC8941"/>
<path d="M73.6371 331.856H72.919V341.667H73.6371V331.856Z" fill="#FC8941"/>
<path d="M76.5234 331.856H75.8053V341.667H76.5234V331.856Z" fill="#FC8941"/>
<path d="M79.4082 331.856H78.6901V341.667H79.4082V331.856Z" fill="#FC8941"/>
<path d="M82.293 331.856H81.5749V341.667H82.293V331.856Z" fill="#FC8941"/>
<path d="M85.1782 331.856H84.4601V341.667H85.1782V331.856Z" fill="#FC8941"/>
<path d="M88.064 331.856H87.3459V341.667H88.064V331.856Z" fill="#FC8941"/>
<path d="M90.9493 331.856H90.2312V341.667H90.9493V331.856Z" fill="#FC8941"/>
<path d="M93.8341 331.856H93.116V341.667H93.8341V331.856Z" fill="#FC8941"/>
<path d="M96.7194 331.856H96.0013V341.667H96.7194V331.856Z" fill="#FC8941"/>
<path d="M99.6047 331.856H98.8866V341.667H99.6047V331.856Z" fill="#FC8941"/>
<path d="M102.49 331.856H101.772V341.667H102.49V331.856Z" fill="#FC8941"/>
<path d="M105.375 331.856H104.657V341.667H105.375V331.856Z" fill="#FC8941"/>
<path d="M108.261 331.856H107.543V341.667H108.261V331.856Z" fill="#FC8941"/>
<path d="M111.146 331.856H110.428V341.667H111.146V331.856Z" fill="#FC8941"/>
<path d="M114.031 331.856H113.313V341.667H114.031V331.856Z" fill="#FC8941"/>
<path d="M116.916 331.856H116.198V341.667H116.916V331.856Z" fill="#FC8941"/>
<path d="M119.802 331.856H119.084V341.667H119.802V331.856Z" fill="#FC8941"/>
<path d="M122.687 331.856H121.969V341.667H122.687V331.856Z" fill="#FC8941"/>
<path d="M125.572 331.856H124.854V341.667H125.572V331.856Z" fill="#FC8941"/>
<path d="M128.458 331.856H127.74V341.667H128.458V331.856Z" fill="#FC8941"/>
<path d="M131.343 331.856H130.625V341.667H131.343V331.856Z" fill="#FC8941"/>
<path d="M134.228 331.856H133.51V341.667H134.228V331.856Z" fill="#FC8941"/>
<path d="M137.113 331.856H136.395V341.667H137.113V331.856Z" fill="#FC8941"/>
<path d="M139.999 331.856H139.281V341.667H139.999V331.856Z" fill="#FC8941"/>
<path d="M142.884 331.856H142.166V341.667H142.884V331.856Z" fill="#FC8941"/>
<path d="M145.769 331.856H145.051V341.667H145.769V331.856Z" fill="#FC8941"/>
<path d="M148.655 331.856H147.937V341.667H148.655V331.856Z" fill="#FC8941"/>
<path d="M151.54 331.856H150.822V341.667H151.54V331.856Z" fill="#FC8941"/>
<path d="M154.425 331.856H153.707V341.667H154.425V331.856Z" fill="#FC8941"/>
<path d="M55.8037 340.847C55.9385 341.317 56.3432 341.667 56.843 341.667H156.074C156.574 341.667 156.979 341.317 157.114 340.847H55.8037Z" fill="#BD5B1E"/>
<path d="M159.318 351.479H60.0868C59.4784 351.479 58.9854 350.971 58.9854 350.344V342.838C58.9854 342.211 59.4784 341.703 60.0868 341.703H159.318C159.927 341.703 160.42 342.211 160.42 342.838V350.344C160.42 350.971 159.927 351.479 159.318 351.479Z" fill="#FCB747"/>
<path d="M62.4545 341.667H61.7364V351.478H62.4545V341.667Z" fill="#FC8941"/>
<path d="M65.3393 341.667H64.6212V351.478H65.3393V341.667Z" fill="#FC8941"/>
<path d="M68.2256 341.667H67.5074V351.478H68.2256V341.667Z" fill="#FC8941"/>
<path d="M71.1108 341.667H70.3927V351.478H71.1108V341.667Z" fill="#FC8941"/>
<path d="M73.9956 341.667H73.2775V351.478H73.9956V341.667Z" fill="#FC8941"/>
<path d="M76.8819 341.667H76.1638V351.478H76.8819V341.667Z" fill="#FC8941"/>
<path d="M79.7667 341.667H79.0486V351.478H79.7667V341.667Z" fill="#FC8941"/>
<path d="M82.6515 341.667H81.9334V351.478H82.6515V341.667Z" fill="#FC8941"/>
<path d="M85.5363 341.667H84.8182V351.478H85.5363V341.667Z" fill="#FC8941"/>
<path d="M88.4225 341.667H87.7044V351.478H88.4225V341.667Z" fill="#FC8941"/>
<path d="M91.3073 341.667H90.5892V351.478H91.3073V341.667Z" fill="#FC8941"/>
<path d="M94.1926 341.667H93.4745V351.478H94.1926V341.667Z" fill="#FC8941"/>
<path d="M97.0789 341.667H96.3608V351.478H97.0789V341.667Z" fill="#FC8941"/>
<path d="M99.9637 341.667H99.2456V351.478H99.9637V341.667Z" fill="#FC8941"/>
<path d="M102.848 341.667H102.13V351.478H102.848V341.667Z" fill="#FC8941"/>
<path d="M105.733 341.667H105.015V351.478H105.733V341.667Z" fill="#FC8941"/>
<path d="M108.62 341.667H107.901V351.478H108.62V341.667Z" fill="#FC8941"/>
<path d="M111.504 341.667H110.786V351.478H111.504V341.667Z" fill="#FC8941"/>
<path d="M114.39 341.667H113.672V351.478H114.39V341.667Z" fill="#FC8941"/>
<path d="M117.274 341.667H116.556V351.478H117.274V341.667Z" fill="#FC8941"/>
<path d="M120.161 341.667H119.443V351.478H120.161V341.667Z" fill="#FC8941"/>
<path d="M123.045 341.667H122.327V351.478H123.045V341.667Z" fill="#FC8941"/>
<path d="M125.931 341.667H125.213V351.478H125.931V341.667Z" fill="#FC8941"/>
<path d="M128.817 341.667H128.098V351.478H128.817V341.667Z" fill="#FC8941"/>
<path d="M131.702 341.667H130.984V351.478H131.702V341.667Z" fill="#FC8941"/>
<path d="M134.587 341.667H133.869V351.478H134.587V341.667Z" fill="#FC8941"/>
<path d="M137.471 341.667H136.753V351.478H137.471V341.667Z" fill="#FC8941"/>
<path d="M140.358 341.667H139.64V351.478H140.358V341.667Z" fill="#FC8941"/>
<path d="M143.242 341.667H142.524V351.478H143.242V341.667Z" fill="#FC8941"/>
<path d="M146.128 341.667H145.41V351.478H146.128V341.667Z" fill="#FC8941"/>
<path d="M149.014 341.667H148.295V351.478H149.014V341.667Z" fill="#FC8941"/>
<path d="M151.899 341.667H151.181V351.478H151.899V341.667Z" fill="#FC8941"/>
<path d="M154.784 341.667H154.065V351.478H154.784V341.667Z" fill="#FC8941"/>
<path d="M157.668 341.667H156.95V351.478H157.668V341.667Z" fill="#FC8941"/>
<path d="M59.0475 350.659C59.1824 351.129 59.587 351.479 60.0868 351.479H159.318C159.818 351.479 160.223 351.129 160.357 350.659H59.0475Z" fill="#BD5B1E"/>
<path d="M151.746 361.291H52.5149C51.9064 361.291 51.4135 360.783 51.4135 360.155V352.65C51.4135 352.023 51.9064 351.514 52.5149 351.514H151.746C152.355 351.514 152.848 352.023 152.848 352.65V360.155C152.848 360.783 152.355 361.291 151.746 361.291Z" fill="#FCB747"/>
<path d="M54.8825 351.479H54.1644V361.291H54.8825V351.479Z" fill="#FC8941"/>
<path d="M57.7673 351.479H57.0492V361.291H57.7673V351.479Z" fill="#FC8941"/>
<path d="M60.6521 351.479H59.934V361.291H60.6521V351.479Z" fill="#FC8941"/>
<path d="M63.5384 351.479H62.8203V361.291H63.5384V351.479Z" fill="#FC8941"/>
<path d="M66.4232 351.479H65.7051V361.291H66.4232V351.479Z" fill="#FC8941"/>
<path d="M69.3084 351.479H68.5903V361.291H69.3084V351.479Z" fill="#FC8941"/>
<path d="M72.1947 351.479H71.4766V361.291H72.1947V351.479Z" fill="#FC8941"/>
<path d="M75.0795 351.479H74.3614V361.291H75.0795V351.479Z" fill="#FC8941"/>
<path d="M77.9643 351.479H77.2462V361.291H77.9643V351.479Z" fill="#FC8941"/>
<path d="M80.8491 351.479H80.131V361.291H80.8491V351.479Z" fill="#FC8941"/>
<path d="M83.7354 351.479H83.0173V361.291H83.7354V351.479Z" fill="#FC8941"/>
<path d="M86.6202 351.479H85.9021V361.291H86.6202V351.479Z" fill="#FC8941"/>
<path d="M89.5054 351.479H88.7873V361.291H89.5054V351.479Z" fill="#FC8941"/>
<path d="M92.3912 351.479H91.6731V361.291H92.3912V351.479Z" fill="#FC8941"/>
<path d="M95.2765 351.479H94.5584V361.291H95.2765V351.479Z" fill="#FC8941"/>
<path d="M98.1618 351.479H97.4437V361.291H98.1618V351.479Z" fill="#FC8941"/>
<path d="M101.046 351.479H100.328V361.291H101.046V351.479Z" fill="#FC8941"/>
<path d="M103.932 351.479H103.214V361.291H103.932V351.479Z" fill="#FC8941"/>
<path d="M106.817 351.479H106.099V361.291H106.817V351.479Z" fill="#FC8941"/>
<path d="M109.702 351.479H108.984V361.291H109.702V351.479Z" fill="#FC8941"/>
<path d="M112.588 351.479H111.87V361.291H112.588V351.479Z" fill="#FC8941"/>
<path d="M115.473 351.479H114.755V361.291H115.473V351.479Z" fill="#FC8941"/>
<path d="M118.359 351.479H117.641V361.291H118.359V351.479Z" fill="#FC8941"/>
<path d="M121.243 351.479H120.525V361.291H121.243V351.479Z" fill="#FC8941"/>
<path d="M124.129 351.479H123.411V361.291H124.129V351.479Z" fill="#FC8941"/>
<path d="M127.014 351.479H126.296V361.291H127.014V351.479Z" fill="#FC8941"/>
<path d="M129.899 351.479H129.181V361.291H129.899V351.479Z" fill="#FC8941"/>
<path d="M132.785 351.479H132.067V361.291H132.785V351.479Z" fill="#FC8941"/>
<path d="M135.67 351.479H134.952V361.291H135.67V351.479Z" fill="#FC8941"/>
<path d="M138.555 351.479H137.837V361.291H138.555V351.479Z" fill="#FC8941"/>
<path d="M141.44 351.479H140.722V361.291H141.44V351.479Z" fill="#FC8941"/>
<path d="M144.326 351.479H143.608V361.291H144.326V351.479Z" fill="#FC8941"/>
<path d="M147.211 351.479H146.493V361.291H147.211V351.479Z" fill="#FC8941"/>
<path d="M150.096 351.479H149.378V361.291H150.096V351.479Z" fill="#FC8941"/>
<path d="M51.4755 360.471C51.6104 360.941 52.015 361.291 52.5148 361.291H151.746C152.246 361.291 152.651 360.941 152.785 360.471H51.4755Z" fill="#BD5B1E"/>
<path d="M154.812 371.103H55.5804C54.9719 371.103 54.479 370.595 54.479 369.968V362.462C54.479 361.835 54.9719 361.327 55.5804 361.327H154.812C155.42 361.327 155.913 361.835 155.913 362.462V369.968C155.913 370.595 155.42 371.103 154.812 371.103Z" fill="#FCB747"/>
<path d="M57.9485 361.291H57.2304V371.102H57.9485V361.291Z" fill="#FC8941"/>
<path d="M60.8333 361.291H60.1152V371.102H60.8333V361.291Z" fill="#FC8941"/>
<path d="M63.7186 361.291H63.0005V371.102H63.7186V361.291Z" fill="#FC8941"/>
<path d="M66.6044 361.291H65.8863V371.102H66.6044V361.291Z" fill="#FC8941"/>
<path d="M69.4897 361.291H68.7716V371.102H69.4897V361.291Z" fill="#FC8941"/>
<path d="M72.3745 361.291H71.6564V371.102H72.3745V361.291Z" fill="#FC8941"/>
<path d="M75.2607 361.291H74.5426V371.102H75.2607V361.291Z" fill="#FC8941"/>
<path d="M78.1455 361.291H77.4274V371.102H78.1455V361.291Z" fill="#FC8941"/>
<path d="M81.0303 361.291H80.3122V371.102H81.0303V361.291Z" fill="#FC8941"/>
<path d="M83.9156 361.291H83.1975V371.102H83.9156V361.291Z" fill="#FC8941"/>
<path d="M86.8014 361.291H86.0833V371.102H86.8014V361.291Z" fill="#FC8941"/>
<path d="M89.6866 361.291H88.9686V371.102H89.6866V361.291Z" fill="#FC8941"/>
<path d="M92.5714 361.291H91.8533V371.102H92.5714V361.291Z" fill="#FC8941"/>
<path d="M95.4577 361.291H94.7396V371.102H95.4577V361.291Z" fill="#FC8941"/>
<path d="M98.3425 361.291H97.6244V371.102H98.3425V361.291Z" fill="#FC8941"/>
<path d="M101.227 361.291H100.509V371.102H101.227V361.291Z" fill="#FC8941"/>
<path d="M104.113 361.291H103.394V371.102H104.113V361.291Z" fill="#FC8941"/>
<path d="M106.998 361.291H106.28V371.102H106.998V361.291Z" fill="#FC8941"/>
<path d="M109.884 361.291H109.166V371.102H109.884V361.291Z" fill="#FC8941"/>
<path d="M112.768 361.291H112.05V371.102H112.768V361.291Z" fill="#FC8941"/>
<path d="M115.655 361.291H114.937V371.102H115.655V361.291Z" fill="#FC8941"/>
<path d="M118.54 361.291H117.821V371.102H118.54V361.291Z" fill="#FC8941"/>
<path d="M121.425 361.291H120.707V371.102H121.425V361.291Z" fill="#FC8941"/>
<path d="M124.31 361.291H123.591V371.102H124.31V361.291Z" fill="#FC8941"/>
<path d="M127.195 361.291H126.477V371.102H127.195V361.291Z" fill="#FC8941"/>
<path d="M130.081 361.291H129.363V371.102H130.081V361.291Z" fill="#FC8941"/>
<path d="M132.965 361.291H132.247V371.102H132.965V361.291Z" fill="#FC8941"/>
<path d="M135.852 361.291H135.134V371.102H135.852V361.291Z" fill="#FC8941"/>
<path d="M138.736 361.291H138.018V371.102H138.736V361.291Z" fill="#FC8941"/>
<path d="M141.622 361.291H140.904V371.102H141.622V361.291Z" fill="#FC8941"/>
<path d="M144.507 361.291H143.788V371.102H144.507V361.291Z" fill="#FC8941"/>
<path d="M147.392 361.291H146.674V371.102H147.392V361.291Z" fill="#FC8941"/>
<path d="M150.278 361.291H149.56V371.102H150.278V361.291Z" fill="#FC8941"/>
<path d="M153.162 361.291H152.444V371.102H153.162V361.291Z" fill="#FC8941"/>
<path d="M54.5415 370.283C54.6764 370.753 55.081 371.103 55.5808 371.103H154.812C155.312 371.103 155.717 370.753 155.851 370.283H54.5415Z" fill="#BD5B1E"/>
<path d="M153.009 380.915H53.779C53.1705 380.915 52.6776 380.407 52.6776 379.779V372.274C52.6776 371.646 53.1705 371.138 53.779 371.138H153.01C153.619 371.138 154.112 371.646 154.112 372.274V379.779C154.111 380.407 153.618 380.915 153.009 380.915Z" fill="#FCB747"/>
<path d="M56.1456 371.103H55.4275V380.915H56.1456V371.103Z" fill="#FC8941"/>
<path d="M59.0304 371.103H58.3123V380.915H59.0304V371.103Z" fill="#FC8941"/>
<path d="M61.9167 371.103H61.1986V380.915H61.9167V371.103Z" fill="#FC8941"/>
<path d="M64.8015 371.103H64.0834V380.915H64.8015V371.103Z" fill="#FC8941"/>
<path d="M67.6868 371.103H66.9687V380.915H67.6868V371.103Z" fill="#FC8941"/>
<path d="M70.5726 371.103H69.8545V380.915H70.5726V371.103Z" fill="#FC8941"/>
<path d="M73.4574 371.103H72.7393V380.915H73.4574V371.103Z" fill="#FC8941"/>
<path d="M76.3426 371.103H75.6245V380.915H76.3426V371.103Z" fill="#FC8941"/>
<path d="M79.2274 371.103H78.5093V380.915H79.2274V371.103Z" fill="#FC8941"/>
<path d="M82.1137 371.103H81.3956V380.915H82.1137V371.103Z" fill="#FC8941"/>
<path d="M84.9985 371.103H84.2804V380.915H84.9985V371.103Z" fill="#FC8941"/>
<path d="M87.8838 371.103H87.1657V380.915H87.8838V371.103Z" fill="#FC8941"/>
<path d="M90.7695 371.103H90.0515V380.915H90.7695V371.103Z" fill="#FC8941"/>
<path d="M93.6543 371.103H92.9362V380.915H93.6543V371.103Z" fill="#FC8941"/>
<path d="M96.5396 371.103H95.8215V380.915H96.5396V371.103Z" fill="#FC8941"/>
<path d="M99.4249 371.103H98.7068V380.915H99.4249V371.103Z" fill="#FC8941"/>
<path d="M102.311 371.103H101.593V380.915H102.311V371.103Z" fill="#FC8941"/>
<path d="M105.195 371.103H104.477V380.915H105.195V371.103Z" fill="#FC8941"/>
<path d="M108.081 371.103H107.363V380.915H108.081V371.103Z" fill="#FC8941"/>
<path d="M110.967 371.103H110.248V380.915H110.967V371.103Z" fill="#FC8941"/>
<path d="M113.851 371.103H113.133V380.915H113.851V371.103Z" fill="#FC8941"/>
<path d="M116.737 371.103H116.019V380.915H116.737V371.103Z" fill="#FC8941"/>
<path d="M119.621 371.103H118.903V380.915H119.621V371.103Z" fill="#FC8941"/>
<path d="M122.508 371.103H121.79V380.915H122.508V371.103Z" fill="#FC8941"/>
<path d="M125.392 371.103H124.674V380.915H125.392V371.103Z" fill="#FC8941"/>
<path d="M128.278 371.103H127.56V380.915H128.278V371.103Z" fill="#FC8941"/>
<path d="M131.164 371.103H130.445V380.915H131.164V371.103Z" fill="#FC8941"/>
<path d="M134.048 371.103H133.33V380.915H134.048V371.103Z" fill="#FC8941"/>
<path d="M136.934 371.103H136.216V380.915H136.934V371.103Z" fill="#FC8941"/>
<path d="M139.818 371.103H139.1V380.915H139.818V371.103Z" fill="#FC8941"/>
<path d="M142.705 371.103H141.987V380.915H142.705V371.103Z" fill="#FC8941"/>
<path d="M145.589 371.103H144.871V380.915H145.589V371.103Z" fill="#FC8941"/>
<path d="M148.475 371.103H147.757V380.915H148.475V371.103Z" fill="#FC8941"/>
<path d="M151.361 371.103H150.642V380.915H151.361V371.103Z" fill="#FC8941"/>
<path d="M52.7386 380.094C52.8735 380.565 53.2782 380.915 53.7779 380.915H153.009C153.509 380.915 153.914 380.565 154.049 380.094H52.7386Z" fill="#BD5B1E"/>
<path d="M156.074 390.726H56.843C56.2346 390.726 55.7416 390.218 55.7416 389.591V382.085C55.7416 381.458 56.2346 380.95 56.843 380.95H156.074C156.683 380.95 157.176 381.458 157.176 382.085V389.591C157.175 390.218 156.682 390.726 156.074 390.726Z" fill="#FCB747"/>
<path d="M59.2112 380.915H58.4931V390.726H59.2112V380.915Z" fill="#FC8941"/>
<path d="M62.096 380.915H61.3779V390.726H62.096V380.915Z" fill="#FC8941"/>
<path d="M64.9812 380.915H64.2632V390.726H64.9812V380.915Z" fill="#FC8941"/>
<path d="M67.867 380.915H67.1489V390.726H67.867V380.915Z" fill="#FC8941"/>
<path d="M70.7523 380.915H70.0342V390.726H70.7523V380.915Z" fill="#FC8941"/>
<path d="M73.6371 380.915H72.919V390.726H73.6371V380.915Z" fill="#FC8941"/>
<path d="M76.5234 380.915H75.8053V390.726H76.5234V380.915Z" fill="#FC8941"/>
<path d="M79.4082 380.915H78.6901V390.726H79.4082V380.915Z" fill="#FC8941"/>
<path d="M82.293 380.915H81.5749V390.726H82.293V380.915Z" fill="#FC8941"/>
<path d="M85.1782 380.915H84.4601V390.726H85.1782V380.915Z" fill="#FC8941"/>
<path d="M88.064 380.915H87.3459V390.726H88.064V380.915Z" fill="#FC8941"/>
<path d="M90.9493 380.915H90.2312V390.726H90.9493V380.915Z" fill="#FC8941"/>
<path d="M93.8341 380.915H93.116V390.726H93.8341V380.915Z" fill="#FC8941"/>
<path d="M96.7194 380.915H96.0013V390.726H96.7194V380.915Z" fill="#FC8941"/>
<path d="M99.6047 380.915H98.8866V390.726H99.6047V380.915Z" fill="#FC8941"/>
<path d="M102.49 380.915H101.772V390.726H102.49V380.915Z" fill="#FC8941"/>
<path d="M105.375 380.915H104.657V390.726H105.375V380.915Z" fill="#FC8941"/>
<path d="M108.261 380.915H107.543V390.726H108.261V380.915Z" fill="#FC8941"/>
<path d="M111.146 380.915H110.428V390.726H111.146V380.915Z" fill="#FC8941"/>
<path d="M114.031 380.915H113.313V390.726H114.031V380.915Z" fill="#FC8941"/>
<path d="M116.916 380.915H116.198V390.726H116.916V380.915Z" fill="#FC8941"/>
<path d="M119.802 380.915H119.084V390.726H119.802V380.915Z" fill="#FC8941"/>
<path d="M122.687 380.915H121.969V390.726H122.687V380.915Z" fill="#FC8941"/>
<path d="M125.572 380.915H124.854V390.726H125.572V380.915Z" fill="#FC8941"/>
<path d="M128.458 380.915H127.74V390.726H128.458V380.915Z" fill="#FC8941"/>
<path d="M131.343 380.915H130.625V390.726H131.343V380.915Z" fill="#FC8941"/>
<path d="M134.228 380.915H133.51V390.726H134.228V380.915Z" fill="#FC8941"/>
<path d="M137.113 380.915H136.395V390.726H137.113V380.915Z" fill="#FC8941"/>
<path d="M139.999 380.915H139.281V390.726H139.999V380.915Z" fill="#FC8941"/>
<path d="M142.884 380.915H142.166V390.726H142.884V380.915Z" fill="#FC8941"/>
<path d="M145.769 380.915H145.051V390.726H145.769V380.915Z" fill="#FC8941"/>
<path d="M148.655 380.915H147.937V390.726H148.655V380.915Z" fill="#FC8941"/>
<path d="M151.54 380.915H150.822V390.726H151.54V380.915Z" fill="#FC8941"/>
<path d="M154.425 380.915H153.707V390.726H154.425V380.915Z" fill="#FC8941"/>
<path d="M55.8037 389.907C55.9385 390.377 56.3432 390.727 56.843 390.727H156.074C156.574 390.727 156.979 390.377 157.114 389.907H55.8037Z" fill="#BD5B1E"/>
<path d="M86.6779 348.292C90.3858 335.532 91.197 322.984 89.558 312.268H56.8429C56.2344 312.268 55.7415 312.776 55.7415 313.403V320.909C55.7415 321.021 55.7735 321.122 55.8036 321.224C55.8346 321.331 55.8793 321.426 55.9375 321.517C55.9501 321.538 55.9627 321.557 55.9763 321.577C56.0287 321.65 56.084 321.715 56.1529 321.773C56.1966 321.812 56.247 321.841 56.2965 321.873C56.3499 321.905 56.3984 321.941 56.4566 321.964C56.577 322.013 56.7051 322.044 56.8429 322.044H56.1461V322.08H54.4964C53.888 322.08 53.395 322.588 53.395 323.216V330.721C53.395 330.833 53.427 330.934 53.4571 331.036C53.4882 331.143 53.5328 331.238 53.591 331.329C53.6037 331.35 53.6163 331.369 53.6299 331.389C53.6823 331.462 53.7376 331.527 53.8055 331.585C53.8501 331.624 53.8996 331.653 53.9491 331.686C54.0025 331.718 54.05 331.754 54.1092 331.777C54.2296 331.826 54.3577 331.857 54.4964 331.857H56.1461H56.8642H58.4925V331.893H56.8429C56.2344 331.893 55.7415 332.401 55.7415 333.028V340.534C55.7415 340.646 55.7735 340.747 55.8036 340.849C55.8346 340.956 55.8793 341.051 55.9375 341.142C55.9501 341.163 55.9627 341.182 55.9763 341.202C56.0297 341.275 56.085 341.34 56.1529 341.398C56.1966 341.437 56.2461 341.466 56.2965 341.498C56.3499 341.53 56.3984 341.566 56.4566 341.589C56.577 341.638 56.7051 341.669 56.8429 341.669H58.4925H59.2106H61.3776H61.7366V341.705H60.0869C59.4785 341.705 58.9855 342.213 58.9855 342.84V350.346C58.9855 350.458 59.0175 350.559 59.0476 350.661C59.0787 350.768 59.1233 350.863 59.1815 350.954C59.1941 350.975 59.2068 350.994 59.2203 351.014C59.2728 351.087 59.3281 351.152 59.397 351.21C59.4406 351.249 59.4911 351.278 59.5406 351.31C59.5939 351.342 59.6425 351.378 59.7007 351.401C59.821 351.45 59.9491 351.481 60.0879 351.481H59.9355V351.517H57.7686V351.479H57.0505V351.515H54.8836V351.479H54.1655V351.515H52.5158C51.9074 351.515 51.4144 352.024 51.4144 352.651V360.156C51.4144 360.268 51.4465 360.37 51.4765 360.472C51.5076 360.579 51.5522 360.674 51.6105 360.765C51.6231 360.786 51.6357 360.805 51.6502 360.825C51.7026 360.898 51.758 360.963 51.8259 361.02C51.8705 361.059 51.92 361.089 51.9695 361.12C52.0229 361.152 52.0704 361.188 52.1296 361.211C52.2499 361.26 52.378 361.291 52.5168 361.291H54.1665H54.8846H57.0515H57.232V361.327H55.5823C54.9739 361.327 54.4809 361.835 54.4809 362.462V369.968C54.4809 370.08 54.5129 370.181 54.543 370.283C54.5741 370.39 54.6187 370.485 54.6769 370.576C54.6895 370.597 54.7022 370.616 54.7157 370.636C54.7681 370.709 54.8235 370.774 54.8914 370.832C54.936 370.871 54.9855 370.9 55.035 370.932C55.0884 370.964 55.1359 371 55.1951 371.023C55.3154 371.072 55.4435 371.103 55.5823 371.103H55.43V371.139H53.7803C53.1718 371.139 52.6789 371.647 52.6789 372.275V379.78C52.6789 379.892 52.7109 379.993 52.741 380.095C52.772 380.202 52.8167 380.297 52.8749 380.389C52.8875 380.41 52.9001 380.429 52.9137 380.449C52.9671 380.522 53.0224 380.587 53.0903 380.645C53.134 380.684 53.1835 380.713 53.2339 380.745C53.2873 380.777 53.3358 380.813 53.3941 380.836C53.5134 380.884 53.6415 380.916 53.7793 380.916H53.7812H55.4309H56.149H58.3159H58.4945V380.952H56.8448C56.2364 380.952 55.7434 381.46 55.7434 382.087V389.593C55.7434 389.705 55.7754 389.806 55.8055 389.908C55.8366 390.015 55.8812 390.11 55.9394 390.201C55.952 390.222 55.9646 390.241 55.9782 390.261C56.0316 390.334 56.0869 390.399 56.1548 390.457C56.1985 390.496 56.248 390.525 56.2985 390.557C56.3518 390.589 56.4004 390.625 56.4586 390.648C56.5789 390.697 56.707 390.728 56.8448 390.728H56.8594C69.3067 383.97 80.8428 368.369 86.6779 348.292Z" fill="#292759"/>
<path d="M60.5228 279.157L53.1973 276.895L20.9741 387.778L28.2997 390.04C46.7344 395.733 68.8926 375.526 77.7911 344.906C86.6888 314.287 78.9576 284.85 60.5228 279.157Z" fill="#FCB747"/>
<path d="M70.4507 342.659C79.3498 312.04 71.62 282.604 53.1858 276.91C34.7515 271.216 12.5934 291.422 3.69432 322.04C-5.20476 352.659 2.52507 382.096 20.9593 387.789C39.3936 393.483 61.5517 373.277 70.4507 342.659Z" fill="#FC8941"/>
<path d="M51.7397 286.847C36.4782 282.134 18.1347 298.862 10.7684 324.21C3.40206 349.558 9.80186 373.927 25.0634 378.641C40.3249 383.354 58.6684 366.626 66.0347 341.278C73.401 315.929 67.0012 291.559 51.7397 286.847ZM62.7315 340.256C56.2453 362.574 40.0949 377.302 26.6587 373.153C13.2216 369.004 7.58644 347.547 14.0726 325.229C20.5588 302.911 36.7092 288.183 50.1454 292.333C63.5825 296.483 69.2176 317.939 62.7315 340.256Z" fill="#BD5B1E"/>
<path d="M42.5528 347.037C41.2971 348.812 39.8026 350.199 38.0714 351.194C36.3403 352.193 34.5072 352.621 32.5741 352.481L31.1525 357.372L28.7537 357.042L30.1928 352.089C27.6503 351.363 25.8861 349.79 24.9012 347.372C23.9162 344.954 23.923 341.846 24.9225 338.047L31.7425 338.984C31.1903 341.421 31.463 343.069 32.5634 343.933L35.3369 334.388C33.6231 333.315 32.2966 332.317 31.3563 331.392C30.4159 330.468 29.7561 329.099 29.3747 327.288C28.9914 325.475 29.2272 323.101 30.0821 320.16C31.1467 316.496 32.8449 313.673 35.1738 311.69C37.5028 309.706 40.0326 308.756 42.7624 308.838L44.184 303.946L46.5828 304.276L45.1612 309.168C47.6891 309.852 49.4057 311.364 50.3102 313.708C51.2126 316.053 51.202 319.129 50.2772 322.938L43.4203 321.995C43.9026 319.8 43.6746 318.305 42.7381 317.505L40.0171 326.869C41.8201 328.08 43.1796 329.124 44.0928 330.004C45.0069 330.884 45.6639 332.22 46.0656 334.012C46.4654 335.806 46.2461 338.152 45.4038 341.052C44.7585 343.269 43.8085 345.263 42.5528 347.037ZM36.8468 323.229C37.0351 323.968 37.4145 324.647 37.987 325.271L40.4276 316.874C39.6697 316.979 38.9933 317.336 38.4014 317.946C37.8094 318.555 37.3427 319.444 37.004 320.611C36.7109 321.62 36.6576 322.49 36.8468 323.229ZM37.1088 343.242C37.7687 342.537 38.2626 341.621 38.5906 340.494C38.8953 339.446 38.937 338.562 38.7177 337.842C38.4984 337.121 38.0588 336.463 37.4009 335.869L34.9079 344.448C35.7153 344.35 36.4489 343.948 37.1088 343.242Z" fill="#BD5B1E"/>
<path d="M50.4238 286.44C35.1623 281.727 16.8188 298.455 9.4525 323.803C2.08617 349.151 8.48597 373.52 23.7475 378.234C39.009 382.946 57.3525 366.219 64.7188 340.871C72.0852 315.522 65.6844 291.152 50.4238 286.44ZM61.4156 339.85C54.9294 362.168 38.779 376.896 25.3428 372.747C11.9057 368.597 6.27055 347.141 12.7567 324.823C19.2429 302.505 35.3933 287.777 48.8295 291.927C62.2657 296.076 67.9008 317.533 61.4156 339.85Z" fill="#FCB747"/>
<path d="M30.6959 296.643L29.7469 291.532L29.3345 291.852L30.2845 296.97C30.4223 296.862 30.5581 296.747 30.6959 296.643Z" fill="#FC8941"/>
<path d="M39.9931 292.022L40.3802 286.236L39.9562 286.343L39.569 292.126C39.7107 292.089 39.8514 292.056 39.9931 292.022Z" fill="#FC8941"/>
<path d="M35.3181 293.751L35.0328 288.213L34.6088 288.428L34.8941 293.965C35.0348 293.892 35.1764 293.822 35.3181 293.751Z" fill="#FC8941"/>
<path d="M44.5783 291.53L45.6273 285.658L45.2187 285.651L44.1697 291.526C44.3056 291.526 44.4414 291.527 44.5783 291.53Z" fill="#FC8941"/>
<path d="M18.5221 311.32L15.834 308.341L15.5284 308.9L18.2183 311.88C18.3183 311.693 18.4192 311.505 18.5221 311.32Z" fill="#FC8941"/>
<path d="M15.4456 317.721L12.3122 315.66L12.0648 316.266L15.1962 318.326C15.2778 318.123 15.3622 317.922 15.4456 317.721Z" fill="#FC8941"/>
<path d="M26.2718 300.631L24.6862 296.093L24.298 296.504L25.8817 301.035C26.0098 300.896 26.1418 300.766 26.2718 300.631Z" fill="#FC8941"/>
<path d="M22.171 305.568L19.9992 301.752L19.647 302.244L21.8188 306.062C21.9371 305.895 22.0536 305.73 22.171 305.568Z" fill="#FC8941"/>
<path d="M63.8517 319.041L67.6867 317.091L67.6556 316.48L63.8216 318.43C63.8323 318.633 63.842 318.837 63.8517 319.041Z" fill="#FC8941"/>
<path d="M63.7561 325.943L67.5776 324.982L67.6203 324.343L63.8008 325.303C63.7882 325.515 63.7717 325.729 63.7561 325.943Z" fill="#FC8941"/>
<path d="M48.7472 292.209C48.8112 292.229 48.8723 292.256 48.9364 292.276L50.6152 286.499L50.2319 286.381L48.5531 292.158C48.6181 292.177 48.6831 292.189 48.7472 292.209Z" fill="#FC8941"/>
<path d="M12.9259 324.876C12.957 324.769 12.9919 324.666 13.023 324.559L9.54409 323.485L9.35971 324.121L12.8376 325.195C12.8687 325.088 12.8949 324.982 12.9259 324.876Z" fill="#FC8941"/>
<path d="M62.8422 333.039L66.5424 333.093L66.6588 332.447L62.9568 332.393C62.9199 332.608 62.882 332.824 62.8422 333.039Z" fill="#FC8941"/>
<path d="M63.1399 312.541L66.8653 309.665L66.7595 309.102L63.0283 311.983C63.0652 312.169 63.1069 312.352 63.1399 312.541Z" fill="#FC8941"/>
<path d="M52.9351 294.233L55.1835 288.754L54.8381 288.527L52.5906 294.005C52.7061 294.079 52.8206 294.156 52.9351 294.233Z" fill="#FC8941"/>
<path d="M56.4581 297.342L59.2083 292.312L58.9113 291.982L56.1593 297.014C56.2592 297.122 56.3592 297.23 56.4581 297.342Z" fill="#FC8941"/>
<path d="M59.3819 301.529L62.5609 297.082L62.3213 296.662L59.1422 301.109C59.2228 301.249 59.3033 301.388 59.3819 301.529Z" fill="#FC8941"/>
<path d="M61.6293 306.65L65.1382 302.928L64.9645 302.428L61.4604 306.145C61.5196 306.309 61.572 306.482 61.6293 306.65Z" fill="#FC8941"/>
<path d="M14.7895 363.144L11.5988 367.607L11.8385 368.027L15.0301 363.564C14.9486 363.426 14.8681 363.287 14.7895 363.144Z" fill="#FC8941"/>
<path d="M43.4756 368.031L44.4208 373.121L44.8332 372.802L43.8871 367.704C43.7493 367.811 43.6134 367.926 43.4756 368.031Z" fill="#FC8941"/>
<path d="M47.9 364.043L49.4798 368.563L49.868 368.152L48.2911 363.639C48.162 363.778 48.0301 363.908 47.9 364.043Z" fill="#FC8941"/>
<path d="M38.8539 370.921L39.1382 376.437L39.5623 376.222L39.278 370.707C39.1373 370.78 38.9956 370.851 38.8539 370.921Z" fill="#FC8941"/>
<path d="M52.0006 359.105L54.1636 362.906L54.5158 362.414L52.3528 358.612C52.2354 358.777 52.118 358.942 52.0006 359.105Z" fill="#FC8941"/>
<path d="M61.3332 339.478C61.3031 339.585 61.2769 339.691 61.2458 339.798C61.2148 339.905 61.1798 340.008 61.1488 340.114L64.6131 341.185L64.7975 340.549L61.3332 339.478Z" fill="#FC8941"/>
<path d="M34.1783 372.652L33.7921 378.416L34.2161 378.309L34.6014 372.548C34.4607 372.585 34.319 372.618 34.1783 372.652Z" fill="#FC8941"/>
<path d="M11.3284 331.634L7.61369 331.579L7.49725 332.226L11.2129 332.281C11.2517 332.066 11.2886 331.851 11.3284 331.634Z" fill="#FC8941"/>
<path d="M55.6493 353.354L58.3276 356.321L58.6333 355.763L55.954 352.794C55.8521 352.982 55.7512 353.169 55.6493 353.354Z" fill="#FC8941"/>
<path d="M58.7256 346.953L61.8464 349.006L62.0938 348.399L58.974 346.348C58.8935 346.551 58.809 346.752 58.7256 346.953Z" fill="#FC8941"/>
<path d="M11.0306 352.134L7.29161 355.021L7.39738 355.584L11.1422 352.692C11.1063 352.505 11.0645 352.322 11.0306 352.134Z" fill="#FC8941"/>
<path d="M10.3201 345.632L6.47052 347.59L6.50157 348.201L10.3502 346.245C10.3385 346.041 10.3298 345.836 10.3201 345.632Z" fill="#FC8941"/>
<path d="M12.5423 358.024L9.01877 361.76L9.19247 362.26L12.7102 358.53C12.651 358.364 12.5996 358.191 12.5423 358.024Z" fill="#FC8941"/>
<path d="M10.4142 338.731L6.5772 339.696L6.53451 340.336L10.3686 339.371C10.3831 339.158 10.3996 338.944 10.4142 338.731Z" fill="#FC8941"/>
<path d="M29.5932 373.143L28.5481 378.993L28.9566 379L30.0017 373.148C29.8659 373.147 29.729 373.147 29.5932 373.143Z" fill="#FC8941"/>
<path d="M25.4246 372.465C25.3606 372.445 25.2994 372.419 25.2354 372.398L23.5634 378.153L23.9467 378.271L25.6197 372.516C25.5537 372.497 25.4887 372.485 25.4246 372.465Z" fill="#FC8941"/>
<path d="M21.2359 370.44L18.9788 375.942L19.3243 376.168L21.5804 370.669C21.464 370.594 21.3505 370.517 21.2359 370.44Z" fill="#FC8941"/>
<path d="M17.7138 367.332L14.952 372.383L15.2489 372.713L18.0117 367.659C17.9127 367.551 17.8118 367.443 17.7138 367.332Z" fill="#FC8941"/>
<path d="M28.5716 298.394L27.3179 293.538L26.9152 293.903L28.1709 298.766C28.3048 298.643 28.4367 298.514 28.5716 298.394Z" fill="#FC8941"/>
<path d="M37.7867 292.685L37.8566 286.998L37.4306 287.158L37.3607 292.842C37.5024 292.787 37.644 292.736 37.7867 292.685Z" fill="#FC8941"/>
<path d="M33.12 294.977L32.5193 289.619L32.0991 289.884L32.6998 295.241C32.8385 295.151 32.9792 295.064 33.12 294.977Z" fill="#FC8941"/>
<path d="M42.431 291.611L43.1704 285.753L42.7531 285.799L42.0137 291.659C42.1534 291.643 42.2922 291.625 42.431 291.611Z" fill="#FC8941"/>
<path d="M16.989 314.273L14.0826 311.721L13.8022 312.304L16.7105 314.858C16.8036 314.663 16.8958 314.466 16.989 314.273Z" fill="#FC8941"/>
<path d="M14.2138 320.908L10.9057 319.307L10.6873 319.929L13.9945 321.529C14.0663 321.321 14.14 321.115 14.2138 320.908Z" fill="#FC8941"/>
<path d="M24.2864 302.852L22.4155 298.638L22.0429 299.088L23.9109 303.297C24.0341 303.146 24.1622 303.001 24.2864 302.852Z" fill="#FC8941"/>
<path d="M20.3856 308.195L17.9586 304.759L17.6277 305.284L20.0547 308.72C20.1653 308.545 20.275 308.369 20.3856 308.195Z" fill="#FC8941"/>
<path d="M63.615 315.908L67.4132 313.51L67.3472 312.919L63.549 315.316C63.5733 315.513 63.5937 315.71 63.615 315.908Z" fill="#FC8941"/>
<path d="M63.9061 322.643L67.746 321.211L67.7537 320.583L63.9158 322.014C63.9139 322.223 63.909 322.433 63.9061 322.643Z" fill="#FC8941"/>
<path d="M46.7171 291.73C46.7841 291.741 46.8471 291.759 46.9141 291.771L48.3008 285.925L47.9039 285.86L46.5172 291.706C46.5842 291.716 46.6511 291.719 46.7171 291.73Z" fill="#FC8941"/>
<path d="M12.0479 328.205C12.0732 328.097 12.1033 327.992 12.1295 327.884L8.52441 327.289L8.37206 327.932L11.9771 328.526C12.0014 328.42 12.0227 328.313 12.0479 328.205Z" fill="#FC8941"/>
<path d="M63.3722 329.676L67.1461 329.249L67.2286 328.603L63.4537 329.032C63.4266 329.246 63.4004 329.46 63.3722 329.676Z" fill="#FC8941"/>
<path d="M62.5262 309.667L66.1604 306.381L66.0216 305.845L62.3816 309.137C62.4282 309.315 62.4806 309.488 62.5262 309.667Z" fill="#FC8941"/>
<path d="M51.0989 293.158L53.0824 287.527L52.7175 287.352L50.735 292.98C50.8582 293.038 50.9786 293.098 51.0989 293.158Z" fill="#FC8941"/>
<path d="M54.8632 295.729L57.3833 290.471L57.0621 290.188L54.54 295.449C54.6487 295.541 54.7574 295.633 54.8632 295.729Z" fill="#FC8941"/>
<path d="M58.078 299.428L61.0679 294.685L60.8 294.306L57.8102 299.051C57.9005 299.176 57.9897 299.3 58.078 299.428Z" fill="#FC8941"/>
<path d="M60.6551 304.125L64.0224 300.043L63.8167 299.578L60.4542 303.654C60.5241 303.807 60.5872 303.969 60.6551 304.125Z" fill="#FC8941"/>
<path d="M16.0934 365.244L13.092 370.007L13.3598 370.385L16.3613 365.622C16.272 365.496 16.1817 365.371 16.0934 365.244Z" fill="#FC8941"/>
<path d="M45.6004 366.279L46.8483 371.114L47.251 370.749L46.0012 365.906C45.8663 366.029 45.7343 366.158 45.6004 366.279Z" fill="#FC8941"/>
<path d="M49.8851 361.819L51.7483 366.017L52.1209 365.567L50.2606 361.375C50.1374 361.527 50.0103 361.67 49.8851 361.819Z" fill="#FC8941"/>
<path d="M41.0534 369.695L41.6521 375.032L42.0723 374.767L41.4736 369.431C41.3338 369.521 41.1931 369.608 41.0534 369.695Z" fill="#FC8941"/>
<path d="M53.7868 356.476L56.2041 359.898L56.535 359.373L54.1178 355.95C54.0071 356.126 53.8975 356.302 53.7868 356.476Z" fill="#FC8941"/>
<path d="M62.1955 336.144C62.1703 336.252 62.1499 336.359 62.1237 336.467C62.0984 336.575 62.0684 336.68 62.0422 336.788L65.6326 337.38L65.785 336.737L62.1955 336.144Z" fill="#FC8941"/>
<path d="M36.3843 371.988L36.3144 377.654L36.7404 377.493L36.8103 371.832C36.6686 371.886 36.5269 371.936 36.3843 371.988Z" fill="#FC8941"/>
<path d="M10.8001 334.997L7.01166 335.426L6.92918 336.071L10.7186 335.642C10.7458 335.427 10.771 335.213 10.8001 334.997Z" fill="#FC8941"/>
<path d="M57.1821 350.4L60.0777 352.943L60.3582 352.36L57.4615 349.816C57.3674 350.01 57.2752 350.206 57.1821 350.4Z" fill="#FC8941"/>
<path d="M59.9575 343.764L63.2529 345.358L63.4713 344.736L60.1768 343.142C60.1059 343.351 60.0312 343.557 59.9575 343.764Z" fill="#FC8941"/>
<path d="M11.6461 355.005L7.99742 358.303L8.13619 358.838L11.7907 355.535C11.7432 355.357 11.6908 355.185 11.6461 355.005Z" fill="#FC8941"/>
<path d="M10.5563 348.763L6.74356 351.17L6.80955 351.762L10.6223 349.356C10.599 349.159 10.5776 348.962 10.5563 348.763Z" fill="#FC8941"/>
<path d="M13.5158 360.547L10.1349 364.644L10.3406 365.109L13.7157 361.018C13.6468 360.865 13.5837 360.703 13.5158 360.547Z" fill="#FC8941"/>
<path d="M10.2663 342.028L6.41088 343.467L6.40311 344.095L10.2566 342.657C10.2585 342.449 10.2624 342.239 10.2663 342.028Z" fill="#FC8941"/>
<path d="M31.7405 373.061L31.004 378.895L31.4213 378.849L32.1578 373.012C32.019 373.03 31.8793 373.047 31.7405 373.061Z" fill="#FC8941"/>
<path d="M27.4541 372.942C27.3881 372.931 27.3241 372.913 27.2581 372.901L25.8762 378.725L26.2731 378.79L27.655 372.966C27.588 372.957 27.5211 372.953 27.4541 372.942Z" fill="#FC8941"/>
<path d="M23.0724 371.513L21.0811 377.165L21.446 377.34L23.4363 371.69C23.313 371.634 23.1927 371.573 23.0724 371.513Z" fill="#FC8941"/>
<path d="M19.3081 368.943L16.7773 374.222L17.0985 374.505L19.6303 369.224C19.5226 369.131 19.4149 369.039 19.3081 368.943Z" fill="#FC8941"/>
<path d="M41.295 347.037C40.0393 348.812 38.5449 350.199 36.8137 351.194C35.0825 352.193 33.2494 352.621 31.3164 352.481L29.8947 357.372L27.4959 357.042L28.935 352.089C26.3925 351.363 24.6284 349.79 23.6434 347.372C22.6584 344.954 22.6652 341.846 23.6647 338.047L30.4847 338.984C29.9326 341.421 30.2053 343.069 31.3057 343.933L34.0791 334.388C32.3654 333.315 31.0388 332.317 30.0985 331.392C29.1582 330.468 28.4983 329.099 28.1169 327.288C27.7336 325.475 27.9694 323.101 28.8244 320.16C29.8889 316.496 31.5871 313.673 33.9161 311.69C36.245 309.706 38.7749 308.756 41.5046 308.838L42.9263 303.946L45.3251 304.276L43.9034 309.168C46.4313 309.852 48.148 311.364 49.0524 313.708C49.9549 316.053 49.9442 319.129 49.0194 322.938L42.1625 321.995C42.6448 319.8 42.4168 318.305 41.4803 317.505L38.7593 326.869C40.5623 328.08 41.9219 329.124 42.835 330.004C43.7492 330.884 44.4061 332.22 44.8079 334.012C45.2077 335.806 44.9884 338.152 44.146 341.052C43.5017 343.269 42.5507 345.263 41.295 347.037ZM35.589 323.229C35.7773 323.968 36.1567 324.647 36.7293 325.271L39.1689 316.874C38.411 316.979 37.7346 317.336 37.1426 317.946C36.5507 318.555 36.0839 319.444 35.7453 320.611C35.4532 321.62 35.4008 322.49 35.589 323.229ZM35.852 343.242C36.5119 342.537 37.0058 341.621 37.3338 340.494C37.6385 339.446 37.6803 338.562 37.4609 337.842C37.2416 337.121 36.802 336.463 36.1441 335.869L33.6511 344.448C34.4585 344.35 35.1921 343.948 35.852 343.242Z" fill="#FCB747"/>
<path d="M73.0182 304.658L80.3437 306.92C80.2981 306.671 80.2457 306.428 80.1972 306.182L72.8716 303.92C72.9201 304.167 72.9716 304.41 73.0182 304.658Z" fill="#FC8941"/>
<path d="M73.5363 307.949L80.8618 310.211C80.8298 309.97 80.8007 309.728 80.7667 309.489L73.4412 307.227C73.4751 307.465 73.5052 307.708 73.5363 307.949Z" fill="#FC8941"/>
<path d="M73.8828 311.185L81.2084 313.447C81.188 313.21 81.1695 312.971 81.1472 312.735L73.8217 310.473C73.844 310.71 73.8624 310.948 73.8828 311.185Z" fill="#FC8941"/>
<path d="M72.2936 301.305L79.6191 303.567C79.558 303.318 79.5027 303.064 79.4386 302.817L72.1131 300.556C72.1771 300.802 72.2324 301.056 72.2936 301.305Z" fill="#FC8941"/>
<path d="M70.0769 294.361L77.4025 296.623C77.2938 296.354 77.1803 296.091 77.0677 295.827L69.7421 293.565C69.8547 293.829 69.9682 294.092 70.0769 294.361Z" fill="#FC8941"/>
<path d="M62.5993 282.662L69.9249 284.924C69.561 284.563 69.1864 284.221 68.807 283.886L61.4814 281.624C61.8618 281.959 62.2364 282.301 62.5993 282.662Z" fill="#FC8941"/>
<path d="M68.3974 290.712L75.7229 292.974C75.5774 292.694 75.4299 292.417 75.2795 292.144L67.9539 289.882C68.1043 290.156 68.2518 290.433 68.3974 290.712Z" fill="#FC8941"/>
<path d="M74.0857 314.377L81.4112 316.639C81.4015 316.403 81.388 316.17 81.3763 315.935L74.0507 313.673C74.0624 313.907 74.076 314.141 74.0857 314.377Z" fill="#FC8941"/>
<path d="M71.3386 297.88L78.6642 300.141C78.5817 299.88 78.4934 299.626 78.407 299.369L71.0815 297.107C71.1678 297.365 71.2561 297.619 71.3386 297.88Z" fill="#FC8941"/>
<path d="M71.5284 338.626L78.8539 340.888C78.9063 340.673 78.9588 340.458 79.0102 340.242L71.6846 337.981C71.6332 338.196 71.5808 338.411 71.5284 338.626Z" fill="#FC8941"/>
<path d="M72.1956 335.702L79.5212 337.964C79.5668 337.747 79.6134 337.53 79.657 337.312L72.3315 335.051C72.2878 335.268 72.2412 335.485 72.1956 335.702Z" fill="#FC8941"/>
<path d="M72.77 332.75L80.0956 335.012C80.1344 334.793 80.1742 334.574 80.212 334.354L72.8865 332.093C72.8496 332.311 72.8088 332.531 72.77 332.75Z" fill="#FC8941"/>
<path d="M70.7727 341.521L78.0983 343.783C78.1575 343.57 78.2157 343.357 78.273 343.143L70.9474 340.882C70.8902 341.095 70.8319 341.308 70.7727 341.521Z" fill="#FC8941"/>
<path d="M74.1576 317.53L81.4832 319.791C81.4832 319.557 81.4745 319.328 81.4716 319.095L74.146 316.833C74.1479 317.065 74.1576 317.294 74.1576 317.53Z" fill="#FC8941"/>
<path d="M74.0932 320.64L81.4188 322.901C81.4275 322.672 81.4363 322.444 81.4431 322.216L74.1175 319.954C74.1107 320.181 74.102 320.411 74.0932 320.64Z" fill="#FC8941"/>
<path d="M73.9169 323.715L81.2425 325.977C81.259 325.751 81.2832 325.524 81.2978 325.3L73.9722 323.038C73.9577 323.263 73.9334 323.491 73.9169 323.715Z" fill="#FC8941"/>
<path d="M73.2512 329.768L80.5767 332.03C80.6087 331.809 80.6427 331.586 80.6728 331.366L73.3472 329.105C73.3171 329.325 73.2832 329.547 73.2512 329.768Z" fill="#FC8941"/>
<path d="M73.6346 326.757L80.9602 329.019C80.9844 328.795 81.0135 328.571 81.0358 328.349L73.7103 326.088C73.688 326.309 73.6588 326.534 73.6346 326.757Z" fill="#FC8941"/>
<path d="M66.108 286.876L73.4336 289.138C73.2211 288.83 72.9969 288.538 72.7766 288.241L65.4511 285.98C65.6713 286.277 65.8955 286.568 66.108 286.876Z" fill="#FC8941"/>
<path d="M64.3447 358.315L71.6703 360.577C71.7702 360.378 71.8653 360.174 71.9643 359.974L64.6388 357.713C64.5398 357.913 64.4447 358.117 64.3447 358.315Z" fill="#FC8941"/>
<path d="M65.6513 355.589L72.9769 357.851C73.0691 357.65 73.1584 357.444 73.2506 357.241L65.925 354.98C65.8338 355.183 65.7435 355.387 65.6513 355.589Z" fill="#FC8941"/>
<path d="M62.9375 361.011L70.2631 363.272C70.3698 363.076 70.4717 362.873 70.5775 362.676L63.2519 360.414C63.1461 360.612 63.0442 360.815 62.9375 361.011Z" fill="#FC8941"/>
<path d="M61.413 363.67L68.7386 365.931C68.8551 365.737 68.9696 365.541 69.0841 365.345L61.7595 363.083C61.644 363.28 61.5295 363.476 61.413 363.67Z" fill="#FC8941"/>
<path d="M59.7733 366.292L67.0989 368.553C67.225 368.36 67.355 368.173 67.4802 367.978L60.1547 365.716C60.0285 365.912 59.8985 366.099 59.7733 366.292Z" fill="#FC8941"/>
<path d="M68.9958 347.233L76.3213 349.495C76.3931 349.287 76.4649 349.078 76.5358 348.867L69.2102 346.606C69.1384 346.815 69.0676 347.024 68.9958 347.233Z" fill="#FC8941"/>
<path d="M69.9287 344.391L77.2543 346.653C77.3193 346.443 77.3843 346.232 77.4493 346.019L70.1238 343.758C70.0587 343.969 69.9937 344.18 69.9287 344.391Z" fill="#FC8941"/>
<path d="M67.9729 350.047L75.2985 352.309C75.3771 352.103 75.4547 351.895 75.5324 351.687L68.2068 349.426C68.1292 349.634 68.0515 349.841 67.9729 350.047Z" fill="#FC8941"/>
<path d="M30.4178 388.524L37.7434 390.786C38.2393 390.721 38.7342 390.647 39.231 390.552L31.9055 388.29C31.4086 388.385 30.9127 388.459 30.4178 388.524Z" fill="#FC8941"/>
<path d="M66.8593 352.832L74.1848 355.094C74.2702 354.89 74.3537 354.684 74.4381 354.478L67.1126 352.217C67.0291 352.422 66.9456 352.628 66.8593 352.832Z" fill="#FC8941"/>
<path d="M43.6832 383.232L51.0088 385.494C51.2436 385.337 51.4794 385.182 51.7133 385.019L44.3877 382.757C44.1539 382.919 43.919 383.075 43.6832 383.232Z" fill="#FC8941"/>
<path d="M58.008 368.877L65.3336 371.139C65.4685 370.95 65.6043 370.763 65.7383 370.571L58.4127 368.309C58.2788 368.5 58.1429 368.687 58.008 368.877Z" fill="#FC8941"/>
<path d="M36.0556 387.135L43.3811 389.397C43.7237 389.274 44.0662 389.158 44.4078 389.021L37.0822 386.759C36.7407 386.896 36.3981 387.012 36.0556 387.135Z" fill="#FC8941"/>
<path d="M46.6931 381.032L54.0186 383.294C54.2282 383.127 54.4378 382.965 54.6455 382.794L47.3199 380.533C47.1113 380.703 46.9017 380.866 46.6931 381.032Z" fill="#FC8941"/>
<path d="M40.2255 385.294L47.551 387.556C47.8227 387.413 48.0935 387.266 48.3642 387.114L41.0387 384.852C40.7679 385.003 40.4972 385.151 40.2255 385.294Z" fill="#FC8941"/>
<path d="M56.1099 371.421L63.4355 373.683C63.5801 373.499 63.7227 373.31 63.8663 373.123L56.5408 370.861C56.3972 371.047 56.2545 371.236 56.1099 371.421Z" fill="#FC8941"/>
<path d="M54.0604 373.918L61.3859 376.18C61.5422 376 61.6955 375.814 61.8508 375.631L54.5252 373.369C54.3699 373.551 54.2166 373.737 54.0604 373.918Z" fill="#FC8941"/>
<path d="M49.3937 378.736L56.7193 380.998C56.9036 380.829 57.0851 380.648 57.2695 380.475L49.9439 378.213C49.7595 378.386 49.5781 378.566 49.3937 378.736Z" fill="#FC8941"/>
<path d="M51.8218 376.355L59.1474 378.617C59.3191 378.439 59.4928 378.265 59.6636 378.084L52.3381 375.822C52.1673 376.003 51.9936 376.177 51.8218 376.355Z" fill="#FC8941"/>
<path d="M167.809 39.783H116.241C113.248 39.783 110.822 37.2822 110.822 34.1968V18.5907C110.822 15.5053 113.248 13.0045 116.241 13.0045H152.951C155.944 13.0045 158.37 15.5053 158.37 18.5907V30.8819C158.37 31.845 158.837 32.7445 159.614 33.2795L168.021 39.0626C168.336 39.2782 168.187 39.783 167.809 39.783Z" fill="#FFE6D6"/>
<path d="M120.874 28.4696C121.986 28.4696 122.888 27.5402 122.888 26.3937C122.888 25.2473 121.986 24.3179 120.874 24.3179C119.762 24.3179 118.86 25.2473 118.86 26.3937C118.86 27.5402 119.762 28.4696 120.874 28.4696Z" fill="#53B1C2"/>
<path d="M129.401 28.4696C130.513 28.4696 131.415 27.5402 131.415 26.3937C131.415 25.2473 130.513 24.3179 129.401 24.3179C128.289 24.3179 127.387 25.2473 127.387 26.3937C127.387 27.5402 128.289 28.4696 129.401 28.4696Z" fill="#53B1C2"/>
<path d="M137.928 28.4696C139.04 28.4696 139.941 27.5402 139.941 26.3937C139.941 25.2473 139.04 24.3179 137.928 24.3179C136.816 24.3179 135.914 25.2473 135.914 26.3937C135.914 27.5402 136.816 28.4696 137.928 28.4696Z" fill="#53B1C2"/>
<path d="M146.455 28.4696C147.567 28.4696 148.469 27.5402 148.469 26.3937C148.469 25.2473 147.567 24.3179 146.455 24.3179C145.343 24.3179 144.442 25.2473 144.442 26.3937C144.442 27.5402 145.343 28.4696 146.455 28.4696Z" fill="#53B1C2"/>
<path d="M191.58 71.2607L207.336 77.6419L213.202 150.708H181.673L175.236 75.152L191.58 71.2607Z" fill="#FFE6D6"/>
<path d="M213.203 150.708H181.673V156.06H213.203V150.708Z" fill="black"/>
<path d="M163.778 156.06H225.866L231.749 363.668H200.873L192.49 191.323L175.319 363.668H144.227L159.059 179.2L163.778 156.06Z" fill="#494687"/>
<path d="M225.867 156.06H163.778L159.059 179.2L157.654 196.677C157.292 201.182 161.271 204.756 165.55 203.77L191.854 197.708L192.491 191.322C192.648 194.546 195.583 196.848 198.639 196.144L226.819 189.65L225.867 156.06Z" fill="#292759"/>
<path d="M156.091 170.111L159.059 179.2C159.059 179.2 164.104 177.549 168.134 166.952L166.438 161.712L156.091 170.111Z" fill="#E86464"/>
<path d="M187.008 192.942L208.215 186.678" stroke="#0E0C33" stroke-width="0.75" stroke-miterlimit="10" stroke-linecap="round" stroke-linejoin="round"/>
<path d="M197.438 156.06L194.729 190.661" stroke="#0E0C33" stroke-width="0.75" stroke-miterlimit="10" stroke-linecap="round" stroke-linejoin="round"/>
<path d="M201.448 156.06L200.434 169.012C200.258 171.26 199.169 173.325 197.434 174.699L195.882 175.928" stroke="#0E0C33" stroke-width="0.75" stroke-miterlimit="10" stroke-linecap="round" stroke-linejoin="round"/>
<path d="M205.616 150.708L200.97 76.0353C200.925 75.319 201.625 74.8019 202.269 75.075L217.763 81.6423L231.472 184.597C231.619 185.698 230.789 186.679 229.711 186.679H225.801C220.056 186.679 214.989 182.798 213.333 177.126L205.616 150.708Z" fill="#494687"/>
<path d="M181.607 73.8686L186.283 150.708L185.567 175.069C185.447 179.135 183.521 182.92 180.342 185.33C177.861 187.213 174.32 186.056 173.344 183.043L166.438 161.711L156.57 155.711C156.421 152.357 157.804 148.965 160.623 145.537L156.118 86.6C155.77 82.0584 158.724 77.948 163.04 76.9666L180.489 72.9993C181.042 72.8752 181.572 73.2874 181.607 73.8686Z" fill="#494687"/>
<path d="M156.57 155.712L166.438 161.712L160.623 145.538C157.804 148.966 156.421 152.358 156.57 155.712Z" fill="#292759"/>
<path d="M194.729 86.2479L198.739 150.708" stroke="#FCB341" stroke-width="0.75" stroke-miterlimit="10" stroke-linecap="round" stroke-linejoin="round"/>
<path d="M125.087 118.4L158.919 79.1974L171.186 97.4598L144.19 130.723L166.438 161.711C166.085 166.214 160.194 173.211 153.538 173.407L124.96 139.45C119.865 133.398 119.92 124.387 125.087 118.4Z" fill="#494687"/>
<path d="M201.254 156.06H194.482C193.382 156.06 192.491 155.141 192.491 154.008V152.76C192.491 151.627 193.382 150.707 194.482 150.707H201.254C202.354 150.707 203.245 151.627 203.245 152.76V154.008C203.245 155.142 202.354 156.06 201.254 156.06Z" fill="#FCB341"/>
<path d="M275.105 156.01L282.076 160.07C284.918 158.876 288.001 158.615 291.44 158.991C293.683 159.236 297.123 161.04 298.916 162.057C299.489 162.382 299.553 163.202 299.044 163.625L298.776 163.849C297.856 164.614 296.617 164.832 295.503 164.427L293.363 163.648C292.35 163.279 291.228 163.407 290.317 163.995L279.494 170.982L269.166 165.926L275.105 156.01Z" fill="#E86464"/>
<path d="M266.887 169.368L272.888 172.461L280.622 158.721L275.018 155.342L266.887 169.368Z" fill="#FFE6D6"/>
<path d="M211.153 78.8393L218.998 82.1645C223.871 84.2302 227.692 88.2926 229.543 93.3784L245.152 136.249L278.01 156.06L268.979 172.102L235.074 154.626C230.63 152.335 227.279 148.282 225.791 143.395L213.972 104.597L211.153 78.8393Z" fill="#494687"/>
<path d="M162.084 146.55L178.13 156.06" stroke="#0E0C33" stroke-width="0.75" stroke-miterlimit="10" stroke-linecap="round" stroke-linejoin="round"/>
<path d="M169.22 104.193L159.033 124.733L158.174 113.493L166.969 102.657C168.007 101.377 169.956 102.708 169.22 104.193Z" fill="#292759"/>
<path d="M170.107 161.484L178.962 177.32" stroke="#0E0C33" stroke-width="0.75" stroke-miterlimit="10" stroke-linecap="round" stroke-linejoin="round"/>
<path d="M219.598 95.4151L225.518 139.884" stroke="#0E0C33" stroke-width="0.75" stroke-miterlimit="10" stroke-linecap="round" stroke-linejoin="round"/>
<path d="M193.118 86.78L190.819 90.2312C190.105 91.3036 188.646 91.4967 187.692 90.6464L183.354 86.78" stroke="#FCB341" stroke-width="0.75" stroke-miterlimit="10" stroke-linecap="round" stroke-linejoin="round"/>
<path d="M196.077 86.78L197.821 89.494C198.263 90.1832 199.24 90.2002 199.705 89.527L200.874 87.8334" stroke="#FCB341" stroke-width="0.75" stroke-miterlimit="10" stroke-linecap="round" stroke-linejoin="round"/>
<path d="M179.204 75.4871L171.957 85.2695C170.895 86.703 171.011 88.7227 172.232 90.0152L179.205 97.4028L174.836 103.364C174.061 104.42 173.893 105.822 174.395 107.04L183.356 128.823" stroke="#0E0C33" stroke-width="0.75" stroke-miterlimit="10" stroke-linecap="round" stroke-linejoin="round"/>
<path d="M202.441 76.9446L210.981 85.5486C212.233 86.8091 212.399 88.8248 211.372 90.2853L205.504 98.6312L210.662 103.881C211.576 104.811 211.938 106.173 211.612 107.453L205.79 130.34" stroke="#0E0C33" stroke-width="0.75" stroke-miterlimit="10" stroke-linecap="round" stroke-linejoin="round"/>
<path d="M223.994 359.802H206.489V376.72H223.994V359.802Z" fill="#F77474"/>
<path d="M165.778 376.641H148.273L149.432 359.802H166.937L165.778 376.641Z" fill="#F77474"/>
<path d="M165.659 370.424L163.106 369.335V368.3C163.106 367.116 162.174 366.157 161.026 366.157H152.94C151.974 366.157 151.192 366.963 151.192 367.958V370.308H148.945C148.074 370.308 147.265 370.737 146.722 371.439C141.734 377.902 140.925 385.967 140.925 385.967V390.681H171.213V385.967L168.049 373.261C167.729 371.982 166.844 370.93 165.659 370.424Z" fill="#292759"/>
<path d="M200.873 363.668H231.749L231.491 354.589H200.432L200.873 363.668Z" fill="#292759"/>
<path d="M176.223 354.589H144.958L144.227 363.668H175.319L176.223 354.589Z" fill="#292759"/>
<path d="M169.034 385.967H142.211" stroke="#494687" stroke-width="0.5" stroke-miterlimit="10" stroke-linecap="round" stroke-linejoin="round"/>
<path d="M200.432 390.682H251.153V386.117C251.153 383.237 249.532 380.619 246.998 379.405L225.792 369.25L225.436 368.444C224.819 367.051 223.47 366.157 221.983 366.157H220.252C219.128 366.157 218.363 367.332 218.789 368.404L219.98 371.399C220.635 373.048 219.008 374.679 217.428 373.958L209.907 370.53C207.893 369.613 205.552 370.558 204.656 372.631C202.888 376.72 200.432 383.665 200.432 390.682Z" fill="#292759"/>
<path d="M249.485 385.967H202.877" stroke="#494687" stroke-width="0.5" stroke-miterlimit="10" stroke-linecap="round" stroke-linejoin="round"/>
<path d="M197.789 77.1187L195.367 83.9711C195.049 84.8724 193.947 85.1565 193.254 84.5153L184.34 76.2604C183.464 75.4491 182.964 74.2937 182.964 73.0803V52.311H198.347V73.8546C198.348 74.967 198.158 76.0723 197.789 77.1187Z" fill="#E86464"/>
<path d="M185.377 56.7626C185.377 56.7626 185.891 69.7631 195.226 72.327C196.803 72.7602 198.348 71.5017 198.348 69.8191V60.6399L185.377 56.7626Z" fill="#0E0C33"/>
<path d="M205.616 42.2885L204.722 58.4752C204.447 63.4499 200.454 67.3383 195.62 67.3383C191.943 67.3383 188.625 65.0595 187.208 61.5603L182.567 50.0953L185.069 40.9991L205.616 42.2885Z" fill="#E86464"/>
<path d="M193.386 59.0734C194.894 59.0734 196.116 57.8135 196.116 56.2594C196.116 54.7053 194.894 53.4454 193.386 53.4454C191.879 53.4454 190.656 54.7053 190.656 56.2594C190.656 57.8135 191.879 59.0734 193.386 59.0734Z" fill="#DE4A4A"/>
<path d="M205.723 30.2753C203.271 30.2753 201.051 31.0896 199.403 32.4071C197.552 31.0886 195.056 30.2753 192.302 30.2753C188.318 30.2753 184.868 31.9699 183.144 34.4488C181.442 33.8516 179.686 33.8726 178.143 34.6629C174.425 36.5675 173.372 42.1775 175.79 47.1912C177.823 51.4067 181.66 53.8476 185.04 53.3904C186.87 51.1236 187.689 48.0045 188.019 45.0685C189.325 45.5167 190.772 45.7728 192.301 45.7728C195.055 45.7728 197.551 44.9585 199.402 43.641C201.05 44.9595 203.271 45.7728 205.722 45.7728C210.798 45.7728 214.913 42.3035 214.913 38.024C214.913 33.7446 210.799 30.2753 205.723 30.2753Z" fill="#292759"/>
<path d="M187.243 52.9463L183.147 49.321C181.597 47.9495 179.24 48.2436 178.053 49.9572C176.918 51.5958 177.315 53.8766 178.932 55.007L181.663 56.9156C182.814 57.7199 184.381 57.4008 185.148 56.2064L187.243 52.9463Z" fill="#E86464"/>
<path d="M179.472 52.4031C179.472 52.4031 181.645 49.6201 184.741 54.1677" stroke="#0E0C33" stroke-width="0.75" stroke-miterlimit="10" stroke-linecap="round" stroke-linejoin="round"/>
<path d="M194.199 52.1119C194.85 52.1119 195.378 51.5678 195.378 50.8965C195.378 50.2253 194.85 49.6811 194.199 49.6811C193.548 49.6811 193.02 50.2253 193.02 50.8965C193.02 51.5678 193.548 52.1119 194.199 52.1119Z" fill="#0E0C33"/>
<path d="M202.115 52.1119C202.767 52.1119 203.294 51.5678 203.294 50.8965C203.294 50.2253 202.767 49.6811 202.115 49.6811C201.464 49.6811 200.936 50.2253 200.936 50.8965C200.936 51.5678 201.464 52.1119 202.115 52.1119Z" fill="#0E0C33"/>
<path d="M199.194 50.2063V52.8652L200.138 54.3247C200.48 54.8529 200.113 55.5602 199.497 55.5602H197.596" stroke="#0E0C33" stroke-width="0.75" stroke-miterlimit="10" stroke-linecap="round" stroke-linejoin="round"/>
<path d="M199.811 57.881C199.811 57.881 196.397 59.2665 193.928 56.3834" stroke="#0E0C33" stroke-width="0.75" stroke-miterlimit="10" stroke-linecap="round" stroke-linejoin="round"/>
<path d="M194.702 55.8963L193.383 56.7626" stroke="#0E0C33" stroke-width="0.75" stroke-miterlimit="10" stroke-linecap="round" stroke-linejoin="round"/>
<path d="M192.314 47.9465C192.314 47.9465 194.256 47.1632 196.115 47.9465" stroke="#292759" stroke-miterlimit="10"/>
<path d="M200.216 47.9465C200.216 47.9465 202.159 47.1632 204.017 47.9465" stroke="#292759" stroke-miterlimit="10"/>
<path d="M300.037 167.716L303.79 170.115C305.393 171.14 304.725 173.735 302.839 173.736C302.632 173.736 302.415 173.728 302.189 173.713C301.933 175.013 300.468 176.12 298.511 175.42C298.563 176.622 296.807 177.464 295.511 176.782C295.614 177.698 294.878 178.017 293.71 178.028C293.157 178.033 292.634 177.76 292.281 177.32L289.918 174.372C290.021 173.105 290.64 172.39 292.358 172.852C292.663 171.736 293.531 171.308 294.887 171.474C295.236 170.031 295.996 169.228 297.456 169.511C297.251 167.758 298.435 166.878 300.037 167.716Z" fill="#E86464"/>
<path d="M298.048 170.284L301.561 173.062" stroke="#0E0C33" stroke-width="0.75" stroke-miterlimit="10" stroke-linecap="round" stroke-linejoin="round"/>
<path d="M295.283 172.119L297.825 174.635" stroke="#0E0C33" stroke-width="0.75" stroke-miterlimit="10" stroke-linecap="round" stroke-linejoin="round"/>
<path d="M292.868 173.376L294.799 175.761" stroke="#0E0C33" stroke-width="0.75" stroke-miterlimit="10" stroke-linecap="round" stroke-linejoin="round"/>
</svg>
